<?xml version="1.0" standalone="no"?>
<!DOCTYPE svg PUBLIC "-//W3C//DTD SVG 1.1//EN" "http://www.w3.org/Graphics/SVG/1.1/DTD/svg11.dtd" >
<svg xmlns="http://www.w3.org/2000/svg">
<metadata></metadata>
<defs>
<font id="standard_lifeitalic" horiz-adv-x="1116" >
<font-face units-per-em="2048" ascent="1552" descent="-496" />
<missing-glyph horiz-adv-x="612" />
<glyph horiz-adv-x="2048" />
<glyph horiz-adv-x="2048" />
<glyph horiz-adv-x="682" />
<glyph unicode="&#xd;" horiz-adv-x="1933" />
<glyph unicode=" "  horiz-adv-x="612" />
<glyph unicode="&#x09;" horiz-adv-x="612" />
<glyph unicode="&#xa0;" horiz-adv-x="612" />
<glyph unicode="!" horiz-adv-x="675" d="M70 0l53 246h266l-53 -246h-266zM207 362l174 1117h287l-312 -1117h-149z" />
<glyph unicode="&#x22;" horiz-adv-x="598" d="M18 913l121 566h172l-121 -566h-172zM309 913l121 566h172l-121 -566h-172z" />
<glyph unicode="#" horiz-adv-x="1196" d="M-86 0l236 440h-213l28 131h256l191 355h-209l28 131h250l226 422h155l-225 -422h305l225 422h156l-225 -422h211l-29 -131h-254l-190 -355h204l-26 -131h-248l-236 -440h-155l235 440h-305l-235 -440h-156zM375 571h307l190 355h-307z" />
<glyph unicode="$" horiz-adv-x="1095" d="M-41 39l41 197q187 -24 301 -31q103 -8 169 -1t118 36q44 23 73 70.5t29 97.5q1 48 -19.5 80t-76.5 73q-107 80 -236 158q-76 49 -119.5 88.5t-66 83.5t-21.5 93t13 116q39 181 150.5 272t338.5 115l37 180h152l-39 -176q163 -7 313 -39q-8 -45 -26 -131l-17 -78 q-169 34 -340 37q-83 2 -137.5 -7.5t-93.5 -43.5q-48 -39 -60 -109q-7 -46 11 -74.5t57 -56.5q9 -6 26.5 -18t24.5 -17q17 -10 86.5 -51.5t129.5 -79t95 -63.5q65 -50 95 -103.5t30.5 -113t-14.5 -133.5q-38 -181 -157 -279.5t-341 -132.5l-39 -186h-149l37 178 q-227 6 -375 49z" />
<glyph unicode="%" horiz-adv-x="1554" d="M125 1014l31 143q39 174 137 254q49 40 99.5 60t123.5 20q72 0 114.5 -20t74.5 -60q63 -81 28 -254l-31 -143q-39 -178 -135 -258q-47 -39 -99 -58.5t-126 -19.5q-73 0 -116 19.5t-74 58.5q-63 80 -27 258zM131 0l1192 1479h174l-1188 -1479h-178zM289 858q20 -49 82 -49 q61 0 102 49q37 42 62 154l30 145q23 105 4 154q-20 49 -82 49q-61 0 -102 -49q-36 -40 -61 -154l-31 -145q-23 -105 -4 -154zM897 324l31 143q35 170 135 254q48 40 99.5 60t123.5 20t114.5 -20t74.5 -60q66 -84 28 -254l-30 -143q-38 -177 -136 -258q-47 -39 -98.5 -58.5 t-124.5 -19.5q-74 0 -117 19.5t-73 58.5q-65 83 -27 258zM1061 168q20 -49 80 -49q61 0 102 49q42 47 62 154l30 145q24 110 4 154q-20 49 -79 49q-62 0 -103 -49q-38 -43 -63 -154l-31 -145q-21 -112 -2 -154z" />
<glyph unicode="&#x26;" horiz-adv-x="1331" d="M-23 350q11 110 76 197t178 166q6 4 35.5 21t63.5 38q-41 61 -60.5 95t-34.5 80t-14 92.5t15 111.5q36 162 162 254t350 92q211 0 304 -89t58 -253q-20 -90 -47 -144t-65 -89t-115 -84q-28 -18 -90.5 -52t-108.5 -61l195 -274q14 16 25.5 33.5t20.5 36.5t15 33.5 t11.5 35.5t8 30.5t6.5 31.5t5 26h168q-9 -101 -49.5 -202.5t-106.5 -178.5q3 -9 25 -37l57 -78q22 -32 66 -94t61 -86h-315l-84 113q-178 -128 -387 -133q-141 -4 -224.5 20t-134.5 78q-88 94 -70 270zM246 385q-19 -93 30.5 -149t165.5 -56q132 0 244 78q-154 209 -242 340 q-72 -32 -127 -87t-71 -126zM467 1159q-11 -51 1.5 -91.5t41.5 -86.5q10 -16 35 -51l18 -29q35 19 70.5 37.5t54.5 28.5t27 14q143 79 162 176q20 93 -21.5 136.5t-146.5 43.5q-204 0 -242 -178z" />
<glyph unicode="'" horiz-adv-x="399" d="M59 913l121 566h172l-121 -566h-172z" />
<glyph unicode="(" horiz-adv-x="698" d="M45 258q9 155 39 297q47 223 165.5 481.5t287.5 450.5h217q-128 -188 -240.5 -445t-161.5 -487q-49 -246 -45.5 -495.5t51.5 -438.5h-219q-59 132 -81 307t-13 330z" />
<glyph unicode=")" horiz-adv-x="698" d="M-29 -379q127 188 239.5 445.5t162.5 488.5q49 244 46 494t-52 438h219q59 -130 81 -305.5t13 -330.5t-39 -296q-29 -141 -86.5 -297t-153.5 -330.5t-211 -306.5h-219z" />
<glyph unicode="*" horiz-adv-x="978" d="M76 936l297 139l-236 139l117 154l209 -176l47 313h166l-86 -313l282 172l52 -152l-295 -139l235 -139l-116 -154l-209 176l-47 -313h-168l86 313l-283 -172z" />
<glyph unicode="+" horiz-adv-x="1060" d="M39 406l39 186h401l84 401h187l-86 -401h399l-41 -186h-397l-86 -406h-187l86 406h-399z" />
<glyph unicode="," horiz-adv-x="530" d="M41 -190l229 462h236l-307 -462h-158z" />
<glyph unicode="-" horiz-adv-x="737" d="M-2 483l49 236h559l-49 -236h-559z" />
<glyph unicode="." horiz-adv-x="509" d="M96 0l58 274h256l-60 -274h-254z" />
<glyph unicode="/" horiz-adv-x="546" d="M-215 -158l836 1639h194l-835 -1639h-195z" />
<glyph unicode="0" horiz-adv-x="1300" d="M68 608l55 266q68 319 254 476q91 75 184 112t227 37t212 -37t137 -112q119 -155 51 -476l-58 -266q-70 -331 -251 -481q-87 -74 -181.5 -109.5t-230.5 -35.5q-137 0 -216.5 35.5t-135.5 109.5q-120 152 -47 481zM338 291q26 -53 68.5 -73.5t105.5 -20.5q127 0 213 94 q83 88 129 307l61 285q46 218 0 305q-26 52 -68 73t-104 21q-64 0 -114.5 -20.5t-100.5 -73.5q-46 -49 -75 -123t-54 -182l-59 -285q-48 -215 -2 -307z" />
<glyph unicode="1" horiz-adv-x="872" d="M37 0l41 195l164 2q29 0 51 18q16 13 24 43l215 1004l-258 -140l48 219l219 121q45 27 77 27h152q52 0 66 -15.5t4 -66.5l-244 -1149q-4 -16 -4 -22q0 -19 6 -27q12 -14 57 -14h154l-41 -195h-731z" />
<glyph unicode="2" horiz-adv-x="1187" d="M33 61l20 99q46 217 134 352t253 233q52 31 107 62t83 46l29 15q46 27 95 52q43 25 88 55q48 34 78.5 70t40.5 83q20 90 -33.5 123.5t-186.5 30.5q-102 0 -415 -45l41 199q241 61 440 61q188 0 291.5 -41.5t133 -118.5t3.5 -200q-28 -130 -92.5 -209.5t-212.5 -169.5 q-59 -36 -163 -95t-124 -71q-104 -59 -164.5 -114.5t-82.5 -100t-36 -109.5l-8 -41h670l-47 -227h-893q-62 0 -49 61z" />
<glyph unicode="3" horiz-adv-x="1189" d="M-14 39l43 205q303 -47 405 -47q114 0 198 50.5t107 160.5l13 53q23 103 -34.5 148.5t-197.5 45.5h-192l43 205h200q127 0 198.5 50t94.5 155l6 29q20 95 -40.5 142.5t-198.5 45.5q-30 0 -66 -3t-63.5 -5.5t-71 -8t-62.5 -8.5t-66 -10t-56 -8l41 197q241 61 436 61 q75 0 134 -5.5t111 -18t88.5 -33.5t63 -52t38.5 -73t11 -98t-16 -125q-25 -119 -98 -194t-224 -150q105 -33 154.5 -81t52.5 -110.5t-14 -146.5q-49 -232 -189 -330t-419 -98q-92 0 -213 17t-217 40z" />
<glyph unicode="4" horiz-adv-x="1187" d="M0 471l12 59q11 46 41 80l750 842q30 37 100 37h127q65 0 89.5 -23t15.5 -73l-179 -830h183l-47 -213h-181l-73 -350h-273l74 348h-569q-50 0 -66.5 29.5t-3.5 93.5zM246 563h438l137 645z" />
<glyph unicode="5" horiz-adv-x="1212" d="M-27 39l43 203q237 -43 392 -43q53 0 98.5 6.5t91 24t80 46t62 74.5t40.5 107q14 65 -1 112t-45 72.5t-83.5 39.5t-98.5 17.5t-108 3.5l-254 3q-61 0 -49 59q9 43 33.5 123t30.5 102q10 33 28.5 99.5t35 120t32.5 100.5q46 134 213 172q82 16 160 16q24 1 51.5 1t59 -0.5 t46.5 -0.5q65 0 185.5 -8.5t177.5 -9.5q-9 -33 -20 -79t-20.5 -88t-10.5 -46h-525q-76 0 -100 -76l-84 -289q75 3 132.5 3.5t121.5 -3.5t111.5 -12.5t95 -24t79 -38.5t58 -57t37.5 -77t11 -100.5t-15 -126.5q-27 -125 -90 -219t-153.5 -151t-200 -85t-238.5 -28 q-200 0 -410 57z" />
<glyph unicode="6" horiz-adv-x="1220" d="M80 559l63 297q46 212 106 324.5t163 197.5q143 119 417 119q205 0 363 -47l-43 -207q-215 43 -350 43q-159 0 -240 -77t-121 -263l-12 -61q166 35 295 35q157 -3 229 -30t117 -89q72 -106 27 -318q-53 -245 -205 -370q-86 -69 -177.5 -100t-226.5 -31q-133 0 -217 29 t-143 100q-110 130 -45 448zM335 407q-3 -65 7.5 -108.5t35.5 -70.5t59.5 -38.5t82.5 -11.5q236 0 301 305q29 139 -21 199t-173 63q-101 0 -238 -28l-33 -158q-18 -87 -21 -152z" />
<glyph unicode="7" horiz-adv-x="1093" d="M-39 0l885 1260h-680l47 219h922q60 0 51 -56l-27 -127q-2 -6 -5 -17t-5 -17q-9 -22 -23 -41l-837 -1221h-328z" />
<glyph unicode="8" horiz-adv-x="1323" d="M35 422q24 113 95 195.5t224 144.5q-95 79 -123.5 158t-7.5 176q42 200 187 300.5t403 100.5t360.5 -100.5t59.5 -300.5q-19 -96 -83 -175.5t-192 -156.5q88 -44 133.5 -99.5t50 -114.5t-8.5 -128q-45 -211 -208.5 -325.5t-435.5 -114.5t-385 114.5t-69 325.5zM320 351 q-1 -36 10 -70.5t34 -58t65.5 -38t100.5 -14.5q254 0 310 260q6 33 8 67.5t-10 67t-34 57.5t-64.5 40.5t-100.5 15.5q-72 0 -129.5 -22.5t-92.5 -61t-56 -79t-31 -85.5q-9 -43 -10 -79zM483 1079q-21 -101 26 -163t167 -62t192.5 62t94.5 163q13 47 9.5 89t-21 74t-63 50.5 t-116.5 18.5q-135 0 -200.5 -62.5t-88.5 -169.5z" />
<glyph unicode="9" horiz-adv-x="1232" d="M8 31l43 205q197 -41 328 -41q178 0 269 75t132 265l13 59q-180 -33 -295 -33q-155 1 -225.5 28.5t-114.5 90.5q-74 102 -29 317q53 243 205 371q86 68 178 98.5t225 30.5t215.5 -28.5t141.5 -98.5q110 -133 43 -448l-62 -299q-46 -211 -105.5 -324t-162.5 -199 q-145 -118 -418 -118q-100 0 -206 14.5t-175 34.5zM388.5 874q4.5 -50 32 -80.5t69 -44t102.5 -14.5q83 -3 235 29l35 158q21 109 22 182t-23.5 116.5t-63.5 61.5t-99 18q-236 0 -301 -303q-13 -73 -8.5 -123z" />
<glyph unicode=":" horiz-adv-x="534" d="M35 0l51 244h254l-51 -244h-254zM213 846l53 244h254l-51 -244h-256z" />
<glyph unicode=";" horiz-adv-x="534" d="M-45 -190l203 456h260l-305 -456h-158zM219 844l53 248h260l-53 -248h-260z" />
<glyph unicode="&#x3c;" horiz-adv-x="944" d="M77 504q6 25 34 47l591 455h293l-653 -502l440 -504h-293l-399 457q-19 22 -13 47z" />
<glyph unicode="=" horiz-adv-x="1060" d="M31 123l43 203h882l-43 -203h-882zM147 670l43 200h881l-43 -200h-881z" />
<glyph unicode="&#x3e;" horiz-adv-x="944" d="M-10 0l653 504l-440 502h293l399 -455q19 -22 13 -47t-34 -47l-591 -457h-293z" />
<glyph unicode="?" horiz-adv-x="1017" d="M172 1241l43 199q69 26 174.5 41.5t202.5 15.5q277 0 373.5 -87.5t56.5 -272.5q-27 -132 -90 -201q-16 -20 -74 -70q-37 -30 -106 -82q-12 -9 -35.5 -26.5t-36.5 -26.5q-42 -34 -74 -74q-69 -82 -110 -225h-193q5 83 22 151t35.5 110t52 84t54 60.5t59.5 51.5 q15 12 40 30.5t34 26.5q45 32 67.5 51t45.5 53.5t32 77.5q20 90 -33 123.5t-188 30.5q-133 0 -352 -41zM188 0l56 264h256l-56 -264h-256z" />
<glyph unicode="@" horiz-adv-x="1576" d="M49 466.5q7 68.5 27 162.5q10 47 43 147q129 365 387 549q247 176 588 176q328 0 456 -149q123 -143 66 -402q-16 -82 -68 -217q-42 -110 -101 -191.5t-126.5 -128t-136.5 -68.5t-140 -21h-12q-39 0 -76.5 16t-48.5 47q0 4 -10 27q-139 -88 -279 -88q-132 0 -176 75 q-38 62 -14 172q8 41 37 115l37 96q52 129 94.5 192.5t114.5 108.5q83 56 207 56q117 0 192 -84l29 71h200l-239 -606l-13 -30q-7 -26 11 -31.5t41 2.5q82 19 152 86.5t126 206.5q44 107 62 194q43 208 -43 314q-96 114 -369 114q-141 0 -254 -36.5t-217 -112.5 q-228 -165 -334 -469q-29 -82 -39 -131q-25 -113 -22 -210.5t35 -152.5q95 -154 368 -162h33q178 0 422 58l-41 -119q-190 -61 -418 -61q-202 0 -317.5 53t-178.5 153q-38 57 -50 133.5t-5 145zM649 600q-26 -123 109 -123q50 0 123 31l170 428q-50 47 -111 47q-19 0 -35 -4 q-69 -9 -111 -56t-85 -155l-25 -63q-26 -66 -35 -105z" />
<glyph unicode="A" horiz-adv-x="1198" d="M-117 0l656 1380q28 58 63.5 81.5t97.5 23.5h203q60 0 87 -24t30 -81l67 -1380h-284l-17 381h-438l-182 -381h-283zM438 594h348l-22 727z" />
<glyph unicode="B" horiz-adv-x="1232" d="M39 246l250 1179q10 49 63 52q96 6 229 6q109 0 244 -4q229 -7 322 -101q65 -66 65 -177q0 -47 -12 -103q-24 -117 -98 -191q-67 -67 -207 -133q151 -50 199 -135q30 -52 30 -127q0 -48 -12 -106q-85 -404 -610 -422q-62 -1 -113 -1q-84 0 -135 3q-150 12 -197 68 q-29 35 -29 100q0 40 11 92zM308 214q8 -14 61 -17q30 -3 83 -3q32 0 72 1q270 9 320 241q8 37 8 68q0 170 -231 170h-226l-84 -395q-7 -30 -7 -47q0 -12 4 -18zM432 850h219q233 0 279 217q8 34 8 63q0 58 -31 94q-46 56 -159 62q-39 2 -76 2q-52 0 -101 -4q-29 0 -41 -10 t-16 -41z" />
<glyph unicode="C" horiz-adv-x="1095" d="M59 608l56 266q70 327 264 478q187 144 459 147h29q183 0 329 -35l-45 -213q-169 18 -284 18q-26 0 -50 -1q-173 -6 -280 -105q-111 -99 -152 -295l-55 -266q-18 -82 -18 -145q0 -90 36 -144q64 -96 236 -102q22 0 45 -1q143 0 303 17l-43 -207q-148 -37 -323 -37 q-25 0 -50 1q-152 1 -243.5 36.5t-153.5 106.5q-84 100 -84 274q0 93 24 207z" />
<glyph unicode="D" horiz-adv-x="1306" d="M-12 63l291 1362q9 52 61 51h424q297 0 412 -126q94 -106 94 -288q0 -90 -23 -200l-53 -250q-74 -342 -268 -475q-115 -80 -215 -108q-110 -29 -269 -29h-405q-51 0 -51 44q0 9 2 19zM301 242v-5q0 -21 23 -24q5 -1 17.5 -2t18.5 -2q131 0 177 4q100 9 178 53 q149 85 203 340l57 266q17 82 17 146q0 127 -66 186q-55 52 -158 64q-66 4 -149 4h-58q-25 -2 -36 -11t-15 -32l-203 -957q-6 -18 -6 -30z" />
<glyph unicode="E" horiz-adv-x="1087" d="M18 250l209 981q26 128 103 190q61 49 192 64q135 10 274 10h46q207 -3 327 -18l-47 -215h-536q-49 0 -66 -13.5t-26 -58.5l-72 -336h588l-43 -205h-588l-76 -358q-9 -45 2 -58.5t60 -13.5h536l-45 -215q-107 -13 -334 -16q-40 -1 -77 -1q-136 0 -240 9q-121 11 -166 63 q-31 38 -31 106q0 38 10 85z" />
<glyph unicode="F" horiz-adv-x="1040" d="M-23 0l263 1231q26 132 102 192q64 48 193 60q100 11 248 11q34 0 71 -1q215 -3 324 -14l-45 -215l-549 -2q-47 0 -62 -15q-2 -2 -12 -22q-5 -23 -8 -35l-70 -330h588l-43 -205h-588l-139 -655h-273z" />
<glyph unicode="G" horiz-adv-x="1212" d="M80 608l55 266q68 318 264 474q93 73 200 110.5t257 40.5h30q188 0 335 -35l-45 -213q-172 18 -297 18q-28 0 -54 -1q-166 -3 -276 -101q-99 -91 -141 -288l-60 -277q-16 -79 -16 -141q0 -93 37 -148q33 -51 89.5 -75t143.5 -27q76 0 154 2l112 530h262l-149 -704 q-99 -24 -226 -41q-108 -14 -194 -14h-29q-149 1 -241.5 36.5t-153.5 106.5q-81 99 -81 271q0 94 24 210z" />
<glyph unicode="H" horiz-adv-x="1284" d="M-39 0l313 1479h275l-129 -602h510l129 602h272l-313 -1479h-275l140 655h-510l-140 -655h-272z" />
<glyph unicode="I" horiz-adv-x="499" d="M-35 0l314 1477h274l-315 -1477h-273z" />
<glyph unicode="J" horiz-adv-x="589" d="M-184 -338l41 195q51 -5 85 -5q14 0 25 1q97 9 113 79l328 1547h274l-336 -1581q-28 -127 -98 -182.5t-201 -67.5q-37 -3 -73 -3q-82 0 -158 17z" />
<glyph unicode="K" horiz-adv-x="1157" d="M-20 0l315 1481h272l-147 -695l608 693h299l-625 -703l332 -776h-309l-311 752l-4 -19l-156 -733h-274z" />
<glyph unicode="L" horiz-adv-x="983" d="M47 250l260 1227h271l-256 -1203q-6 -36 4 -51.5t49 -15.5h493l-43 -203q-163 -20 -330 -20q-130 0 -262 12q-120 11 -165 63q-31 35 -31 103q0 39 10 88z" />
<glyph unicode="M" horiz-adv-x="1636" d="M-18 0l294 1389q21 94 142 94h227q85 0 88 -103l35 -993l457 993q46 103 131 103h227q61 1 86 -23q17 -16 17 -44q0 -12 -3 -27l-294 -1389h-261l269 1260l-463 -986q-43 -94 -164 -94h-94q-117 0 -123 94l-47 973l-264 -1247h-260z" />
<glyph unicode="N" horiz-adv-x="1273" d="M-41 0l295 1389q21 94 143 94h262q31 0 39 -68q8 -39 127 -1167l260 1229h263l-295 -1387q-21 -96 -146 -96h-237q-17 0 -29.5 11t-15.5 34q-11 76 -144 1188l-262 -1227h-260z" />
<glyph unicode="O" horiz-adv-x="1316" d="M53 606l58 268q65 321 262 474q95 76 196 113.5t246 37.5t229 -37t148 -114q84 -100 85 -272q0 -91 -24 -202l-57 -268q-70 -330 -262 -479q-94 -74 -194.5 -109.5t-247.5 -35.5q-146 0 -232 35.5t-149 109.5q-83 98 -83 270q0 93 25 209zM326 600q-19 -92 -20 -160 q0 -89 34 -137q64 -96 199 -96q137 0 241 96q95 85 140 297l59 279q21 91 21 160q0 86 -33 137q-64 96 -201 96q-138 0 -242 -96q-54 -49 -85.5 -121t-53.5 -176z" />
<glyph unicode="P" horiz-adv-x="1206" d="M-18 0l303 1425q12 52 63 52h389q289 0 412 -97q101 -84 102 -238q0 -60 -16 -130q-49 -242 -238 -365q-101 -67 -231 -88q-77 -14 -236 -14h-165l-115 -545h-268zM412 750l127 -2h24q130 0 207 30q150 58 184 217l7 31q7 33 7 62q0 103 -87 149q-69 37 -219 37l-109 -4 q-22 -4 -30 -14t-11 -29z" />
<glyph unicode="Q" horiz-adv-x="1325" d="M125 616l55 263q69 319 262 469q95 76 195.5 113.5t245.5 37.5t230.5 -37.5t148.5 -113.5q85 -99 85 -269q0 -90 -24 -200l-55 -263q-70 -326 -260 -477q-68 -52 -141 -84t-181 -51l-16 -74q-6 -42 10 -61q14 -19 63 -25q23 -1 51 -1q57 0 136 5l-39 -178 q-64 -12 -151 -16q-28 -1 -55 -1q-52 0 -95 5q-115 9 -160 63q-25 28 -30 66q-1 9 -1 22q0 37 11 101l20 96q-93 21 -150 52.5t-98 80.5q-82 97 -82 267q0 94 25 210zM397 608q-19 -88 -19 -155q0 -89 34 -140q62 -94 200 -94t240 94q53 49 85 120.5t54 174.5l60 277 q19 89 19 155q0 89 -34 138q-64 96 -200 96q-135 0 -242 -96q-52 -48 -84.5 -120t-54.5 -173z" />
<glyph unicode="R" horiz-adv-x="1202" d="M-23 0l101 469l133 629l70 327q12 52 63 52h375q289 0 411 -93q106 -83 106 -234q0 -52 -13 -112l-4 -18q-46 -224 -234 -340q-58 -35 -141 -68l200 -612h-303l-168 582h-206l-123 -582h-267zM410 780h194q77 0 162 29q150 53 184 219q7 32 7 60q0 40 -14 76 q-24 60 -81 89q-64 31 -220 31q-37 0 -79 -2q-30 -2 -40.5 -10.5t-16.5 -40.5z" />
<glyph unicode="S" horiz-adv-x="1095" d="M-43 33l41 198q200 -26 301 -30q55 -4 99 -4q39 0 70 3q66 7 118 36q44 23 73 71t31 96q0 50 -21 83t-77 73q-102 77 -234 160q-77 50 -119.5 89.5t-66.5 83.5q-22 42 -22 88v6q2 49 14 118q45 208 184 301.5t418 93.5q184 0 352 -41q-5 -20 -15 -69.5t-13 -63.5l-17 -76 q-170 31 -340 37h-27q-65 0 -110 -8q-55 -10 -94 -43q-48 -41 -60 -111q-2 -13 -2 -24q0 -30 13 -52q18 -30 57 -57q4 -3 22.5 -15t28.5 -20q1 -1 132 -81t177 -115q66 -50 96.5 -104t30.5 -114t-16 -134q-44 -211 -193 -314t-423 -110q-22 -1 -44 -1q-201 0 -364 50z" />
<glyph unicode="T" horiz-adv-x="1058" d="M123 1260l47 221h1055l-47 -221h-390l-268 -1260h-274l268 1260h-391z" />
<glyph unicode="U" horiz-adv-x="1292" d="M47 347q2 74 21 165l204 969h273l-203 -955q-15 -75 -15 -131q1 -71 25 -113q44 -74 203 -75q158 0 235.5 74.5t112.5 244.5l203 955h274l-206 -969q-26 -126 -73.5 -219.5t-107 -152t-139 -94.5t-162.5 -50t-186 -14q-72 0 -130.5 6.5t-113 23t-93.5 43.5t-68.5 68 t-42.5 95q-11 47 -11 110v19z" />
<glyph unicode="V" horiz-adv-x="1126" d="M147 1479h291l33 -1274l576 1274h290l-661 -1401q-26 -54 -56.5 -69t-93.5 -15h-198q-63 0 -87.5 15t-25.5 69z" />
<glyph unicode="W" horiz-adv-x="1736" d="M45 88l84 1393h283l-121 -1291l414 1022q21 48 54.5 68t100.5 20h146q68 0 93 -20t25 -68l-18 -1005l446 1274h283l-528 -1393q-21 -53 -48.5 -73.5t-84.5 -20.5h-195q-55 0 -74.5 20.5t-19.5 73.5l2 989l-420 -989q-24 -54 -51.5 -74t-81.5 -20h-195q-57 0 -77 20 q-17 18 -17 60v14z" />
<glyph unicode="X" horiz-adv-x="1171" d="M-158 0l564 770l-205 709h311l127 -549l360 549h312l-506 -709l235 -770h-315l-158 588l-409 -588h-316z" />
<glyph unicode="Y" horiz-adv-x="1054" d="M129 1479h313l125 -588l377 588h313l-622 -899l-125 -580h-262l125 588z" />
<glyph unicode="Z" horiz-adv-x="1140" d="M-51 61l26 132q7 29 25 53l883 1001h-617l49 232h877q53 0 53 -42q0 -8 -2 -18l-29 -141q-7 -31 -24 -53l-858 -983h667l-51 -242h-948q-31 0 -44 16q-9 11 -9 28q0 8 2 17z" />
<glyph unicode="[" horiz-adv-x="638" d="M-90 -190l358 1683q13 59 80 59h447l-39 -188h-197q-30 -3 -51 -18q-21 -18 -27 -46l-276 -1300q-6 -28 8 -45q12 -15 43 -18h197l-41 -189h-447q-68 0 -55 62z" />
<glyph unicode="\" horiz-adv-x="544" d="M0 1501h193l358 -1501h-195z" />
<glyph unicode="]" horiz-adv-x="638" d="M-133 -252l41 189h194q31 3 52 18q22 16 28 45l277 1300q6 27 -10 46q-12 15 -43 18h-195l39 188h448q32 0 47 -15.5t9 -43.5l-359 -1683q-13 -62 -82 -62h-446z" />
<glyph unicode="^" horiz-adv-x="1040" d="M-45 518l76 352l536 480q34 29 69.5 29t57.5 -29l334 -480l-76 -352l-381 547z" />
<glyph unicode="_" horiz-adv-x="1050" d="M-8 -348l33 160h1075l-35 -160h-1073z" />
<glyph unicode="`" horiz-adv-x="589" d="M41 1528h254l180 -295h-201z" />
<glyph unicode="a" horiz-adv-x="1009" d="M23 299q0 5 3.5 21.5t4.5 19.5q40 170 163 240q120 68 363 67h14h138l16 86q7 32 7 58v7q-1 29 -10.5 48t-25.5 33t-37 21t-46 11t-52.5 4h-56.5q-75 0 -275 -20l35 166q84 21 188 33q90 10 162 10h23q354 -3 354 -264q0 -49 -12 -107l-156 -731h-245l22 109 q-108 -73 -181 -99t-157 -26q-150 0 -209 88q-40 59 -40 140q0 40 10 85zM268 326q-5 -22 -5 -42q0 -50 32 -80q41 -40 114 -40h11q36 1 71 8.5t57 15.5t66 25l68 317q-52 3 -96 3q-140 0 -197 -29q-93 -44 -117 -164z" />
<glyph unicode="b" horiz-adv-x="1140" d="M25 0l311 1468h264l-90 -424q144 48 227 56q37 4 71 4q168 0 249 -88q57 -60 66 -155q2 -21 2 -44q0 -84 -25 -203q0 -21 -29 -137q-30 -142 -79 -232.5t-124 -154.5q-119 -104 -299 -104q-83 0 -142.5 26t-123.5 90l-20 -102h-258zM336 219q42 -27 78 -38t86 -11 q119 0 186 59q52 45 78 102t51 175l14 69q23 90 23 157q0 43 -10 76q-24 86 -127 107q-27 6 -58 6q-80 0 -182 -40z" />
<glyph unicode="c" horiz-adv-x="921" d="M47 502l25 121q46 217 202 347t381 136h23q133 0 289 -31l-41 -184q-151 16 -244 16q-31 0 -55 -2q-61 -3 -119 -33.5t-106.5 -97t-67.5 -156.5l-31 -137q-11 -50 -10 -92q-1 -73 31 -121q50 -76 172 -84q15 -1 31 -1q112 0 255 32l-39 -184q-181 -45 -312 -45h-11 q-393 2 -393 343q0 78 20 173z" />
<glyph unicode="d" horiz-adv-x="1130" d="M29 424q4 16 34 166q36 159 92.5 252.5t141.5 158.5q129 101 340 101q10 0 20 1q86 0 191 -24l84 389h264l-313 -1466h-256l20 98q-103 -67 -171 -90.5t-152 -23.5q-313 0 -313 284q0 69 18 154zM284 324q2 -56 33 -99q40 -55 150 -55q98 0 199 49l145 684 q-85 19 -153 19q-41 0 -76 -7q-114 -24 -169.5 -103t-88.5 -237l-17 -79q-23 -106 -23 -163v-9z" />
<glyph unicode="e" horiz-adv-x="1093" d="M51 510l19 88q29 131 87 230t138 159t174 89.5t201 29.5q124 0 206.5 -45t118.5 -113q45 -86 47 -165q0 -5 1 -10q0 -80 -37 -253l-9 -35h-698q-8 -51 -8 -93q0 -30 4 -56q9 -62 54.5 -100t131.5 -48q32 -3 69 -3q142 0 355 46l-39 -180q-198 -65 -434 -65 q-402 0 -402 348q0 79 21 176zM334 633h457q12 59 12 106q0 185 -178 185q-227 0 -291 -291z" />
<glyph unicode="f" horiz-adv-x="729" d="M41 0l197 924h-183l35 166h182l21 94q20 98 54 162t85.5 99t111.5 48.5t146 13.5q88 0 203 -18l-33 -160q-49 3 -88 3q-125 0 -158 -27q-22 -17 -34 -50q-9 -21 -15 -55l-24 -110l266 -3l-35 -163h-266l-197 -924h-268z" />
<glyph unicode="g" horiz-adv-x="1120" d="M-10 -354l39 184q131 -22 274 -31q21 -1 41 -1q138 0 213 42q48 26 71.5 59.5t35.5 92.5l26 123q-153 -75 -274 -78h-13q-182 0 -258 82q-58 62 -69 148q-3 21 -3 49q0 82 25 219q1 4 8.5 39.5t8.5 39.5q30 140 78 231t124 156q57 51 137 79q69 24 143 24h21 q82 -3 139.5 -29.5t127.5 -93.5l22 109h254l-235 -1115q-42 -191 -177.5 -278.5t-365.5 -89.5q-236 0 -393 39zM348 311q23 -79 123 -92q15 -2 31 -2q40 0 90 11q71 14 133 44l119 570q-50 39 -150 55q-24 3 -45 3q-92 0 -155 -54q-48 -37 -73.5 -95.5t-49.5 -166.5l-11 -52 q-21 -86 -21 -148q0 -42 9 -73z" />
<glyph unicode="h" horiz-adv-x="1138" d="M12 0l314 1470h264l-107 -501q109 71 194 103t177 32q70 0 122.5 -18.5t82 -50.5t45.5 -76q15 -40 16 -87v-8q-2 -52 -12 -108l-160 -756h-264l143 680q9 45 12.5 68t2 53.5t-14.5 48.5q-25 36 -59 46q-23 7 -57 7q-16 0 -35 -2q-81 -5 -223 -70l-177 -831h-264z" />
<glyph unicode="i" horiz-adv-x="491" d="M-39 0l232 1087h260l-232 -1087h-260zM229 1264l43 204h260l-43 -204h-260z" />
<glyph unicode="j" horiz-adv-x="595" d="M-178 -377l39 184q57 -3 85 -3q14 0 21 1q41 3 70 21q23 20 29 51l258 1213h280l-264 -1246q-14 -72 -37 -110.5t-61 -65.5q-60 -47 -181 -59q-40 -3 -77 -3q-89 0 -162 17zM360 1264l46 204h280l-43 -204h-283z" />
<glyph unicode="k" horiz-adv-x="1075" d="M-33 0l314 1470h264l-189 -886l484 501h297l-516 -501l305 -584h-312l-266 545l-117 -545h-264z" />
<glyph unicode="l" horiz-adv-x="514" d="M-14 0l313 1468h260l-313 -1468h-260z" />
<glyph unicode="m" horiz-adv-x="1660" d="M16 0l232 1087h246l-23 -104q111 70 191.5 96.5t168.5 26.5q87 0 128 -28t73 -101q103 67 193.5 98t187.5 31q56 0 100.5 -17.5t80.5 -58.5q34 -40 42 -108q2 -20 3 -43q0 -55 -13 -125l-160 -754h-262l144 674q10 50 13.5 70.5t3.5 52t-9 49.5q-20 36 -49 47 q-20 8 -50 8q-14 0 -30 -2q-84 -9 -187 -74l-176 -825h-250l144 674q9 45 13 69.5t3 54.5t-10 48q-18 34 -48 46q-21 8 -51 9q-13 0 -28 -2q-94 -10 -184 -61l-179 -838h-258z" />
<glyph unicode="n" horiz-adv-x="1138" d="M12 0l232 1087h254l-23 -104q118 72 198.5 96.5t180.5 24.5q87 0 146.5 -28t85.5 -76t33 -112q2 -18 2 -36q0 -47 -13 -98l-160 -754h-264l143 676q9 44 12.5 68t2 55t-14.5 49q-25 36 -59 46q-26 8 -67 8q-12 0 -25 -1q-118 -10 -219 -61l-181 -840h-264z" />
<glyph unicode="o" horiz-adv-x="1120" d="M80 512q1 4 18 82q107 510 588 510q240 0 334 -124q60 -79 59 -212q0 -78 -20 -174q-13 -60 -17 -82q-58 -272 -204.5 -399t-388.5 -127q-243 0 -335 127q-57 78 -56 211q0 83 22 188zM322 418q-2 -18 -2 -37q0 -23 2 -47q6 -42 23.5 -70.5t55 -46.5t93.5 -18 q70 0 122 25.5t84 73.5t50.5 97.5t31.5 114.5l19 82q13 62 14 110v7q0 45 -12 87q-13 46 -54 70.5t-108 24.5t-118.5 -25t-84 -70.5t-51.5 -93.5t-33 -110l-16 -82q-12 -51 -16 -92z" />
<glyph unicode="p" horiz-adv-x="1124" d="M-39 -369l309 1456h254l-20 -100q172 111 338 117h18q154 0 227 -98q52 -73 52 -200q0 -84 -23 -192q-1 -4 -12 -58t-12 -58q-40 -173 -90.5 -263t-133.5 -153q-114 -82 -294 -82h-13q-122 3 -242 78l-94 -447h-264zM352 236q49 -30 114 -45q46 -11 87 -11q16 0 31 2 q104 13 157 87.5t86 226.5l19 88q16 71 22 117q2 22 2 43q0 22 -3 42q-6 40 -27 66q-39 48 -124 48q-22 0 -46 -3q-41 -4 -97 -21.5t-98 -37.5z" />
<glyph unicode="q" horiz-adv-x="1134" d="M100 230q-3 20 -3 46q0 83 26 222q0 4 11 58t11 58q61 274 193 390q115 100 282 100h19q149 -5 276 -123l23 106h254l-309 -1456h-265l97 447q-156 -75 -275 -78h-13q-183 0 -259 82q-58 62 -68 148zM364 332q0 -65 31 -102q31 -39 99 -48q14 -2 30 -2q40 0 92 11 q71 15 132 45l129 606q-61 45 -152 55q-24 3 -46 3q-91 0 -155 -52q-47 -39 -73 -99t-48 -165l-18 -88q-21 -97 -21 -164z" />
<glyph unicode="r" horiz-adv-x="741" d="M33 0l231 1087h254l-26 -118q185 136 368 136q13 0 25 -1l-51 -217q-21 1 -42 1q-76 0 -154 -14q-98 -18 -171 -57l-174 -817h-260z" />
<glyph unicode="s" horiz-adv-x="925" d="M-23 27l39 182q181 -29 308 -29q225 0 225 123q0 39 -39 70q-49 41 -156.5 100.5t-154.5 95.5q-82 63 -82 158q0 26 8 72q20 92 67 155t116.5 95t143.5 44.5t169 12.5q154 0 303 -35l-39 -186q-212 35 -334 35q-108 0 -141 -60q-13 -20 -13 -43q0 -14 6.5 -26t12.5 -18 t20 -19q45 -35 68 -47q26 -15 77.5 -43.5t91 -52t75.5 -48.5q92 -70 92 -174q0 -15 -9 -67q-17 -80 -54 -140t-86 -97t-115.5 -59.5t-134 -31t-148.5 -8.5q-183 0 -316 41z" />
<glyph unicode="t" horiz-adv-x="765" d="M92 930l35 160h168l49 229l270 45l-57 -274h240l-35 -160l-240 -2l-131 -619q-2 -11 -6.5 -30t-5.5 -27q-2 -10 -2 -19q0 -24 12 -43q13 -22 55 -26q28 -2 61 -2q49 0 109 4l-34 -162q-87 -19 -184 -19q-18 0 -36 1q-166 0 -220 60q-34 37 -34 110q0 45 13 104l143 668z " />
<glyph unicode="u" horiz-adv-x="1150" d="M61 192q-2 17 -2 35q0 46 13 97l161 766h265l-150 -701q-8 -40 -8 -73q0 -46 16 -76q34 -62 144 -62q109 0 225 70l180 842h264l-231 -1088h-258l22 98q-103 -65 -184 -90.5t-164 -25.5h-26q-87 0 -147 26.5t-86.5 73t-33.5 108.5z" />
<glyph unicode="v" horiz-adv-x="1003" d="M78 1090h280l39 -953l443 953h280l-510 -992q-31 -60 -35 -67q-12 -21 -20 -28.5t-27 -8.5q-20 -2 -90 -2h-145q-70 0 -88 2q-17 2 -23 8t-8 18q-3 22 -6 78z" />
<glyph unicode="w" horiz-adv-x="1595" d="M141 1090h271l-15 -916l332 823q26 68 43 78q15 15 86 15h131q35 0 53 -3q22 -3 29 -10q11 -7 11 -56q0 -11 -1 -24l-12 -827l365 920h266l-420 -1000q-2 -4 -8.5 -22t-11.5 -27q-15 -29 -25 -37q-7 -7 -29 -10q-14 -2 -57 -2h-197q-37 0 -49 2q-15 3 -22 12q-4 8 -4 23 q-1 6 -1 14t0.5 20.5t0.5 22.5l4 793l-330 -793q-8 -21 -19 -47q-8 -22 -18 -32t-31 -13q-14 -2 -45 -2h-198h-56q-19 1 -25.5 9.5t-8.5 29.5v59z" />
<glyph unicode="x" horiz-adv-x="997" d="M-98 0l417 573l-153 517h278l105 -392l270 392h279l-373 -517l174 -573h-278l-129 432l-312 -432h-278z" />
<glyph unicode="y" horiz-adv-x="1071" d="M2 -383l41 190q52 -6 119 -6q9 1 23 3.5t25 4t21 3.5q44 5 82 43q38 42 38 107q0 17 -3 36l-192 1092h309l90 -805l391 805h297q-518 -948 -696 -1260q-59 -106 -139 -162q-74 -50 -181 -59q-31 -3 -67 -3q-69 0 -158 11z" />
<glyph unicode="z" horiz-adv-x="911" d="M-33 66l17 79q10 45 39 74l602 670h-428l41 201h694q60 0 60 -49q0 -12 -3 -27l-10 -56q-9 -34 -31 -59l-649 -694h520l-43 -205h-747q-64 0 -64 46q0 9 2 20z" />
<glyph unicode="{" horiz-adv-x="593" d="M-104 545l41 194q41 3 73 9t70.5 20t64.5 43t35 70l94 442q10 49 29 86.5t43 61.5t54.5 41.5t64.5 25t71 12.5t75 4t77 0h41l-39 -182q-39 -2 -62 -5.5t-53.5 -14.5t-49.5 -35t-27 -62l-70 -331l-2 -11q-18 -75 -46 -119t-71 -71q-41 -24 -98 -39q-22 -7 -73.5 -21 t-78.5 -22q54 -16 89 -29.5t69 -33t52.5 -42t30.5 -54t11 -72t-12 -93.5l-61 -288q-8 -38 0.5 -62t34.5 -35t47.5 -14.5t58.5 -5.5l-39 -182h-39q-30 0 -60.5 -0.5t-59 2t-54.5 6t-49 11.5t-42 19t-32 29t-20.5 40.5t-7.5 54t8 69.5l94 442q9 41 -5 70t-46.5 43t-62 20 t-68.5 9z" />
<glyph unicode="|" horiz-adv-x="346" d="M-344 -506l866 2038h180l-866 -2038h-180z" />
<glyph unicode="}" horiz-adv-x="591" d="M-115 -270q22 102 39 182q58 0 101 14q76 23 92 103l69 331q14 65 33 103.5t63 70.5t103.5 54.5t169.5 52.5q-121 37 -177 77.5t-70.5 101t7.5 149.5l62 286q8 40 -1.5 65t-45.5 38q-25 9 -94 14q7 33 14.5 70.5t13 62.5t10.5 49q62 2 122.5 -1.5t89.5 -8.5l30 -4 q78 -12 106.5 -65t8.5 -152l-94 -442q-15 -65 22 -95q15 -15 72 -32q33 -11 88 -15l-41 -194q-25 -2 -49 -5.5t-35 -6.5l-12 -3q-61 -17 -84 -32q-52 -32 -64 -95l-94 -442q-22 -100 -72 -152.5t-133 -64.5q-12 -2 -34.5 -5t-88 -7t-127.5 -2z" />
<glyph unicode="~" horiz-adv-x="909" d="M86 285l41 188q120 47 172 53q63 5 122.5 -10.5t137.5 -50.5q56 -26 117 -29q87 -7 194 47l-39 -182q-85 -38 -176 -41q-67 -3 -125.5 12t-136.5 50q-48 20 -94 22q-77 7 -213 -59z" />
<glyph unicode="&#xa1;" horiz-adv-x="849" d="M131 0l297 1087h172l-164 -1087h-305zM399 1214l56 265h288l-55 -265h-289z" />
<glyph unicode="&#xa2;" horiz-adv-x="983" d="M86 207q-36 111 2 295l25 119q46 216 200.5 344.5t378.5 134.5q52 0 160 -6l92 157h98l-96 -166q104 -15 109 -16l-39 -182q-61 6 -176 12l-404 -690q67 -18 99 -21q128 -8 339 29l-38 -182q-207 -45 -375 -45q-59 0 -144 14l-77 -137h-103l96 166q-111 63 -147 174z M335.5 383.5q3.5 -52.5 26.5 -129.5l379 649q-55 -2 -75 -2q-99 -7 -182.5 -79.5t-110.5 -205.5l-31 -135q-10 -45 -6.5 -97.5z" />
<glyph unicode="&#xa3;" horiz-adv-x="1124" d="M-14 63l16 68q6 35 12 48t23 26q55 46 98 99.5t51 96.5l54 254h-146l43 205h148l43 205q32 154 99.5 247.5t188.5 140t310 46.5q166 0 317 -37l-45 -211q-154 17 -324 17q-120 0 -183.5 -42t-88.5 -159l-45 -207h401l-43 -205h-401l-49 -233q-9 -40 -38 -81.5t-97 -113.5 h655l-47 -227h-903q-60 0 -49 63z" />
<glyph unicode="&#xa4;" horiz-adv-x="935" d="M43 494l27 118q44 215 199.5 343.5t381.5 134.5q134 3 310 -29l-39 -184q-171 22 -299 16q-62 -4 -119.5 -34.5t-106 -96t-67.5 -154.5l-29 -135q-29 -134 21.5 -208.5t171.5 -82.5q106 -7 286 29l-39 -180q-186 -47 -323 -45q-483 3 -375 508zM334 1528h170l106 -191 l187 191h172l-260 -244h-222z" />
<glyph unicode="&#xa5;" horiz-adv-x="915" d="M-72 207l35 160h297l51 243h-297l35 160h207l-193 709h314l121 -611l381 611h313l-492 -709h213l-34 -160h-289l-23 -28l-45 -215h305l-34 -160h-304l-45 -207h-262l43 207h-297z" />
<glyph unicode="&#xa6;" horiz-adv-x="409" d="M-74 -381l164 768h172l-164 -768h-172zM160 713l162 766h172l-164 -766h-170z" />
<glyph unicode="&#xa7;" horiz-adv-x="1095" d="M18 16l35 166q168 -28 258 -32q92 -3 137.5 0.5t86.5 17.5q37 14 59 50.5t20 70.5q-3 33 -20 49.5t-68 40.5q-6 3 -78.5 34.5t-107.5 51.5q-121 63 -163 123.5t-23 146.5q20 92 65.5 145.5t155.5 98.5q-69 41 -99 78t-31.5 79.5t11.5 100.5q20 90 76 146t164.5 85 t279.5 29q150 0 316 -27q-2 -8 -10 -44.5t-13 -57.5l-12 -65q-193 30 -285 30q-137 4 -184 -28q-44 -32 -51 -78q-4 -34 14 -52.5t51 -31.5q12 -3 47 -19q25 -10 81 -29.5t97.5 -36.5t81.5 -40q86 -50 106 -109.5t3 -142.5q-15 -78 -68.5 -134t-169.5 -110 q77 -45 111.5 -87.5t33.5 -82t-10 -88.5q-30 -137 -157 -206.5t-373 -75.5q-206 -3 -367 34zM406 748q-3 -22 3.5 -41t16.5 -31t31.5 -24.5t33 -18t35.5 -15.5q85 0 142 25q38 15 63.5 50.5t24.5 72.5q-1 35 -23.5 58.5t-77.5 54.5q-134 3 -194 -37q-25 -17 -39 -44t-16 -50 z" />
<glyph unicode="&#xa8;" horiz-adv-x="1122" d="M248 1278l39 182h202l-38 -182h-203zM676 1278l39 182h205l-39 -182h-205z" />
<glyph unicode="&#xa9;" horiz-adv-x="1665" d="M127 737q0 154 59 294.5t158 242.5t236.5 162.5t287.5 60.5t287.5 -60.5t238 -162.5t160.5 -242.5t60 -294.5t-60 -293.5t-160.5 -240t-238 -160t-287.5 -59.5q-201 0 -371.5 100.5t-270 274t-99.5 378.5zM217 737q0 -136 51 -259t137.5 -212t206.5 -141.5t252 -52.5 q175 0 324 88.5t236 242t87 334.5t-86.5 335.5t-235.5 245.5t-325 91t-325 -91t-235.5 -245.5t-86.5 -335.5zM524 672v159q0 190 97 287q44 44 101.5 67.5t143.5 24.5q102 3 213 -20v-133q-95 13 -200 10q-100 -3 -148 -59q-47 -55 -47 -174v-166q0 -119 47 -174 q49 -57 148 -60q105 -3 200 10v-129q-104 -25 -213 -22q-87 1 -145 23t-103 65q-94 91 -94 291z" />
<glyph unicode="&#xaa;" horiz-adv-x="696" d="M51 975l6 26q25 108 101 152.5t229 42.5h78l14 64q3 26 4 45t-9 31.5t-20 20t-29 11t-35.5 4.5t-39.5 0q-27 0 -168 -12l23 108q113 29 227 29q256 -3 205 -237l-100 -474h-154l14 66q-62 -44 -106 -60t-94 -16q-92 1 -128 56.5t-18 142.5zM205 993q-9 -49 15.5 -74.5 t72.5 -23.5q44 2 115 31l41 190q-127 6 -173 -16q-33 -17 -47.5 -42t-23.5 -65z" />
<glyph unicode="&#xab;" horiz-adv-x="1433" d="M119 522q-35 50 20 99l424 393h279l-482 -445l293 -444h-278zM743 522q-35 50 21 99l426 393h276l-479 -445l293 -444h-281z" />
<glyph unicode="&#xac;" horiz-adv-x="2154" d="M51 346l168 789l1419 -400z" />
<glyph unicode="&#xad;" horiz-adv-x="737" d="M-2 483l49 236h559l-49 -236h-559z" />
<glyph unicode="&#xae;" horiz-adv-x="1665" d="M127 737q0 154 59 294.5t158 242.5t236.5 162.5t287.5 60.5t287.5 -60.5t238 -162.5t160.5 -242.5t60 -294.5t-60 -293.5t-160.5 -240t-238 -160t-287.5 -59.5q-201 0 -371.5 100.5t-270 274t-99.5 378.5zM217 737q0 -136 51 -259t137.5 -212t206.5 -141.5t252 -52.5 q175 0 324 88.5t236 242t87 334.5t-86.5 335.5t-235.5 245.5t-325 91t-325 -91t-235.5 -245.5t-86.5 -335.5zM578 303v856q0 39 36 39h213q96 0 152.5 -13.5t99.5 -43.5q97 -68 97 -209v-12q0 -136 -93 -207q-35 -24 -73 -39l192 -371h-180l-170 350h-29h-86v-350h-159z M737 778q17 0 41 -0.5t40 -0.5t30 1q50 0 90 15q39 18 59.5 53.5t20.5 77.5q0 93 -74 129q-13 7 -30 11t-40 5.5t-35.5 2t-40.5 0t-32 -0.5l-8 -1q-9 0 -13 -5q-6 -6 -6 -23z" />
<glyph unicode="&#xaf;" horiz-adv-x="638" d="M-8 1233l49 229h639l-49 -229h-639z" />
<glyph unicode="&#xb0;" horiz-adv-x="835" d="M106 1112q29 138 144 233t252 95q135 0 209 -95t45 -233t-144 -233t-252 -95q-135 0 -209 95t-45 233zM250 1112q-17 -76 24.5 -129t116.5 -53q76 0 140 52.5t81 129.5q15 77 -26 130.5t-117 53.5q-75 0 -138.5 -53.5t-80.5 -130.5z" />
<glyph unicode="&#xb1;" horiz-adv-x="948" d="M-51 2l35 168h874l-37 -168h-872zM72 582l37 170h344l51 241h186l-51 -241h342l-37 -170h-340l-57 -265h-187l56 265h-344z" />
<glyph unicode="&#xb2;" horiz-adv-x="598" d="M-49 713l12 51q25 117 74.5 192t142.5 131l-14 -4q74 35 135 70q10 5 27.5 14.5t23.5 12.5q6 4 22.5 13t24.5 15q55 37 60 76q7 43 -14 57t-87 17h-12q-40 -1 -240 -27l27 123q127 37 254 37q153 0 213 -51q53 -47 31 -152q-13 -71 -51 -117t-121 -94q-29 -18 -81.5 -46 t-76.5 -42q-79 -44 -108 -79.5t-43 -98.5h370l-31 -141h-501q-21 0 -30.5 12t-6.5 31z" />
<glyph unicode="&#xb3;" horiz-adv-x="598" d="M-39 692l27 129q152 -26 235 -26q133 0 154 102l6 29q12 53 -16 73.5t-103 20.5h-117l27 129h121q69 0 102.5 23t44.5 77l4 17q9 47 -20 70t-98 20h-6q-86 -2 -224 -25l27 125q140 35 252 35q150 0 209 -45q65 -52 37 -182q-12 -58 -47 -99t-105 -82q67 -30 84.5 -77.5 t-0.5 -106.5q-28 -128 -109 -184q-83 -56 -237 -56q-112 0 -248 33z" />
<glyph unicode="&#xb4;" horiz-adv-x="571" d="M90 1276l275 252h198l-323 -252h-150z" />
<glyph unicode="&#xb5;" horiz-adv-x="1161" d="M-18 -369l309 1459h262l-147 -691q-20 -98 8 -149q35 -63 145 -60q112 0 225 68l179 832h262l-232 -1086h-254l23 113q-108 -70 -170 -93.5t-137 -23.5q-51 0 -125 41l-86 -410h-262z" />
<glyph unicode="&#xb6;" horiz-adv-x="1163" d="M166 1169q31 143 131.5 226.5t251.5 83.5h772l-35 -162h-162l-317 -1493h-189l318 1493h-199l-317 -1493h-187l220 1034q-351 0 -287 311z" />
<glyph unicode="&#xb7;" horiz-adv-x="473" d="M84 422l59 274h260l-59 -274h-260z" />
<glyph unicode="&#xb8;" horiz-adv-x="600" d="M59 -479l17 73q95 -12 145 -6q54 5 101 34.5t57 76.5q11 50 -23.5 78t-107.5 28h-80l41 193h131l-27 -125q74 0 120 -13.5t63 -36.5t21.5 -54t-5.5 -66q-45 -197 -295 -197q-81 0 -158 15z" />
<glyph unicode="&#xb9;" horiz-adv-x="464" d="M-2 674l27 123h86h14q12 0 20 6l5 4q2 2 8 20l108 514l-141 -73l29 139l127 68q31 16 49 16h80h4q33 0 43 -11.5t4 -43.5l-37 -179l-92 -430q-4 -11 2 -22v2q10 -10 20 -10h13h84l-27 -123h-426z" />
<glyph unicode="&#xba;" horiz-adv-x="733" d="M86 1112l12 62q36 167 125.5 246t233.5 79q143 0 198.5 -79t20.5 -246l-12 -62q-35 -173 -124.5 -254.5t-236.5 -81.5q-146 0 -200.5 81.5t-16.5 254.5zM242 1112q-47 -199 90 -199q42 0 73.5 16.5t51.5 47t31 62t20 73.5l12 59q8 40 9 70t-6 59.5t-31 45.5t-64 16 t-71.5 -16t-51 -45t-31.5 -60t-20 -70z" />
<glyph unicode="&#xbb;" horiz-adv-x="1433" d="M29 125l481 444l-293 445h279l258 -393q35 -47 -21 -99l-426 -397h-278zM653 125l482 444l-291 445h278l258 -393q33 -50 -22 -99l-424 -397h-281z" />
<glyph unicode="&#xbc;" horiz-adv-x="1380" d="M4 0l1194 1479h176l-1192 -1479h-178zM16 692l25 121h80h10q10 0 21 8l2 2q8 8 10 19l108 504l-133 -74l29 137l119 68q29 14 45 14h76h-2h4q31 0 41 -11.5t4 -41.5q-8 -34 -67.5 -314.5t-59.5 -281.5v-4q-1 -5 -1 -8.5t1.5 -7.5t7 -6.5t14.5 -2.5h88l-26 -121h-396z M689 216.5q-5 32.5 6 63.5q1 5 1 7q6 28 25 47l395 436q20 23 64 23h65q33 0 52 -13.5t12 -44.5q-14 -67 -44 -211.5t-46 -220.5h94l-25 -121l2 -2v4h-98l-39 -182h-164l39 182h-299q-35 0 -40 32.5zM829 303h224l67 320z" />
<glyph unicode="&#xbd;" horiz-adv-x="1384" d="M4 0l1196 1479h174l-1192 -1479h-178zM18 692l27 121h78q20 0 27 5q3 2 6 5l2 2q6 4 10 17l106 504l-133 -74l29 137l119 68q29 14 47 14h74h2q31 0 41 -10.5t4 -42.5q-2 -9 -34 -163t-61 -288t-32 -137q0 -21 2 -25q9 -9 12 -10q6 -2 16 -2h80l-26 -121h-396zM738.5 25 q-1.5 6 0 16.5t3 17t4.5 17.5t4 16q23 109 69.5 184t138.5 132h5l6 6l28 14q17 10 54 29.5t65.5 35.5t52.5 33q51 38 58 74q10 42 -14 57t-70 15q-61 0 -254 -27l26 123q140 35 242 35q33 0 60 -2t55.5 -7.5t48.5 -15t38.5 -24.5t26 -36t11.5 -49.5t-6 -64.5 q-13 -63 -50 -110.5t-82.5 -75t-98.5 -56.5t-98.5 -54t-82.5 -69.5t-51 -101.5h354l-29 -135h-481q-11 0 -18.5 2.5t-10.5 8.5t-4.5 12z" />
<glyph unicode="&#xbe;" horiz-adv-x="1480" d="M18 711l27 125q181 -27 223 -25q127 0 148 100l6 27q12 52 -14.5 73t-98.5 21h-110l26 125h115q65 0 98 23t43 75l4 15q9 46 -18.5 68.5t-95.5 21.5h-4q-44 -1 -213 -25l26 121q134 35 238 35q142 0 198 -45q63 -47 37 -176q-13 -59 -46.5 -99t-100.5 -79q44 -20 65 -47 t21.5 -59.5t-6.5 -74.5q-26 -122 -105 -180q-77 -51 -227 -51q-114 0 -236 31zM117 0l1194 1479h174l-1190 -1479h-178zM801 256l8 31q5 27 22 47l396 436q23 23 63 23h68q35 0 51 -15t10 -43l-2 -16l-88 -416h94l-24 -119q-78 -4 -96 0l-39 -182h-164l39 182h-297 q-54 0 -41 72zM942 303h221l70 320z" />
<glyph unicode="&#xbf;" horiz-adv-x="1019" d="M0 204q-12 68 8 158q26 128 90 201q22 25 74 70q18 14 55.5 42t51.5 38q8 6 32.5 25t38.5 30q40 32 74 74q70 83 108 225h195q-5 -83 -22 -151.5t-35.5 -111t-52 -84.5t-54 -60.5t-59.5 -51.5q-22 -17 -76 -55q-46 -34 -67.5 -52.5t-44 -52.5t-31.5 -77 q-20 -92 33 -125.5t188 -30.5q161 3 352 43l-43 -201q-69 -26 -174.5 -41.5t-202.5 -15.5q-142 0 -235.5 23t-142 68t-60.5 113zM530 1235l56 262h256l-56 -262h-256z" />
<glyph unicode="&#xc0;" horiz-adv-x="1228" d="M-162 0l656 1378q28 57 64 81t97 24h203q62 0 89 -24t30 -81l67 -1378h-286l-17 381h-438l-182 -381h-283zM393 592h348l-22 727zM530 1911h168l152 -232h-127z" />
<glyph unicode="&#xc1;" horiz-adv-x="1228" d="M-160 0l656 1378q26 57 62 81t97 24h203q62 0 89 -24t30 -81l67 -1378h-286l-17 381h-436l-184 -381h-281zM395 592h346l-22 727zM735 1677l248 230h168l-291 -230h-125z" />
<glyph unicode="&#xc2;" horiz-adv-x="1230" d="M-162 0l654 1378q28 57 64 81t97 24h203q62 0 89 -24t30 -81l67 -1378h-286l-17 381h-438l-182 -381h-281zM393 592h346l-22 727zM496 1698l241 231h213l144 -231h-152l-106 192l-189 -192h-151z" />
<glyph unicode="&#xc3;" horiz-adv-x="1230" d="M-152 0l656 1380q28 57 64 80t98 23h202q62 0 89 -23t28 -80l68 -1380h-285l-16 381h-439l-182 -381h-283zM403 592h349l-23 727zM416 1647q67 225 280 161q32 -9 76.5 -23t58.5 -18q60 -15 103 -18q89 -5 127 70h88q-67 -226 -281 -162q-32 9 -76.5 23t-58.5 18 q-60 15 -102 18q-49 3 -78 -14t-51 -55h-86z" />
<glyph unicode="&#xc4;" horiz-adv-x="1226" d="M-158 0l656 1380q28 56 64 79.5t97 23.5h203q62 0 89 -24t28 -79l68 -1380h-285l-17 381h-438l-182 -381h-283zM397 592h348l-22 727zM492 1712l34 164h191l-35 -164h-190zM920 1712l34 164h191l-35 -164h-190z" />
<glyph unicode="&#xc5;" horiz-adv-x="1228" d="M-172 0l655 1378q26 57 62.5 81t97.5 24h203q62 0 89 -24t30 -81l67 -1378h-284l-17 381h-438l-184 -381h-281zM383 592h346l-20 725zM608 1819q17 85 88.5 142.5t157.5 57.5q85 0 132 -58t28 -142t-89.5 -141.5t-156.5 -57.5t-132.5 58t-27.5 141zM682 1819 q-12 -53 17.5 -90t84.5 -37q54 0 99.5 37t56.5 90q11 54 -18.5 90.5t-83.5 36.5t-100 -36.5t-56 -90.5z" />
<glyph unicode="&#xc6;" horiz-adv-x="1656" d="M-121 0l752 1374q26 57 63 81t97 24h213h6l788 2l-45 -211h-557l-88 -410h532l-45 -205h-530l-76 -350q-6 -38 10 -57q18 -23 58 -23h473l-45 -217q-122 -13 -296.5 -15t-275.5 9q-118 12 -161 64q-24 29 -29 66t10 124l27 125h-404l-196 -381h-281zM471 594h334l137 645 l10 45h-53q-34 0 -53 -13.5t-33 -43.5q-15 -28 -342 -633z" />
<glyph unicode="&#xc7;" horiz-adv-x="1124" d="M160 618l55 263q68 317 264 469q93 72 200.5 109t256.5 40q190 3 358 -33l-45 -211q-191 20 -342 15q-169 -3 -276 -99q-103 -92 -144 -286l-57 -273q-41 -195 21 -286q35 -50 91.5 -74t143.5 -27q154 -3 348 17l-43 -205q-135 -31 -327 -37l-37 -174q81 0 131 -12 t68 -32t22.5 -47t-4.5 -57q-16 -80 -87.5 -126t-205.5 -46q-85 0 -160 11l15 67q107 -9 147 -4q41 4 69 10.5t54 27.5t33 56q12 52 -22 72.5t-116 20.5h-73l49 237q-126 13 -201 46.5t-125 92.5q-131 151 -61 475z" />
<glyph unicode="&#xc8;" horiz-adv-x="1110" d="M-35.5 131q-5.5 37 10.5 123l209 983q16 77 39.5 118t61.5 72q64 49 192 62q108 11 317 9t332 -15l-45 -215l-536 -2h-10.5h-10.5t-9.5 -0.5t-10.5 -1.5t-9.5 -2.5t-10 -4t-9.5 -6.5q-4 -3 -7.5 -8t-5.5 -7.5t-4 -10t-2.5 -9t-2.5 -10.5l-2 -10l-72 -338h588l-43 -205 h-588l-76 -358q-13 -40 0 -55q4 -4 9 -7t8.5 -4.5t11 -2.5t10.5 -1h12h11l538 -2l-45 -215q-130 -13 -339.5 -15t-313.5 9q-126 13 -166 61q-26 31 -31.5 68zM461 1911h172l155 -232h-129z" />
<glyph unicode="&#xc9;" horiz-adv-x="1110" d="M-23 130q-5 36 11 122l207 973q16 78 39.5 118.5t60.5 69.5q59 49 192 62q112 11 319.5 8.5t332.5 -15.5l-47 -213h-537q-48 0 -68 -14q-4 -3 -7.5 -6.5t-6 -8.5t-4 -7.5t-3 -9t-2 -8t-2 -9t-1.5 -8.5l-70 -334h588l-43 -203h-588l-76 -354q0 -2 -2.5 -11.5t-3 -13 t-0.5 -10.5t2 -11.5t6 -8.5q3 -4 8 -7t8.5 -4.5t11 -2.5t10 -1h12.5h12l536 -2l-45 -213q-130 -13 -339 -15t-314 9q-123 13 -166 61q-26 31 -31 67zM672 1675l252 232h170l-295 -232h-127z" />
<glyph unicode="&#xca;" horiz-adv-x="1112" d="M-37.5 131q-5.5 37 10.5 123l209 983q16 77 39.5 118t61.5 72q64 49 192 62q108 11 317 9t332 -15l-45 -215l-536 -2h-10.5h-10.5t-9.5 -0.5t-10.5 -1.5t-9.5 -2.5t-10 -4t-9.5 -6.5t-9 -9t-6.5 -12t-3.5 -10.5t-3 -13t-2 -10.5l-72 -338h590l-45 -205h-588l-76 -358 q-10 -44 0 -55q4 -4 9 -7t8.5 -4.5t10.5 -2.5t10 -1h12h11l539 -2l-45 -215q-130 -13 -339.5 -15t-313.5 9q-123 13 -166 61q-26 31 -31.5 68zM426 1698l248 231h215l149 -231h-155l-111 192l-190 -192h-156z" />
<glyph unicode="&#xcb;" horiz-adv-x="1110" d="M-31 131q-5 37 11 123l208 983q16 77 39.5 118t61.5 72q64 49 192 62q108 11 317 9t332 -15l-45 -215h-536q-48 0 -70 -17q-4 -3 -7.5 -8t-5.5 -7.5t-4 -10t-2.5 -9t-2.5 -10.5l-2 -10l-72 -338h590l-45 -205h-588l-76 -358q-10 -44 0 -55q4 -4 9 -7t8.5 -4.5t11 -2.5 t10.5 -1h12h11l538 -2l-45 -215q-130 -13 -339.5 -15t-313.5 9q-126 13 -166 61q-26 31 -31 68zM426 1710l35 162h194l-34 -162h-195zM860 1710l35 162h195l-35 -162h-195z" />
<glyph unicode="&#xcc;" horiz-adv-x="634" d="M-8 0l313 1475h275l-314 -1475h-274zM213 1911h180l164 -234h-135z" />
<glyph unicode="&#xcd;" horiz-adv-x="634" d="M-8 0l313 1475h273l-314 -1475h-272zM408 1677l262 230h180l-307 -230h-135z" />
<glyph unicode="&#xce;" horiz-adv-x="634" d="M-14 0l313 1475h274l-313 -1475h-274zM180 1698l244 231h211l145 -231h-151l-107 192l-190 -192h-152z" />
<glyph unicode="&#xcf;" horiz-adv-x="634" d="M-10 0l313 1475h272l-313 -1475h-272zM170 1710l35 162h201l-35 -162h-201zM618 1710l35 162h199l-35 -162h-199z" />
<glyph unicode="&#xd0;" horiz-adv-x="1331" d="M-8 692l31 152h161l121 573q16 62 74 62h414q164 0 255 -30t152 -97q70 -78 87.5 -194t-19.5 -296l-51 -248q-74 -340 -267 -477q-111 -79 -214.5 -108t-264.5 -29h-405q-63 0 -48 63l134 629h-160zM336 272q-7 -30 8 -45q10 -14 45 -18q8 0 56 -0.5t62.5 0t55 3.5t63 9 t55 17.5t60.5 27.5q80 46 126.5 126.5t74.5 215.5l57 264q28 129 17.5 207t-64.5 127q-56 53 -168 64q-39 4 -174 4q-31 -5 -49 -19q-19 -16 -26 -47l-78 -364h254l-31 -152h-256z" />
<glyph unicode="&#xd1;" horiz-adv-x="1331" d="M-43 0l297 1389q9 49 43 71.5t100 22.5h197q26 0 39.5 -14.5t23.5 -55.5q12 -43 60 -340l127 -813l258 1217h244l-295 -1387q-9 -50 -43.5 -73t-100.5 -23h-178q-46 0 -61.5 30.5t-36.5 147.5l-172 1042l-258 -1214h-244zM449 1647q67 225 282 161q32 -9 76.5 -23 t58.5 -18q59 -15 105 -18q88 -5 129 70h86q-67 -226 -281 -162q-32 9 -76.5 23t-60.5 18q-60 15 -102 18q-49 3 -79 -14.5t-50 -54.5h-88z" />
<glyph unicode="&#xd2;" horiz-adv-x="1318" d="M43 600l55 264q69 318 262 469q96 76 196.5 113t244.5 37q145 0 230 -37.5t149 -112.5q129 -153 61 -469l-55 -264q-70 -325 -260 -475q-93 -73 -194.5 -108t-248.5 -35q-148 0 -234.5 35t-148.5 108q-127 150 -57 475zM295 424.5q2 -77.5 35 -125.5q62 -94 200 -94 t240 94q54 48 85.5 119.5t53.5 175.5l60 276q45 207 -15 293q-62 94 -200 94q-137 0 -242 -94q-52 -48 -84.5 -120t-54.5 -173l-58 -276q-22 -92 -20 -169.5zM575 1907h168l152 -230h-127z" />
<glyph unicode="&#xd3;" horiz-adv-x="1318" d="M43 600l55 264q69 318 262 469q96 76 196.5 113t244.5 37q145 0 230 -37.5t149 -112.5q129 -153 61 -469l-55 -264q-70 -325 -260 -475q-93 -73 -195 -108t-250 -35q-147 0 -233 35t-148 108q-127 150 -57 475zM295 424.5q2 -77.5 35 -125.5q62 -94 200 -94t240 94 q54 48 85.5 119.5t53.5 175.5l60 276q45 207 -15 293q-62 94 -200 94q-137 0 -242 -94q-52 -48 -84.5 -120t-54.5 -173l-58 -276q-22 -92 -20 -169.5zM782 1677l248 232h170l-293 -232h-125z" />
<glyph unicode="&#xd4;" horiz-adv-x="1318" d="M41 600l55 264q68 316 262 469q96 75 197 112.5t244 37.5q145 0 230 -37.5t149 -112.5q129 -153 61 -469l-55 -264q-70 -325 -260 -475q-93 -73 -194.5 -108t-248.5 -35q-148 0 -234.5 35t-148.5 108q-127 150 -57 475zM313 592q-45 -207 15 -293q62 -94 200 -94t240 94 q53 48 85 119t54 174l60 276q22 92 20 169.5t-35 125.5q-62 94 -200 94q-137 0 -242 -94q-95 -87 -139 -295zM541 1694l243 231h213l144 -231h-152l-106 192l-191 -192h-151z" />
<glyph unicode="&#xd5;" horiz-adv-x="1318" d="M51 602l58 264q65 316 262 469q96 77 195.5 114.5t244.5 37.5t230 -37.5t149 -114.5q129 -153 61 -469l-55 -264q-69 -325 -262 -477q-93 -73 -194 -108t-248 -35q-146 0 -232 35.5t-149 107.5q-129 153 -60 477zM324 594q-44 -205 14 -293q66 -96 201 -96q137 0 241 96 q54 48 86 119.5t54 173.5l59 278q45 208 -14 293q-64 97 -201 97q-136 0 -242 -97q-53 -48 -85 -119t-54 -174zM463 1647q67 225 280 161q29 -8 74.5 -22t63.5 -19q56 -15 100 -18q49 -3 79 14.5t50 55.5h88q-67 -226 -283 -162q-26 7 -71 21.5t-64 19.5q-60 15 -102 18 q-49 3 -78 -14t-51 -55h-86z" />
<glyph unicode="&#xd6;" horiz-adv-x="1318" d="M45 602l57 262q68 320 263 469q96 77 195.5 114.5t244.5 37.5t230 -37.5t149 -114.5q129 -150 61 -469l-55 -262q-70 -326 -260 -477q-93 -73 -195 -108t-250 -35q-147 0 -233 35t-148 108q-126 149 -59 477zM298.5 424q1.5 -77 33.5 -125q65 -94 203 -94q137 0 239 94 q53 48 85 119.5t54 175.5l60 276q45 207 -15 293q-64 97 -200 97q-134 0 -242 -97q-53 -48 -85 -119t-54 -174l-58 -276q-22 -93 -20.5 -170zM541 1710l34 162h191l-33 -162h-192zM969 1710l35 162h192l-35 -162h-192z" />
<glyph unicode="&#xd7;" horiz-adv-x="1060" d="M18 168l402 332l-258 329l160 134l258 -330l395 330l104 -134l-397 -329l258 -332l-160 -133l-256 332l-401 -332z" />
<glyph unicode="&#xd8;" horiz-adv-x="1316" d="M-12 -72l151 195q-127 133 -53 483l57 264q68 319 263 471q95 76 195 113.5t245 38.5q92 0 158 -18.5t139 -61.5l108 139h107l-158 -186q9 -9 14 -14.5t7 -7.5l2 -3q129 -153 61 -471l-57 -264q-66 -326 -260 -479q-93 -73 -194 -108t-249 -35q-117 0 -185.5 17.5 t-129.5 72.5l-113 -146h-108zM336 375l639 827q-37 40 -79 53t-99 11q-69 0 -132.5 -27.5t-107.5 -67.5q-54 -49 -85.5 -120t-53.5 -174l-60 -279q-34 -162 -22 -223zM377 289q47 -82 196 -82q136 0 240 96q54 48 85.5 119.5t53.5 175.5l60 279q20 113 22 124q11 81 -4 129z " />
<glyph unicode="&#xd9;" horiz-adv-x="1347" d="M28.5 345q1.5 73 20.5 163l205 954h272l-200 -942q-35 -167 10 -241t203 -74t235.5 74t112.5 241l200 942h273l-203 -954q-26 -125 -73 -218t-106.5 -151.5t-139 -94t-162 -49t-184.5 -13.5q-73 0 -132 6.5t-113 23t-94 43t-69.5 67.5t-43 95.5t-12 127.5zM590 1909h170 l151 -232h-127z" />
<glyph unicode="&#xda;" horiz-adv-x="1347" d="M28.5 345q1.5 73 20.5 163l205 954h272l-200 -942q-35 -167 10 -241t203 -74t235.5 74t112.5 241l200 942h273l-203 -954q-26 -125 -73 -218t-106.5 -151.5t-139 -94t-162 -49t-184.5 -13.5q-73 0 -132 6.5t-113 23t-94 43t-69.5 67.5t-43 95.5t-12 127.5zM799 1677 l248 234h170l-293 -234h-125z" />
<glyph unicode="&#xdb;" horiz-adv-x="1347" d="M28 344.5q2 73.5 21 163.5l203 954h272l-200 -942q-35 -167 10 -241t203 -74q159 0 236 73.5t112 241.5l200 942h275l-205 -954q-26 -125 -73 -218t-106.5 -151.5t-139 -94t-162 -49t-185.5 -13.5q-72 0 -131 6.5t-113 23t-93.5 43t-69 67.5t-43 95t-11.5 127.5z M555 1696l244 229h213l145 -229h-153l-107 192l-190 -192h-152z" />
<glyph unicode="&#xdc;" horiz-adv-x="1347" d="M32.5 345q1.5 73 20.5 163l205 956h272l-200 -944q-35 -167 10 -241t203 -74t235.5 74t112.5 241l201 944h272l-203 -956q-26 -125 -73 -218t-106.5 -151.5t-139 -94t-162 -49t-184.5 -13.5q-73 0 -132 6.5t-113 23t-94 43t-69.5 67.5t-43 95.5t-12 127.5zM553 1710 l35 162h192l-35 -162h-192zM983 1710l35 162h190l-34 -162h-191z" />
<glyph unicode="&#xdd;" horiz-adv-x="634" d="M-33 0l312 1460h317l-309 -1460h-320zM328 1694l43 202h319l-43 -202h-319z" />
<glyph unicode="&#xde;" horiz-adv-x="1095" d="M-23 49l43 197q181 -24 302 -31q101 -8 166.5 -1t117.5 36q44 23 73.5 70.5t31.5 95.5q1 49 -20 80.5t-79 74.5q-114 83 -233 158q-148 94 -186.5 170t-8.5 209q43 206 181.5 298.5t418.5 92.5q185 0 353 -41q-9 -38 -29 -131l-14 -76q-174 31 -342 37q-82 2 -137 -7.5 t-95 -43.5q-49 -42 -57 -109q-7 -47 10.5 -75.5t56.5 -55.5q7 -5 24.5 -16t27.5 -18q4 -2 134 -81t175 -114q66 -50 96 -103.5t30 -112.5t-16 -132q-40 -193 -173.5 -293t-387.5 -125l-39 -176q82 0 132.5 -12t68.5 -32t23 -47t-4 -57q-16 -80 -87.5 -126t-205.5 -46 q-85 0 -160 11l14 67q106 -9 148 -4q30 3 51.5 7.5t45 14t38.5 28t20 44.5q12 52 -22 72.5t-117 20.5h-74l52 233q-207 8 -347 49z" />
<glyph unicode="&#xdf;" horiz-adv-x="1271" d="M-4 0l229 1081q32 149 76.5 224t130.5 127q129 76 408 67q242 -9 328 -106.5t49 -276.5q-25 -116 -96 -186t-212 -135q152 -52 201 -138.5t16 -234.5q-42 -203 -190.5 -309t-419.5 -113h-14h-37l45 211h16q147 2 225.5 55.5t106.5 188.5q26 119 -33.5 178t-193.5 59 q-23 0 -28.5 10.5t1.5 53.5l10 49q8 40 19 50.5t35 10.5q106 0 180.5 56t97.5 163q44 207 -184 220q-220 11 -264 -195l-236 -1110h-266z" />
<glyph unicode="&#xe0;" horiz-adv-x="1067" d="M-12 297q0 17 8 41q39 167 164 236t381 69h131l16 78q6 27 6.5 49.5t-4 39.5t-13 30.5t-21 22t-28.5 15t-34 10t-38.5 5.5t-42.5 2h-44q-39 -1 -88.5 -4.5t-107.5 -9t-83 -7.5l35 170q86 21 191.5 33t187.5 10q427 -3 348 -366l-151 -719h-258l20 100q-100 -68 -173 -92 t-159 -24q-151 0 -211.5 87t-31.5 224zM244 324q-15 -76 26.5 -116.5t120.5 -37.5q81 2 191 47l63 301q-213 12 -285 -24q-90 -43 -112 -156zM471 1528h188l160 -246h-143z" />
<glyph unicode="&#xe1;" horiz-adv-x="1067" d="M-12 297q0 17 8 41q39 167 164 236t381 69h131l16 78q6 27 6.5 49.5t-4 39.5t-13 30.5t-21 22t-28.5 15t-34 10t-38.5 5.5t-42.5 2h-44q-39 -1 -88.5 -4.5t-107.5 -9t-83 -7.5l35 170q86 21 191.5 33t187.5 10q427 -3 348 -366l-151 -719h-258l20 100q-100 -68 -173 -92 t-159 -24q-151 0 -211.5 87t-31.5 224zM244 324q-15 -76 26.5 -116.5t120.5 -37.5q81 2 191 47l63 301q-213 12 -285 -24q-90 -43 -112 -156zM522 1282l262 246h191l-309 -246h-144z" />
<glyph unicode="&#xe2;" horiz-adv-x="1067" d="M-12 297q0 17 8 41q39 167 164 236t381 69h131l16 78q6 27 6.5 49.5t-4.5 39.5t-13.5 30.5t-21 22t-28 15t-34 10t-38.5 5.5t-42 2h-44q-39 -1 -88.5 -4.5t-107.5 -9t-83 -7.5l35 170q86 21 191.5 33t187.5 10q427 -3 348 -366l-151 -719h-258l20 100q-100 -68 -173 -92 t-159 -24q-151 0 -211.5 87t-31.5 224zM244 324q-15 -76 26.5 -116.5t120.5 -37.5q81 2 191 47l63 301q-213 12 -285 -24q-90 -43 -112 -156zM352 1282l258 246h221l154 -246h-170l-106 191l-187 -191h-170z" />
<glyph unicode="&#xe3;" horiz-adv-x="1067" d="M-6 297q0 5 3.5 21.5t4.5 19.5q40 168 165 237.5t380 67.5h131l16 80q9 40 6 70t-16.5 48.5t-34.5 30.5t-49 16.5t-59.5 6.5t-65.5 0q-88 -2 -278 -21l34 173q201 46 379 43q203 -2 296 -90t52 -277l-151 -721h-258l20 100q-100 -68 -172.5 -92t-158.5 -24 q-152 0 -212.5 87.5t-31.5 223.5zM250 324q-15 -76 26.5 -116.5t120.5 -37.5q81 2 191 47l63 301q-213 12 -284 -24q-45 -22 -73.5 -58t-39.5 -98zM328 1286q67 241 295 174q21 -6 68 -20t67 -19q56 -17 102 -20q48 -3 75.5 14.5t47.5 57.5h100q-35 -120 -106.5 -165.5 t-188.5 -11.5q-32 9 -76.5 23t-58.5 18q-65 17 -102 19q-48 3 -76.5 -14.5t-46.5 -55.5h-100z" />
<glyph unicode="&#xe4;" horiz-adv-x="1067" d="M-6 297q8 24 8 41q39 168 165 237.5t380 67.5h133l16 80q6 27 6 49.5t-4 39t-13.5 30t-21 22.5t-29 15.5t-34 10t-38.5 5.5t-41 2h-44q-65 -1 -280 -23l36 173q84 21 190 33t187 10q427 -3 351 -367l-154 -721h-258l22 100q-102 -68 -173.5 -92t-157.5 -24 q-152 0 -213.5 87.5t-32.5 223.5zM252 324q-15 -76 26 -116.5t119 -37.5q87 2 191 47l63 301q-210 12 -284 -24q-89 -40 -113 -156zM356 1286l39 174h205l-37 -174h-207zM788 1286l37 174h205l-37 -174h-205z" />
<glyph unicode="&#xe5;" horiz-adv-x="1067" d="M-25 297q1 3 5 19.5t4 19.5q39 168 164.5 237.5t379.5 67.5h131l19 78q6 27 6 49.5t-4.5 39.5t-13 30.5t-21.5 22t-28.5 15t-34 10t-38.5 5.5t-41.5 2h-43.5q-66 -1 -281 -23l35 172q201 46 379 43q426 -3 350 -366l-154 -717h-258l23 98q-102 -67 -174 -90.5t-158 -23.5 q-152 0 -213.5 87.5t-32.5 223.5zM233 322q-17 -74 25.5 -115t120.5 -39q77 4 190 47l64 301q-211 12 -285 -24q-91 -41 -112 -156zM477 1427q19 88 92 147.5t162 59.5t138 -59.5t30 -147.5q-19 -86 -93 -145t-163 -59q-88 0 -136.5 59t-29.5 145zM569 1430 q-10 -49 16.5 -83t76.5 -34t91.5 34t51.5 83q11 47 -17 80.5t-77 33.5t-90 -33t-52 -81z" />
<glyph unicode="&#xe6;" horiz-adv-x="1667" d="M43 297q8 24 8 41q41 170 162.5 238.5t370.5 68.5l125 -2q7 26 12 35l8 41q9 41 6 71.5t-16 49.5t-33.5 31.5t-47.5 17t-58 6.5t-64 0q-87 -2 -272 -21l37 175q83 21 185.5 33t182.5 10q197 0 293 -99q161 101 344 101q119 0 200.5 -45t117.5 -113q45 -86 47 -159 t-37 -257l-8 -35h-682q-23 -136 15 -209.5t161 -87.5q150 -15 413 43l-36 -180q-195 -65 -426 -65q-213 0 -326 118q-140 -93 -254 -110q-47 -8 -98 -8h-92q-148 0 -207.5 87t-30.5 224zM295 324q-17 -75 23.5 -115t117.5 -37q93 3 230 68q-14 125 16 278q-205 10 -274 -24 q-45 -24 -72.5 -59.5t-38.5 -96.5zM956 633h449q29 151 -15 214.5t-151 63.5q-105 0 -177.5 -63t-105.5 -215z" />
<glyph unicode="&#xe7;" horiz-adv-x="935" d="M143 512l25 119q46 213 201.5 341t380.5 134q131 2 311 -29l-39 -184q-174 22 -299 16q-98 -7 -182 -79t-113 -203l-29 -138q-28 -133 22.5 -207.5t172.5 -82.5q120 -5 287 28l-39 -180q-170 -36 -271 -43l-34 -166q80 0 130.5 -12t68.5 -33t23 -49t-5 -59 q-40 -179 -301 -179q-96 0 -166 13l14 67q99 -12 154 -6q133 12 151 101q11 51 -21.5 76.5t-109.5 25.5h-80l49 223q-198 28 -274.5 150t-26.5 356z" />
<glyph unicode="&#xe8;" horiz-adv-x="1122" d="M49 502l19 86q28 129 86 227t137.5 157.5t173.5 88.5t201 29q123 0 206.5 -44.5t118.5 -111.5q46 -85 48.5 -162.5t-35.5 -259.5l-9 -35h-698q-22 -133 17.5 -205.5t164.5 -85.5q140 -16 424 41l-39 -176q-198 -65 -432 -65q-495 0 -383 516zM330 623h458 q53 286 -167 286q-225 0 -291 -286zM500 1528h188l158 -246h-141z" />
<glyph unicode="&#xe9;" horiz-adv-x="1091" d="M37 502l18 86q28 129 86 227t137.5 157.5t173.5 88.5t201 29q124 0 207.5 -44t120.5 -112q45 -84 47 -161.5t-37 -260.5l-6 -35h-698q-23 -133 16.5 -205.5t165.5 -85.5q139 -16 422 41l-37 -176q-198 -65 -432 -65q-494 0 -385 516zM319 623h457q56 286 -168 286 q-226 0 -289 -286zM539 1282l262 246h188l-307 -246h-143z" />
<glyph unicode="&#xea;" horiz-adv-x="1122" d="M49 502l19 86q28 129 86 227t137.5 157.5t173.5 88.5t201 29q123 0 206.5 -44.5t118.5 -111.5q46 -84 48.5 -162t-35.5 -260l-9 -35h-698q-23 -133 16.5 -205.5t165.5 -85.5q140 -16 424 41l-39 -176q-198 -65 -432 -65q-495 0 -383 516zM330 623h458q53 286 -167 286 q-225 0 -291 -286zM383 1282l256 246h219l152 -246h-168l-105 191l-186 -191h-168z" />
<glyph unicode="&#xeb;" horiz-adv-x="1122" d="M55 502l19 88q28 129 86 227t137.5 157.5t173.5 88.5t201 29q123 0 206 -44.5t121 -111.5q45 -86 47.5 -163.5t-36.5 -258.5l-9 -35h-696q-23 -134 16.5 -207t165.5 -86q147 -16 422 43l-37 -178q-198 -65 -434 -65q-492 0 -383 516zM338 625h457q56 286 -168 286 q-226 0 -289 -286zM387 1286l37 174h205l-39 -174h-203zM815 1286l37 174h205l-37 -174h-205z" />
<glyph unicode="&#xec;" horiz-adv-x="571" d="M-2 0l229 1071h279l-230 -1071h-278zM219 1528h199l168 -246h-150z" />
<glyph unicode="&#xed;" horiz-adv-x="571" d="M-10 0l227 1071h279l-228 -1071h-278zM227 1282l273 246h198l-321 -246h-150z" />
<glyph unicode="&#xee;" horiz-adv-x="573" d="M0 0l229 1071h269l-228 -1071h-270zM90 1282l260 246h223l156 -246h-172l-106 191l-189 -191h-172z" />
<glyph unicode="&#xef;" horiz-adv-x="573" d="M6 0l230 1073h270l-227 -1073h-273zM92 1286l37 176h209l-37 -176h-209zM530 1286l39 176h209l-37 -176h-211z" />
<glyph unicode="&#xf0;" horiz-adv-x="1144" d="M12 424q1 4 17.5 82t17.5 82q36 159 92 251.5t142 159.5q131 98 337 101q49 0 96 -22.5t101 -84.5l21 103q2 10 7 30.5t7 30.5q1 7 3 21.5t3 21.5q0 55 -37 129l-98 -90l-64 68l101 92q-37 41 -92 96l211 182q50 -46 90 -88l100 90l63 -67l-102 -92q24 -30 27 -33 q4 -4 6 -8q63 -90 69 -174q0 -48 -8 -97q0 -2 -26 -133l-228 -1073h-258l21 98q-101 -66 -170 -90t-154 -24q-389 0 -295 438zM268 324q2 -56 33 -99q40 -55 150 -55q97 0 198 49l146 680q-132 34 -230 14q-114 -24 -169.5 -103t-88.5 -237l-18 -79q-23 -114 -21 -170z" />
<glyph unicode="&#xf1;" horiz-adv-x="1155" d="M-25 0l230 1073h254l-25 -115q123 75 205 103.5t176 28.5q70 0 122.5 -18t82.5 -50.5t47 -76t15.5 -95t-11.5 -107.5l-160 -743h-262l142 668q9 41 12.5 66t1 55.5t-16.5 48.5q-24 34 -57.5 44t-93.5 7q-94 -8 -221 -72l-174 -817h-267zM373 1286q67 241 293 174 q20 -5 67 -19.5t68 -19.5q52 -17 100 -20t77 14.5t48 57.5h98q-67 -244 -293 -177q-32 9 -76.5 23t-58.5 18q-65 17 -102 19q-48 3 -75.5 -14t-47.5 -56h-98z" />
<glyph unicode="&#xf2;" d="M47 504q1 5 8 38.5t8 43.5q107 504 588 504q240 0 335 -123t40 -381q-12 -54 -16 -82q-58 -267 -204.5 -392.5t-387.5 -125.5q-242 0 -335.5 125.5t-35.5 392.5zM292 412.5q-4 -40.5 1 -82.5t23 -70t55 -45.5t92 -17.5q68 0 119 25t83 72t50.5 96t32.5 114l16 80 q10 48 13.5 87t-2.5 79t-24 67.5t-54.5 44.5t-90.5 17q-53 0 -96.5 -17t-72.5 -44.5t-52 -67.5t-36 -79t-23 -87l-19 -80q-11 -51 -15 -91.5zM496 1528h188l160 -246h-144z" />
<glyph unicode="&#xf3;" d="M47 504q1 5 8 38.5t8 43.5q107 504 588 504q240 0 335 -123t40 -381q-12 -54 -16 -82q-58 -267 -204.5 -392.5t-387.5 -125.5q-242 0 -335.5 125.5t-35.5 392.5zM292 412.5q-4 -40.5 1 -82.5t23 -70t55 -45.5t92 -17.5q68 0 119 25t83 72t50.5 96t32.5 114l16 80 q10 48 13.5 87t-2.5 79t-24 67.5t-54.5 44.5t-90.5 17q-53 0 -96.5 -17t-72.5 -44.5t-52 -67.5t-36 -79t-23 -87l-19 -80q-11 -51 -15 -91.5zM547 1282l262 246h188l-309 -246h-141z" />
<glyph unicode="&#xf4;" d="M47 504q1 5 8 38.5t8 43.5q110 516 592 516q237 0 331.5 -128.5t39.5 -387.5q-1 -6 -5 -25t-7.5 -35t-5.5 -22q-56 -267 -202.5 -392.5t-387.5 -125.5q-242 0 -335.5 125.5t-35.5 392.5zM292 412.5q-4 -40.5 1 -82.5t23 -70t55 -45.5t92 -17.5q68 0 119 25t83 72t50.5 96 t32.5 114l16 80q10 48 13.5 87t-2.5 79t-24 67.5t-54.5 44.5t-90.5 17q-53 0 -96.5 -17t-72.5 -44.5t-52 -67.5t-36 -79t-23 -87l-19 -80q-11 -51 -15 -91.5zM379 1282l256 246h219l152 -246h-168l-105 191l-186 -191h-168z" />
<glyph unicode="&#xf5;" d="M53 506q1 4 8.5 37.5t8.5 42.5q56 258 202.5 382t384.5 124q483 0 375 -506q-1 -5 -8.5 -39t-9.5 -41q-56 -268 -202.5 -394t-387.5 -126q-243 0 -336 126t-35 394zM296.5 390.5q-2.5 -48.5 9.5 -95.5t53 -72.5t110 -25.5q68 0 119 25.5t83 72.5t50.5 95.5t32.5 113.5 l16 80q10 48 13.5 87t-2.5 79t-24 67.5t-54.5 44.5t-90.5 17q-53 0 -96.5 -17t-72.5 -44.5t-52 -67.5t-36 -79t-23 -87l-19 -80q-14 -65 -16.5 -113.5zM354 1286q67 241 291 174q16 -4 66 -19t71 -20q53 -17 101 -20t75.5 14.5t47.5 57.5h98q-67 -244 -291 -177 q-29 8 -74 22t-63 19q-61 17 -101 19q-47 3 -74.5 -14t-47.5 -56h-99z" />
<glyph unicode="&#xf6;" d="M53 506q2 7 19 82q55 258 201.5 381t385.5 123t333.5 -123t39.5 -381q-9 -42 -16 -82q-56 -268 -202.5 -394t-389.5 -126q-241 0 -334 126t-37 394zM300 413q-4 -40 0.5 -82t22 -70t54.5 -46t92 -18q68 0 119.5 25.5t83.5 72.5t50.5 96t31.5 113l16 80q10 48 13.5 87 t-2 79t-23 67.5t-54 44.5t-90.5 17t-97.5 -17.5t-72.5 -44t-52 -67.5t-36 -79.5t-24 -86.5l-17 -80q-11 -51 -15 -91zM383 1286l37 174h205l-39 -174h-203zM811 1286l37 174h205l-37 -174h-205z" />
<glyph unicode="&#xf7;" horiz-adv-x="1060" d="M39 406l39 186h985l-41 -186h-983zM352 0l39 186h187l-39 -186h-187zM524 811l39 182h187l-39 -182h-187z" />
<glyph unicode="&#xf8;" d="M43 -72l117 150q-67 73 -84 178t14 256q16 48 21 94q56 260 203 384t386 124q126 0 232 -41l86 109h102l-121 -154q68 -73 86 -174t-12 -248q-1 -6 -5.5 -28.5t-8.5 -41.5t-6 -24q-58 -271 -204 -397.5t-388 -126.5q-127 0 -236 45l-80 -105h-102zM334 301l440 567 q-70 33 -119 33q-67 0 -117.5 -25t-82.5 -70.5t-50.5 -93t-31.5 -108.5l-21 -94q-16 -71 -18 -209zM383 236q65 -33 123 -33q55 0 99.5 17.5t74 45.5t52.5 70t36 82.5t23 91.5l20 94q14 75 16 201z" />
<glyph unicode="&#xf9;" horiz-adv-x="1161" d="M33 187.5q-7 60.5 10 129.5l160 754h264l-148 -688q-20 -94 9 -147q33 -60 143 -60q112 0 225 68l176 827h267l-228 -1071h-258l21 98q-183 -114 -346 -114h-27q-88 0 -148 26t-86.5 71.5t-33.5 106zM520 1528h189l157 -246h-141z" />
<glyph unicode="&#xfa;" horiz-adv-x="1161" d="M33 187.5q-7 60.5 10 129.5l160 754h264l-148 -688q-20 -94 9 -147q33 -60 143 -60q112 0 225 68l176 827h267l-228 -1071h-258l21 98q-183 -114 -346 -114h-27q-88 0 -148 26t-86.5 71.5t-33.5 106zM569 1282l265 246h188l-309 -246h-144z" />
<glyph unicode="&#xfb;" horiz-adv-x="1161" d="M33 187.5q-7 60.5 10 129.5l160 754h264l-148 -688q-20 -94 9 -147q33 -60 143 -60q112 0 225 68l176 827h267l-228 -1071h-258l21 98q-183 -114 -346 -114h-27q-88 0 -148 26t-86.5 71.5t-33.5 106zM401 1282l258 246h220l151 -246h-168l-106 191l-185 -191h-170z" />
<glyph unicode="&#xfc;" horiz-adv-x="1161" d="M39 187.5q-7 60.5 10 129.5l162 756h262l-145 -688q-20 -100 6 -149q20 -33 54 -46.5t91 -13.5q105 0 226 68l176 829h264l-227 -1071h-259l23 96q-103 -63 -184.5 -88.5t-163.5 -25.5h-27q-88 0 -148 26t-86.5 71.5t-33.5 106zM406 1286l36 174h205l-37 -174h-204z M836 1286l36 174h205l-39 -174h-202z" />
<glyph unicode="&#xfd;" horiz-adv-x="571" d="M27 0l235 1102h301l-235 -1102h-301z" />
<glyph unicode="&#xfe;" horiz-adv-x="903" d="M-8 45l37 178q115 -20 260 -26q219 -9 258 67q40 68 -25 119q-56 44 -151 96q-94 50 -160 99q-53 39 -72.5 93t-1.5 138q27 127 119 203q124 94 375 94q149 0 303 -35l-39 -182q-119 20 -240 29q-108 7 -155 0q-56 -9 -78 -46q-18 -32 -12.5 -64.5t34.5 -55.5 q12 -9 62 -37q59 -31 76 -39q115 -61 178 -105q119 -83 84 -237q-18 -85 -48 -133.5t-83 -91.5q-115 -89 -353 -105l-34 -166q80 0 129.5 -12t67.5 -33t23 -49t-5 -59q-16 -83 -90.5 -131t-210.5 -48q-94 0 -164 13l16 75q99 -12 154 -6q130 12 149 93q9 50 -22 70t-111 20 h-80l49 235q-143 11 -239 39z" />
<glyph unicode="&#xff;" d="M-6 -381l41 188q70 -7 119 -4q47 3 86 15q43 10 65 37q50 50 35 143l-195 1079h310l88 -813l393 813h297l-692 -1247q-33 -57 -65 -93t-77 -67q-75 -49 -180 -61q-85 -7 -225 10zM426 1286l37 174h203l-37 -174h-203zM850 1286l37 174h203l-37 -174h-203z" />
<glyph unicode="&#x152;" horiz-adv-x="1888" d="M86 606l57 268q68 320 260 474q93 76 192.5 113.5t242.5 37.5q122 0 188 -31.5t133 -111.5q41 55 62 76q30 27 61 40t84 19q105 11 307 9t322 -15l-45 -217h-520h-11h-12t-10.5 -1t-12 -2.5t-10 -4.5t-10.5 -7q-10 -8 -18 -24q-1 -5 -3.5 -15.5t-3.5 -15.5l-71 -338h567 l-43 -205h-569l-76 -358q-3 -21 -6 -31q0 -14 6 -26q13 -15 61 -15h518l-45 -215q-123 -14 -327.5 -15.5t-302.5 9.5q-51 4 -76.5 17t-44.5 42q-10 15 -29 58q-99 -77 -179.5 -108t-205.5 -31q-145 0 -229.5 35.5t-145.5 109.5q-125 152 -55 479zM354 600q-45 -210 13 -297 q64 -96 196 -96q134 0 238 96q92 84 137 297l59 279q45 211 -12 297q-61 96 -197 96q-133 0 -237 -96q-52 -49 -83.5 -121t-53.5 -176z" />
<glyph unicode="&#x153;" horiz-adv-x="1761" d="M88 512q2 5 5.5 21t7.5 36l5 25q56 261 202 386.5t382 125.5q120 0 195 -35.5t121 -114.5q48 74 154 112t224 38q121 0 202.5 -45t117.5 -113q45 -87 47 -166t-37 -262l-8 -39h-682q-23 -129 14.5 -200t159.5 -84q146 -17 418 43l-41 -189q-195 -65 -428 -65 q-116 0 -193 33t-129 110q-79 -76 -167 -109.5t-207 -33.5q-238 0 -328.5 127.5t-34.5 398.5zM336.5 420.5q-4.5 -40.5 0.5 -82t21.5 -69t51.5 -45t88 -17.5t96 17.5t71 45t50.5 69.5t35 81.5t23.5 91.5l17 80q13 61 14.5 108t-10 91.5t-50 69t-102.5 24.5t-112.5 -24.5 t-79 -69t-49 -91.5t-31.5 -108l-19 -80q-11 -51 -15.5 -91.5zM1059 635h438q53 280 -160 280q-218 0 -278 -280z" />
<glyph unicode="&#x178;" horiz-adv-x="1148" d="M143 1464h316l121 -606l378 606h314l-621 -891l-123 -573h-262l123 582zM449 1710l34 162h193l-35 -162h-192zM877 1710l34 162h191l-33 -162h-192z" />
<glyph unicode="&#x2c6;" horiz-adv-x="569" d="M-43 1233l264 295h213l139 -295h-174l-88 215l-182 -215h-172z" />
<glyph unicode="&#x2dc;" horiz-adv-x="606" d="M-49 1235q77 305 295 223q21 -8 64.5 -25t62.5 -24q51 -17 94 -23q44 -3 70.5 17.5t46.5 66.5h100q-77 -305 -295 -223q-27 10 -68 26.5t-57 22.5q-61 21 -94 23q-44 3 -70.5 -17.5t-46.5 -66.5h-102z" />
<glyph unicode="&#x2000;" horiz-adv-x="1009" />
<glyph unicode="&#x2001;" horiz-adv-x="2019" />
<glyph unicode="&#x2002;" horiz-adv-x="1009" />
<glyph unicode="&#x2003;" horiz-adv-x="2019" />
<glyph unicode="&#x2004;" horiz-adv-x="673" />
<glyph unicode="&#x2005;" horiz-adv-x="504" />
<glyph unicode="&#x2006;" horiz-adv-x="336" />
<glyph unicode="&#x2007;" horiz-adv-x="336" />
<glyph unicode="&#x2008;" horiz-adv-x="252" />
<glyph unicode="&#x2009;" horiz-adv-x="403" />
<glyph unicode="&#x200a;" horiz-adv-x="112" />
<glyph unicode="&#x2010;" horiz-adv-x="737" d="M-2 483l49 236h559l-49 -236h-559z" />
<glyph unicode="&#x2011;" horiz-adv-x="737" d="M-2 483l49 236h559l-49 -236h-559z" />
<glyph unicode="&#x2012;" horiz-adv-x="737" d="M-2 483l49 236h559l-49 -236h-559z" />
<glyph unicode="&#x2013;" horiz-adv-x="663" d="M25 485l41 189h598l-41 -189h-598z" />
<glyph unicode="&#x2014;" horiz-adv-x="1579" d="M25 485l41 189h1548l-39 -189h-1550z" />
<glyph unicode="&#x2018;" horiz-adv-x="614" d="M82 985l301 471h176l-227 -471h-250z" />
<glyph unicode="&#x2019;" horiz-adv-x="591" d="M72 985l325 471h250l-399 -471h-176z" />
<glyph unicode="&#x201a;" horiz-adv-x="534" d="M41 -190l197 436h249l-270 -436h-176z" />
<glyph unicode="&#x201c;" horiz-adv-x="1046" d="M82 985l301 471h174l-225 -471h-250zM537 985l301 471h176l-228 -471h-249z" />
<glyph unicode="&#x201d;" horiz-adv-x="1046" d="M74 985l225 471h250l-301 -471h-174zM528 985l228 471h250l-301 -471h-177z" />
<glyph unicode="&#x201e;" horiz-adv-x="933" d="M31 -190l196 436h250l-270 -436h-176zM481 -190l197 436h250l-271 -436h-176z" />
<glyph unicode="&#x2022;" horiz-adv-x="765" d="M90 797q28 129 138 221t237 92q126 0 197 -92t43 -221q-28 -130 -137.5 -222t-235.5 -92q-128 0 -199 92t-43 222z" />
<glyph unicode="&#x2026;" horiz-adv-x="1482" d="M96 0l54 250h260l-54 -250h-260zM610 0l54 250h260l-54 -250h-260zM1122 0l54 250h260l-54 -250h-260z" />
<glyph unicode="&#x202f;" horiz-adv-x="403" />
<glyph unicode="&#x2039;" horiz-adv-x="817" d="M141 524q-30 49 21 94l405 369h267l-459 -418l282 -417h-268z" />
<glyph unicode="&#x203a;" horiz-adv-x="817" d="M18 152l461 417l-282 418h266l250 -369q30 -46 -21 -94l-405 -372h-269z" />
<glyph unicode="&#x205f;" horiz-adv-x="504" />
<glyph unicode="&#x20ac;" horiz-adv-x="1124" d="M-41 520l29 137h137l39 179h-137l28 133h138q40 156 88 253t122 156q84 67 197 92.5t289 28.5q198 3 356 -35l-47 -213q-205 22 -338 17q-109 -4 -178 -19.5t-121 -62.5q-37 -33 -58 -82t-42 -135h555l-64 -133h-520l-37 -179h473l-65 -137h-438q-11 -59 -15 -96t0.5 -71 t20.5 -58q18 -28 45.5 -45t71 -25t68 -10t79.5 -4q161 -3 346 16l-43 -207q-169 -42 -371 -36q-179 2 -281 25t-157 89q-50 60 -56 166.5t23 255.5h-137z" />
<glyph unicode="&#x2122;" horiz-adv-x="1431" d="M25 1366v113h518v-113h-193v-664h-133v664h-192zM649 702v732q0 49 60 49h32h25h45q57 0 66 -53q2 -14 27 -110.5t55 -218t42 -183.5l127 512q14 53 64 53h102q60 0 60 -49v-732h-117v687l-143 -543q-7 -28 -22 -38.5t-46 -10.5h-47q-50 0 -68 67l-145 529v-691h-117z " />
<glyph unicode="&#x25fc;" horiz-adv-x="1085" d="M0 0v1085h1085v-1085h-1085z" />
<glyph unicode="&#xfb01;" horiz-adv-x="1263" d="M18 0l191 905h-176l35 170h178l22 107q21 98 55 162t85 99.5t110.5 49.5t143.5 14q90 0 200 -18l-35 -166q-199 7 -239 -25q-23 -20 -33 -47q-6 -15 -14 -53l-27 -123h422h297l-229 -1075h-271l193 905h-447l-192 -905h-269zM1001 1260l46 206h270l-45 -206h-271z" />
<glyph unicode="&#xfb02;" horiz-adv-x="1259" d="M18 2l193 903h-176l35 170h178q3 13 10.5 52.5t12 58.5t13 54.5t18.5 57t24 48.5t33 47.5t42 36.5q43 28 103.5 45.5t144 23.5t124.5 7t124 1q194 0 420 -28l-311 -1479h-271l279 1309q-106 4 -158 4q-46 0 -68.5 -0.5t-71.5 -4t-82 -13t-52 -25.5q-15 -13 -27 -40.5 t-17.5 -50.5t-12.5 -59t-9 -45h264l-37 -170h-262l-192 -903h-271z" />
</font>
</defs>
</svg>
