<?xml version="1.0" standalone="no"?>
<!DOCTYPE svg PUBLIC "-//W3C//DTD SVG 1.1//EN" "http://www.w3.org/Graphics/SVG/1.1/DTD/svg11.dtd" >
<svg xmlns="http://www.w3.org/2000/svg">
<metadata></metadata>
<defs>
<font id="standard_lifebold_italic" horiz-adv-x="1200" >
<font-face units-per-em="2048" ascent="1552" descent="-496" />
<missing-glyph horiz-adv-x="512" />
<glyph horiz-adv-x="2048" />
<glyph horiz-adv-x="2048" />
<glyph horiz-adv-x="682" />
<glyph unicode="&#xd;" horiz-adv-x="1996" />
<glyph unicode=" "  horiz-adv-x="512" />
<glyph unicode="&#x09;" horiz-adv-x="512" />
<glyph unicode="&#xa0;" horiz-adv-x="512" />
<glyph unicode="!" horiz-adv-x="698" d="M188 0l70 322h309l-69 -322h-310zM330 412l145 1067h369l-309 -1067h-205z" />
<glyph unicode="&#x22;" horiz-adv-x="618" d="M268 913l121 566h180l-120 -566h-181zM559 913l121 566h180l-121 -566h-180z" />
<glyph unicode="#" horiz-adv-x="1234" d="M61 0l230 428h-201l37 168h252l164 305h-193l35 168h248l219 410h192l-219 -410h254l219 410h193l-219 -410h196l-36 -168h-250l-164 -305h190l-34 -168h-246l-228 -428h-192l227 428h-252l-229 -428h-193zM573 596h252l164 305h-254z" />
<glyph unicode="$" horiz-adv-x="1130" d="M109 39q18 80 55 258q204 -31 317 -37q103 -5 155 0.5t93 28.5q30 15 51.5 51t22.5 74q0 37 -15.5 62t-64.5 63q-79 58 -217 151q-145 94 -184.5 174.5t-8.5 220.5q40 187 152 285t315 121l37 176h211l-35 -172q156 -6 293 -43q-5 -20 -19.5 -89t-26.5 -125t-13 -56 q-160 38 -353 41q-74 3 -117 -4.5t-71 -32.5q-30 -26 -41 -78q-3 -22 0.5 -38t21.5 -33.5t29 -25.5t49 -34q18 -12 81 -50.5t120.5 -76t89.5 -62.5q65 -51 96 -108.5t31 -119t-16 -136.5q-39 -187 -156.5 -292t-316.5 -136l-39 -184h-213l37 172q-202 6 -350 55z" />
<glyph unicode="%" horiz-adv-x="1605" d="M266 0l1194 1481h217l-1190 -1481h-221zM281 1006l30 139q39 177 142 262q100 84 233 84q73 0 118 -21t79 -63q65 -86 30 -262l-30 -139q-40 -182 -142 -265q-94 -82 -233 -82q-75 0 -121 20t-78 62q-65 85 -28 265zM481 866q15 -39 64 -39q46 0 80 39q32 37 55 140 l29 139q22 101 4 139q-15 39 -64 39q-46 0 -80 -39q-32 -38 -55 -139l-29 -139q-23 -102 -4 -140zM1032 334l29 139q39 178 141 262q51 43 104.5 63.5t129.5 20.5q74 0 118.5 -20.5t77.5 -63.5q66 -87 31 -262l-31 -139q-40 -181 -141 -264q-98 -82 -234 -82 q-74 0 -119.5 20.5t-78.5 61.5q-66 87 -27 264zM1231 195q15 -39 63 -39q46 0 80 39t56 139l28 139q22 101 4 139q-15 39 -63 39q-46 0 -80 -39q-32 -38 -55 -139l-29 -139q-22 -101 -4 -139z" />
<glyph unicode="&#x26;" horiz-adv-x="1374" d="M133 369q27 126 88.5 211t173.5 161q46 29 58 35q-32 47 -48 76.5t-29 72t-12 91.5t15 114q78 367 532 367q215 0 312 -88t59 -262q-13 -59 -27 -99.5t-38 -82.5t-61 -77t-91 -69q-21 -14 -170 -102q21 -30 65.5 -96t67.5 -99q41 78 57 195h228q0 -99 -51.5 -216 t-128.5 -220q151 -170 251 -281h-378l-74 98q-183 -112 -361 -116q-139 -4 -225 20t-141 82q-108 119 -72 285zM461 401q-17 -76 16.5 -117.5t140.5 -41.5q89 0 175 45q-148 200 -195 272q-63 -35 -94.5 -69t-42.5 -89zM667.5 1106.5q-0.5 -15.5 3 -30.5t7.5 -26.5t12.5 -27 t14 -24t16.5 -25t16 -23.5q2 -4 8 -10q27 14 66 34t49 25q116 63 131 138q15 73 -15 105t-118 32q-160 0 -186 -135q-4 -17 -4.5 -32.5z" />
<glyph unicode="'" horiz-adv-x="413" d="M309 913l121 566h180l-121 -566h-180z" />
<glyph unicode="(" horiz-adv-x="720" d="M146 258q10 155 40 297q47 223 163 482.5t280 449.5h289q-122 -166 -238 -430t-166 -502q-51 -251 -47 -508t53 -426h-287q-57 130 -77 306t-10 331z" />
<glyph unicode=")" horiz-adv-x="720" d="M43 -379q122 168 238.5 432t167.5 502q51 250 46.5 507.5t-55.5 424.5h289q56 -129 76 -304.5t9.5 -330.5t-40.5 -297t-85 -297t-150 -331t-207 -306h-289z" />
<glyph unicode="*" horiz-adv-x="1011" d="M274 954l271 121l-217 121l149 190l195 -151l41 270h219l-76 -272l258 149l70 -188l-273 -121l219 -121l-149 -190l-197 151l-39 -270h-219l76 272l-258 -149z" />
<glyph unicode="+" horiz-adv-x="1095" d="M135 381l49 235h381l80 377h236l-80 -377h377l-52 -235h-376l-80 -381h-236l80 381h-379z" />
<glyph unicode="," horiz-adv-x="546" d="M4 -190l254 520h317l-337 -520h-234z" />
<glyph unicode="-" horiz-adv-x="761" d="M203 483l51 236h565l-49 -236h-567z" />
<glyph unicode="." horiz-adv-x="559" d="M127 0l68 315h309l-68 -315h-309z" />
<glyph unicode="/" horiz-adv-x="563" d="M-82 -158l838 1639h207l-840 -1639h-205z" />
<glyph unicode="0" horiz-adv-x="1277" d="M221 614l53 254q69 320 254 478q92 77 188.5 115t229.5 38q134 0 213.5 -38t138.5 -115q118 -161 52 -478l-54 -254q-72 -331 -254 -483q-90 -76 -186 -112.5t-231 -36.5q-137 0 -218.5 36.5t-138.5 112.5q-118 156 -47 483zM545 332q21 -41 54 -57.5t83 -16.5 q52 0 92 16.5t78 57.5q71 77 111 272l59 273q40 194 4 270q-22 42 -54.5 58t-84.5 16q-53 0 -92 -16t-78 -58q-68 -76 -111 -270l-57 -273q-43 -196 -4 -272z" />
<glyph unicode="1" horiz-adv-x="858" d="M66 0l55 256h164q26 3 37 12q8 8 14 23l186 883l-235 -134l61 291l221 127q54 31 93 31h137q62 0 84.5 -25t7.5 -90q-16 -84 -229 -1083q-3 -13 4 -23q7 -9 32 -12h162l-53 -256h-741z" />
<glyph unicode="2" horiz-adv-x="1167" d="M100 94l19 92q47 215 135 352t252 238q49 30 101 59.5t79 43.5l27 14q15 9 50 28t51 28.5t44 27t42.5 30.5t32 30.5t27 35t13.5 37.5q14 66 -22.5 90t-153.5 23q-32 -1 -70.5 -4t-93.5 -10t-83 -11t-99.5 -15t-81.5 -12l55 259q240 67 450 67q270 0 369 -92.5t57 -286.5 q-27 -133 -93.5 -217t-213.5 -174q-26 -15 -270 -156q-134 -78 -180.5 -137t-63.5 -143v-4h629l-61 -287h-873q-42 0 -62.5 26t-11.5 68z" />
<glyph unicode="3" horiz-adv-x="1171" d="M78 43l55 266q303 -51 414 -51q97 0 161.5 39.5t82.5 124.5l10 51q18 79 -24.5 114.5t-162.5 35.5h-217l58 266h223q105 0 159 39.5t72 122.5l6 26q14 71 -31.5 108t-164.5 36q-58 -1 -130.5 -9t-156.5 -20.5t-110 -15.5l53 254q247 67 446 67q72 0 129.5 -5.5 t109.5 -18.5t89 -35t64.5 -54.5t40.5 -76t12.5 -102t-15.5 -130.5q-48 -221 -245 -317q72 -24 106 -72t33 -113.5t-17 -148.5q-52 -238 -197 -340t-417 -102q-95 0 -219.5 18.5t-216.5 42.5z" />
<glyph unicode="4" horiz-adv-x="1167" d="M90 485q10 48 12 56q11 54 50 96l710 801q43 51 127 51h121q153 0 125 -127l-166 -774h172l-53 -256h-172l-72 -332h-328l72 332h-504q-123 0 -94 153zM397 588h344l109 514z" />
<glyph unicode="5" horiz-adv-x="1191" d="M92 43l58 266q237 -49 399 -49q139 0 212 52t95 159l4 14q21 99 -50 141t-241 44h-237q-43 0 -64.5 26.5t-9.5 67.5l154 522q22 77 92 133q69 56 203 70q104 11 296 9t302 -17h18h2l-6 -2h2l-57 -273q3 0 3 -1t-3 -1h-529q-25 0 -35 -10q-11 -8 -16 -29l-70 -235h88 q311 0 420 -96q68 -59 85.5 -134.5t-11.5 -222.5q-53 -246 -233 -370.5t-451 -124.5q-87 0 -208.5 17.5t-211.5 43.5z" />
<glyph unicode="6" horiz-adv-x="1257" d="M236 567l59 285q45 207 105 321t163 201q149 123 422 123q106 0 209 -15.5t166 -37.5l-57 -268q-76 18 -183 33.5t-180 15.5q-131 0 -195.5 -62t-99.5 -227l-4 -14q118 24 240 24q105 -1 172.5 -15.5t106 -40t69.5 -69.5q76 -105 28 -325q-52 -250 -208 -379 q-87 -71 -180.5 -103t-225.5 -32q-133 0 -218 29.5t-144 103.5q-111 137 -45 452zM545 430q-3 -58 5.5 -94t29.5 -57.5t47 -29t63 -7.5q90 0 151 57t91 197q25 116 -14.5 163.5t-141.5 49.5q-77 3 -184 -19l-27 -123q-17 -79 -20 -137z" />
<glyph unicode="7" horiz-adv-x="1077" d="M74 0l833 1198h-618l61 281h899q49 0 66 -28t10 -60l-25 -121q-12 -53 -36 -86l-805 -1184h-385z" />
<glyph unicode="8" horiz-adv-x="1300" d="M172 438q55 244 268 330q-132 111 -90 311q88 418 602 418q255 0 361.5 -104.5t62.5 -313.5q-42 -200 -223 -311q181 -90 127 -330q-46 -218 -213.5 -337t-435.5 -119q-270 0 -387.5 119t-71.5 337zM522 444q-46 -211 162 -211q114 0 171.5 56.5t78.5 154.5q10 34 5 70 t-19 65t-52.5 47.5t-97.5 18.5t-104.5 -18t-74 -48.5t-45 -63.5t-24.5 -71zM670 1063q-18 -81 17.5 -129.5t133.5 -48.5t155 48t75 130q10 53 6.5 94.5t-43 66.5t-115.5 25q-58 0 -99.5 -14t-67 -41t-39 -57.5t-23.5 -73.5z" />
<glyph unicode="9" horiz-adv-x="1212" d="M156 37l57 266q207 -47 342 -47q152 0 225 61t109 228l2 12q-146 -25 -240 -22q-153 1 -225.5 29t-118.5 95q-75 108 -28 326q55 253 208 379q88 70 181.5 101.5t226.5 31.5q129 0 212.5 -29t143.5 -102q113 -136 47 -455l-61 -282q-43 -207 -103 -322t-165 -201 q-147 -124 -420 -124q-106 0 -217 16.5t-176 38.5zM602 985q-25 -118 13.5 -165t140.5 -50q79 0 186 21l25 120q17 80 20 138.5t-5.5 94.5t-29.5 57.5t-47 29.5t-63 8q-89 0 -150 -58t-90 -196z" />
<glyph unicode=":" horiz-adv-x="550" d="M125 0l68 319h305l-70 -319h-303zM289 770l67 320h306l-70 -320h-303z" />
<glyph unicode=";" horiz-adv-x="550" d="M8 -190l254 520h318l-338 -520h-234zM291 772l67 315h299l-65 -315h-301z" />
<glyph unicode="&#x3c;" horiz-adv-x="974" d="M180.5 503q7.5 38 44.5 66l570 437h360l-653 -502l440 -504h-362l-381 436q-26 29 -18.5 67z" />
<glyph unicode="=" horiz-adv-x="1095" d="M133 123l51 246h891l-53 -246h-889zM240 627l51 243h891l-54 -243h-888z" />
<glyph unicode="&#x3e;" horiz-adv-x="974" d="M43 0l655 504l-440 502h360l383 -437q25 -27 17.5 -65.5t-45.5 -67.5l-567 -436h-363z" />
<glyph unicode="?" horiz-adv-x="964" d="M246 1171l53 259q68 31 177.5 49t211.5 18q270 0 369.5 -92.5t58.5 -286.5q-6 -29 -14 -55t-14.5 -46.5t-20 -41.5t-20.5 -34.5t-26 -33t-26.5 -28.5t-32.5 -29.5t-33.5 -27.5t-40 -31t-42.5 -33q-6 -5 -32.5 -25.5t-34.5 -27t-30.5 -28t-32.5 -35t-28 -40t-28.5 -52 t-23 -61.5t-22.5 -77h-243q3 90 19.5 163.5t35.5 120t53.5 91t56.5 66t62 54.5q25 21 57.5 45.5t50 38t36.5 32t29.5 39.5t16.5 48q14 66 -22.5 90t-153.5 23q-78 -1 -191.5 -18t-174.5 -34zM256 0l70 322h309l-70 -322h-309z" />
<glyph unicode="@" horiz-adv-x="1619" d="M183.5 472q6.5 68 25.5 159q9 44 43 147q128 364 387 547q243 176 586 176q323 0 456 -151q124 -141 66 -406q-19 -94 -66 -213q-51 -134 -139 -232t-184.5 -143t-190.5 -43h-12q-97 3 -133 68q-4 8 -4 12q-116 -76 -264 -76h-2q-139 -3 -185 82q-38 66 -14 179 q7 39 35 114q1 3 18.5 47t18.5 47q54 130 96.5 195t116.5 113q90 57 215 57q119 0 178 -64l18 52h238l-262 -664q86 10 158 73t133 212q36 88 57 184q42 194 -39 291q-89 106 -344 106q-275 0 -465 -137q-199 -146 -303 -446q-29 -80 -39 -127q-48 -222 23 -338 q84 -144 344 -152h28q77 0 155 9.5t130 20t154 34.5l-56 -160q-202 -63 -426 -63q-200 0 -315.5 52.5t-179.5 153.5q-39 59 -51 137.5t-5.5 146.5zM756 -18zM809 604q-9 -38 6 -69q16 -29 84 -29q53 0 98 22l156 396q-30 30 -86 30q-25 0 -31 -2q-58 -7 -95 -47.5 t-77 -140.5q-1 -2 -12 -31t-12 -31q-27 -72 -31 -98z" />
<glyph unicode="A" horiz-adv-x="1236" d="M4 0l629 1360q30 67 76 96t116 29h224q70 0 104 -29t37 -96l49 -1360h-344l-8 362h-379l-162 -362h-342zM625 637h260l-13 555z" />
<glyph unicode="B" horiz-adv-x="1286" d="M207 270l237 1114q9 42 39 67t72 28q91 6 217 6q101 0 223 -4q241 -7 330 -109q62 -72 62 -186q0 -49 -11 -105q-46 -213 -231 -299q158 -57 158 -243q0 -54 -13 -119q-89 -421 -618 -436q-56 -3 -107 -3q-68 0 -129 5q-152 11 -206 73q-34 39 -34 113q0 43 11 98z M535 299q-2 -9 -2 -16q-1 -9 3 -15q6 -10 27 -10q34 -4 78 -4q30 0 64 2q115 3 178.5 50.5t83.5 144.5q6 31 6 56q1 55 -29 87q-44 46 -158 47h-178zM659 879h170q182 0 222 172q6 28 6 51q0 48 -25 76q-37 42 -129 47q-57 2 -94 2t-53 -2q-15 -4 -19 -8q-7 -5 -10 -19z" />
<glyph unicode="C" horiz-adv-x="1099" d="M213 614l53 252q66 320 266 477q94 76 201 114.5t254 41.5h27q185 0 344 -39l-60 -272q-147 20 -309 20h-43q-147 -6 -233 -86q-82 -76 -121 -252l-55 -262q-17 -74 -17 -131q0 -77 31 -121q55 -81 197 -84q26 -1 52 -1q139 0 310 22l-57 -266q-166 -44 -343 -44 q-22 0 -44 1q-149 1 -241.5 37t-152.5 110q-85 99 -85 272q0 94 26 211z" />
<glyph unicode="D" horiz-adv-x="1339" d="M170 96l274 1288q9 43 40.5 69t72.5 26h393q162 0 254.5 -30.5t155.5 -100.5q72 -80 90 -200q6 -38 5 -82q0 -93 -25 -210q-13 -63 -28 -131t-22 -104q-73 -341 -272 -482q-112 -80 -216 -109.5t-265 -29.5h-383q-43 0 -63 24q-14 17 -14 45q0 12 3 27zM543 295 q-1 -4 -1 -7q0 -7 3 -12q5 -4 22 -8h43h30h16q12 0 43 1.5t48 5t42.5 8.5t47 14.5t42.5 21.5q66 37 105 104.5t65 190.5l55 252q17 88 17 146q0 22 -2 39q-9 64 -52 104q-17 16 -42.5 27.5t-45.5 17.5t-57.5 9t-51.5 3h-22h-37h-49q-20 -6 -21 -8q-7 -4 -10 -18z" />
<glyph unicode="E" horiz-adv-x="1132" d="M180 144q-2 12 -2 27q0 40 12 101l199 942q18 82 44 127.5t69 79.5q69 56 203 70q88 9 247 9h76q216 -2 320 -19l-58 -273h-528q-24 0 -39 -12q-12 -12 -14 -29l-60 -276h549l-57 -266h-549l-64 -303q-3 -22 4 -29q9 -12 33 -12h529l-58 -273q-114 -18 -330 -20h-70 q-162 0 -249 10q-122 10 -172 68q-29 35 -35 78z" />
<glyph unicode="F" horiz-adv-x="1060" d="M135 0l258 1214q18 82 44 128t69 81q67 54 203 68q88 9 247 9h76q216 -2 320 -19l-58 -273h-528q-24 0 -39 -12q-10 -5 -16 -29l-58 -276h547l-55 -266h-549l-133 -625h-328z" />
<glyph unicode="G" horiz-adv-x="1253" d="M233 614l54 252q66 320 266 477q94 76 201 114.5t254 41.5h27q191 0 351 -39l-57 -272q-148 20 -317 20h-45q-148 -6 -234 -86q-82 -76 -121 -252l-55 -262q-17 -74 -17 -131q0 -77 31 -121q55 -81 197 -84q25 -2 51.5 -2t54.5 2l109 506h317l-155 -733q-92 -26 -225 -45 q-116 -16 -206 -16h-28q-149 1 -241 37t-152 110q-85 101 -85 274q0 94 25 209z" />
<glyph unicode="H" horiz-adv-x="1343" d="M156 0l315 1479h328l-123 -574h409l123 574h328l-313 -1479h-330l133 623h-410l-133 -623h-327z" />
<glyph unicode="I" horiz-adv-x="638" d="M164 0l315 1479h328l-313 -1479h-330z" />
<glyph unicode="J" horiz-adv-x="665" d="M-43 -332l53 254q58 -7 100 -7q17 0 31 1q30 0 45 12q13 13 15 31l323 1522h334l-332 -1557q-16 -81 -42 -127t-68 -80q-69 -56 -195 -69q-42 -4 -83 -4q-94 0 -181 24z" />
<glyph unicode="K" horiz-adv-x="1241" d="M145 0l316 1481h327l-137 -645l516 643h367l-580 -697l283 -782h-373l-241 698l-148 -698h-330z" />
<glyph unicode="L" horiz-adv-x="1028" d="M193 142q-2 12 -2 27q0 40 12 103l258 1207h319l-248 -1170q-4 -17 3 -28q10 -10 34 -13h475l-55 -260q-115 -18 -299 -20h-61q-141 0 -228 10q-127 10 -174 68q-28 34 -34 76z" />
<glyph unicode="M" horiz-adv-x="1693" d="M145 0l289 1358q25 127 180 127h234q61 0 97 -31.5t36 -95.5l-14 -838l342 838q26 64 75.5 95.5t110.5 31.5h234q128 0 128 -91q0 -17 -4 -36l-288 -1358h-299l254 1194l-392 -903q-28 -65 -75 -93t-117 -28h-88q-72 0 -106.5 28t-34.5 93l-7 903l-254 -1194h-301z" />
<glyph unicode="N" horiz-adv-x="1372" d="M145 0l289 1358q25 127 180 127h232q62 0 92.5 -30.5t30.5 -96.5v2l35 -1012l239 1131h301l-289 -1358q-25 -127 -178 -127h-219q-62 0 -91.5 30t-29.5 97l-41 1059l-250 -1180h-301z" />
<glyph unicode="O" horiz-adv-x="1343" d="M225 614l54 252q69 323 266 477q97 78 199 117t245 39q145 0 230 -38.5t151 -117.5q86 -103 86 -276q0 -91 -24 -201l-54 -252q-66 -323 -264 -485q-95 -75 -198 -111t-248 -36q-146 0 -233.5 36t-149.5 111q-85 103 -85 277q0 94 25 208zM553 606q-17 -83 -18 -144 q0 -76 28 -116q52 -78 166 -78q112 0 199 78q77 72 119 260l55 266q19 85 19 147q0 73 -27 111q-52 80 -166 80q-113 0 -199 -80q-77 -69 -119 -258z" />
<glyph unicode="P" horiz-adv-x="1243" d="M143 0l199 932q86 406 96 452q7 42 39 68.5t74 26.5h360q159 0 251.5 -23t156.5 -76q69 -58 93 -158q11 -46 11 -98q0 -60 -14 -127q-26 -119 -90 -216.5t-156 -157.5q-99 -63 -202 -84t-263 -21h-120l-109 -518h-326zM635 784h52q17 0 30 -1q25 0 37 1q16 1 56 3 t67.5 7.5t50.5 14.5q118 48 145 176l4 27q6 28 6 52q0 80 -67 120q-17 10 -40 16.5t-59 8.5q-37 2 -53 3q-11 1 -35 1q-11 -1 -27 -1h-50q-17 -4 -21 -8q-7 -4 -10 -18z" />
<glyph unicode="Q" horiz-adv-x="1349" d="M242 614l53 252q66 320 266 477q97 78 199 117t246 39q143 0 229 -39t151 -117q86 -103 86 -276q0 -91 -24 -201l-53 -252q-67 -320 -265 -483q-126 -103 -294 -135l-9 -39q-6 -24 2 -35q10 -12 41 -12q21 -2 54 -2q22 0 48 1q68 2 109 7l-51 -240q-61 -15 -160 -20 q-40 -3 -75 -3q-50 0 -90 5q-124 10 -173 70q-28 34 -34 78q-1 10 -1 23q0 41 13 105l14 66q-144 32 -223 131q-85 99 -85 272q0 94 26 211zM571 606q-19 -83 -19 -143q0 -74 28 -115q52 -80 165 -80t199 80q77 71 119 258l55 266q19 85 19 147q0 72 -27 111q-52 80 -166 80 q-113 0 -199 -80q-76 -68 -118 -258z" />
<glyph unicode="R" horiz-adv-x="1245" d="M121 0l198 932q66 314 97 452q9 43 40 69t72 26h346q159 0 252.5 -22.5t157.5 -72.5q108 -87 107 -241q0 -55 -13 -119q0 -1 -0.5 -3t-1.5 -6.5t-2 -8.5q-47 -231 -239 -353q-66 -37 -105 -51l195 -602h-369l-158 553h-26h-107l-116 -553h-328zM623 815q5 -1 51 -1h39h25 q18 0 54.5 2.5t63 8t49.5 13.5q59 22 96 69t50 107q5 25 5 48q0 30 -8 56q-16 46 -59 68q-18 9 -40.5 15t-56 8.5t-50.5 2.5h-23h-37h-49q-18 -4 -20 -8q-8 -3 -11 -18z" />
<glyph unicode="S" horiz-adv-x="1132" d="M109 39q18 80 55 258q179 -27 317 -37q49 -2 87 -2q41 0 68 2q52 6 93 29q30 18 51.5 53t22.5 72q0 38 -16 63.5t-64 61.5q-61 46 -217 151q-144 94 -184 175q-22 45 -23 110q0 50 14 112q46 217 190.5 314.5t418.5 97.5q195 0 364 -47q-5 -20 -19.5 -89t-26.5 -125 t-13 -56q-152 36 -353 43h-28q-54 0 -89 -6q-43 -8 -71 -33q-30 -26 -41 -78q-3 -22 0.5 -38t21 -33t30 -25.5t48.5 -32.5q15 -10 132 -84t159 -107q65 -51 96 -108t31 -118.5t-16 -137.5q-45 -219 -199.5 -325.5t-421.5 -114.5q-20 -1 -40 -1q-202 0 -377 56z" />
<glyph unicode="T" horiz-adv-x="1091" d="M270 1198l60 283h1065l-60 -283h-366l-256 -1198h-328l254 1198h-369z" />
<glyph unicode="U" horiz-adv-x="1392" d="M230 356q2 76 20 168l203 957h329l-200 -946q-14 -69 -15 -119q-1 -57 19 -89q36 -59 168 -59t193.5 59t92.5 208l201 946h330l-203 -957q-28 -128 -77 -223.5t-110 -155.5t-142 -97.5t-163.5 -51.5t-183.5 -14q-71 0 -129.5 7t-112.5 24t-94 44.5t-70 70t-44 98.5 q-13 50 -13 116q1 7 1 14z" />
<glyph unicode="V" d="M293 1479h350l23 -1117l499 1117h351l-648 -1358q-32 -67 -76 -97t-110 -30h-188q-66 0 -98 30t-36 97z" />
<glyph unicode="W" horiz-adv-x="1767" d="M268 113l80 1368h344l-114 -1127l325 842q24 62 70 87.5t123 25.5h139q76 0 110 -26t33 -87l-32 -842l383 1127h346l-523 -1368q-22 -62 -60.5 -90.5t-107.5 -28.5h-196q-64 0 -92 28t-27 91l29 878l-346 -878q-25 -63 -64.5 -91t-105.5 -28h-195q-69 0 -97 29 q-23 25 -23 72q0 9 1 18z" />
<glyph unicode="X" horiz-adv-x="1210" d="M-29 0l564 768l-207 711h379l106 -478l309 478h379l-508 -711l236 -768h-383l-135 520l-359 -520h-381z" />
<glyph unicode="Y" horiz-adv-x="1140" d="M319 1479h377l103 -523l325 523h377l-620 -899l-125 -580h-320l125 588z" />
<glyph unicode="Z" horiz-adv-x="1177" d="M104 94q11 53 27 123q9 45 33 72l792 909h-557l60 281h862q43 0 63 -25q15 -18 15 -45q0 -11 -2 -23q-13 -55 -29 -133q-8 -39 -33 -71l-780 -895h612l-61 -287h-926q-43 0 -64 26q-15 18 -15 44q0 11 3 24z" />
<glyph unicode="[" horiz-adv-x="659" d="M49 -158l344 1616q9 44 40.5 69t74.5 25h430l-53 -252h-205q-12 0 -21 -6q-7 -8 -10 -20l-266 -1247q-2 -11 2 -19q3 -4 18 -8h205l-53 -252h-430q-43 0 -64 25.5t-12 68.5z" />
<glyph unicode="\" horiz-adv-x="561" d="M152 1501h204l363 -1501h-207z" />
<glyph unicode="]" horiz-adv-x="659" d="M0 -252l53 252h207q18 6 19 8q6 4 12 19l264 1247q2 11 -2 20q-6 6 -16 6h-207l53 252h430q43 0 64 -25t12 -69l-344 -1616q-9 -43 -40.5 -68.5t-74.5 -25.5h-430z" />
<glyph unicode="^" horiz-adv-x="1075" d="M150 510l75 362l539 476q34 31 71.5 31.5t59.5 -31.5l336 -476l-76 -362l-387 547z" />
<glyph unicode="_" horiz-adv-x="1085" d="M-70 -348l33 160h1084l-33 -160h-1084z" />
<glyph unicode="`" horiz-adv-x="608" d="M326 1528h264l186 -295h-211z" />
<glyph unicode="a" horiz-adv-x="1058" d="M129 311q1 3 4.5 19.5t3.5 19.5q43 178 172.5 249t378.5 71l94 -2l15 65q4 22 4 41q0 49 -27 72q-30 24 -130 24h-30q-113 -2 -295 -22l48 221q83 23 192 36q94 11 172 11h23q201 -2 296 -94q66 -64 67 -180q0 -50 -13 -109l-156 -733h-301l12 66q-118 -80 -276 -80 q-155 0 -219 91q-44 62 -44 149q0 40 9 85zM432 336q-3 -16 -3 -30q-1 -35 21 -57q29 -28 87 -28h8q64 2 149 35l49 236q-34 2 -64 2q-107 0 -161 -25q-67 -29 -84 -119q-2 -4 -2 -14z" />
<glyph unicode="b" horiz-adv-x="1165" d="M133 0l311 1468h310l-82 -393q95 31 178 39q36 3 70 3q169 0 254 -89q58 -64 67 -162q2 -22 2 -47q0 -84 -24 -198q-1 -4 -14.5 -67t-14.5 -67q-30 -142 -79.5 -234t-125.5 -159q-123 -108 -307 -108q-149 0 -229 80q-11 -58 -13 -66h-303zM498 258q52 -37 127 -37 q101 0 151 47q43 38 65.5 87.5t47.5 158.5q1 3 7 34t7 34q20 88 20 149q0 35 -7 61q-19 70 -103 87q-23 4 -48 4q-23 1 -49 -3q-52 -8 -93 -24z" />
<glyph unicode="c" horiz-adv-x="954" d="M186 504l27 127q46 217 203 349t381 138h15q132 0 304 -33l-51 -233q-134 18 -239 18q-35 0 -66 -2q-80 -5 -150 -65.5t-94 -175.5l-31 -144q-9 -44 -8 -80q0 -62 25 -101q41 -63 141 -69q15 -1 32 -1q102 0 267 36l-49 -233q-197 -49 -324 -49h-10q-233 2 -331 128 q-62 80 -62 217q0 77 20 173z" />
<glyph unicode="d" horiz-adv-x="1161" d="M180 436q1 4 17.5 79t17.5 79q35 160 91.5 255.5t144.5 164.5q131 101 342 104q100 0 174 -16l77 366h310l-314 -1468h-301l13 66q-119 -80 -271 -80q-193 0 -271 111q-49 69 -48 183q0 69 18 156zM482 348q2 -48 28 -82q31 -45 121 -45q88 0 155 37l132 614 q-68 15 -121 15q-34 0 -62 -6q-93 -20 -139 -86.5t-78 -212.5q0 -3 -7 -38.5t-7 -37.5q-22 -103 -21 -152q-1 -3 -1 -6z" />
<glyph unicode="e" horiz-adv-x="1128" d="M197 512q0 3 9.5 47t10.5 47q29 131 87.5 230.5t138.5 160.5t174.5 91t201.5 30q124 0 208.5 -46t121.5 -116q45 -86 47 -174q0 -3 -1 -6q0 -88 -36 -254q-2 -8 -7 -32t-7 -31h-660q-5 -31 -5 -58q0 -57 23 -95q34 -56 140 -68q29 -3 64 -3q138 0 364 50l-49 -228 q-204 -71 -440 -71q-238 0 -340 128q-65 81 -66 221q0 79 21 177zM528 657h373q8 43 8 77q1 58 -23 94q-38 56 -122 57q-83 0 -146.5 -56t-89.5 -172z" />
<glyph unicode="f" horiz-adv-x="751" d="M184 0q3 10 189 887h-170l45 215h170l14 65q21 100 57 167.5t89.5 105t115.5 52.5t146 15q118 0 217 -22l-45 -209q-64 4 -111 4q-102 0 -123 -18q-22 -18 -35 -80l-16 -80h246l-45 -215h-246l-188 -887h-310z" />
<glyph unicode="g" horiz-adv-x="1157" d="M90 -348l49 233q142 -26 289 -32q29 -2 55 -2q109 0 168 34q37 21 55.5 47t28.5 76l15 66q-98 -50 -226 -54h-12q-183 0 -264 86q-58 65 -70 156q-2 22 -2 51q0 83 25 215q1 4 9 44t9 44q29 137 78.5 230.5t126.5 161.5q60 54 142 83q72 25 148 25h21q76 -3 127 -28 t96 -70q13 57 19 82h299l-236 -1110q-82 -380 -548 -383q-260 0 -402 45zM496 326q18 -62 96 -72q13 -2 27 -2q33 0 75 8q61 12 103 33l108 514q-62 43 -119 51q-19 2 -37 2q-75 0 -126 -41q-37 -31 -58.5 -81.5t-44.5 -151.5q-2 -5 -7 -30.5t-5 -29.5q-19 -86 -19 -143 q0 -34 7 -57z" />
<glyph unicode="h" horiz-adv-x="1175" d="M123 0l313 1470h309l-96 -452q151 100 314 100q73 0 127.5 -19.5t85.5 -53.5t48 -80q16 -42 16 -90q0 -4 -1 -9q-2 -53 -12 -110l-160 -756h-309l145 682q8 40 11.5 62.5t2 45t-11.5 35.5q-18 27 -44 35q-19 6 -52 7q-12 0 -25 -1q-91 -10 -180 -57l-172 -809h-309z" />
<glyph unicode="i" horiz-adv-x="561" d="M125 0l233 1102h310l-234 -1102h-309zM383 1217l53 251h309l-53 -251h-309z" />
<glyph unicode="j" horiz-adv-x="616" d="M-68 -373l52 238q54 -7 92 -7q15 0 28 1q29 0 41 12q13 13 17 27l254 1202h309l-260 -1233q-29 -133 -105 -193q-67 -54 -182 -63q-42 -5 -83 -5q-85 0 -163 21zM442 1217l54 251h309l-53 -251h-310z" />
<glyph unicode="k" horiz-adv-x="1116" d="M125 0l313 1470h310l-179 -837l412 469h356l-481 -508l262 -594h-366l-209 508l-107 -508h-311z" />
<glyph unicode="l" horiz-adv-x="575" d="M135 0l311 1468h312l-314 -1468h-309z" />
<glyph unicode="m" horiz-adv-x="1683" d="M121 0l233 1102h297l-18 -84q161 100 315 100q89 0 134 -25.5t71 -82.5q168 108 356 108q60 0 108 -18.5t85.5 -61t45.5 -112.5q3 -22 4 -47q0 -54 -13 -123l-160 -756h-311l145 680q8 40 11.5 62.5t3 45t-8.5 35.5q-13 27 -35 35q-16 6 -42 7q-10 0 -21 -1 q-62 -8 -152 -57l-172 -807h-299l144 680q15 64 15 103q0 26 -7 40q-12 27 -34 35q-16 6 -43 7q-10 0 -21 -1q-61 -8 -152 -57l-172 -807h-307z" />
<glyph unicode="n" horiz-adv-x="1175" d="M119 0l233 1100h299l-18 -82q85 50 160.5 74t167.5 24q72 0 126.5 -19.5t85 -53.5t47.5 -80q16 -42 16 -90q0 -5 -1 -9q-2 -52 -12 -108l-160 -756h-309l145 682q8 40 11.5 62t2 44.5t-11.5 36.5q-19 27 -45 35q-17 5 -42 6q-15 0 -34 -2q-79 -6 -180 -55l-172 -809h-309 z" />
<glyph unicode="o" horiz-adv-x="1128" d="M197 514q2 5 6 23t8.5 40t5.5 27q109 512 594 512q395 0 395 -341q0 -77 -20 -171q-16 -72 -19 -90q-56 -269 -205 -398.5t-393 -129.5q-242 0 -335 130q-58 81 -58 216q0 81 21 182zM488 373.5q0 -55.5 33 -89.5q34 -36 106 -36q54 0 94.5 19.5t67 58t42.5 82t29 104.5 q1 4 9.5 41.5t9.5 46.5q14 72 14 128.5t-34 91t-103 34.5q-102 0 -155 -67t-79 -187q-1 -9 -9 -46.5t-9 -41.5q-16 -83 -16 -138.5z" />
<glyph unicode="p" horiz-adv-x="1161" d="M47 -369l311 1469h299l-16 -82q76 46 142.5 70.5t144.5 27.5h18q163 0 236 -104q51 -72 51 -200q0 -86 -23 -196q-1 -4 -13 -61t-13 -61q-39 -171 -90 -264.5t-138 -157.5q-118 -86 -299 -86h-12q-128 4 -203 53l-86 -408h-309zM487 258q33 -21 89 -32q40 -9 74 -9 q14 0 28 2q82 10 125 71t74 202q0 3 9 47t9 47q14 69 19 111q4 23 4 43q0 17 -2 31q-5 32 -21 52q-31 38 -98 38q-19 0 -41 -3q-32 -4 -80 -21t-70 -30z" />
<glyph unicode="q" horiz-adv-x="1165" d="M174 227q-3 24 -3 53q0 83 24 214q1 4 13 61t13 61q29 136 77.5 229t125.5 161q129 110 285 110h16q143 -5 236 -98q12 57 18 82h299l-311 -1469h-310l86 408q-96 -49 -225 -53h-12q-182 0 -262 86q-59 64 -70 155zM490 292q18 -63 96 -73q13 -2 27 -2q34 0 77 9 q61 11 101 32l116 549q-62 43 -119 51q-21 3 -40 3q-71 0 -123 -42q-37 -30 -58.5 -80.5t-44.5 -152.5q-1 -3 -10 -47t-10 -47q-19 -86 -19 -143q0 -34 7 -57z" />
<glyph unicode="r" horiz-adv-x="790" d="M119 0l233 1102h303l-16 -80q66 50 158 76q66 19 133 19l51 -3q-6 -27 -55 -252q-22 1 -43 1q-67 0 -135 -14q-88 -19 -152 -52l-168 -797h-309z" />
<glyph unicode="s" horiz-adv-x="968" d="M102 33l48 227q161 -24 274 -31q29 -2 53 -2q57 1 91 9q50 12 65 43q7 16 7 31q0 34 -36 63q-42 35 -134 86.5t-144 91.5q-85 64 -85 173q0 35 9 75q14 65 47 123t80 96q121 100 373 100q165 0 311 -39l-49 -235q-114 23 -254 35q-50 4 -84.5 3.5t-52.5 -3.5 q-37 -8 -50 -33q-9 -17 -10 -32q0 -25 27 -46q22 -16 125 -71t168 -103q95 -67 95 -182q0 -35 -9 -74q-19 -89 -52 -144t-86 -98q-132 -110 -403 -110q-201 0 -324 47z" />
<glyph unicode="t" horiz-adv-x="790" d="M223 889l45 213h158l45 215l320 53l-58 -268h223l-45 -213h-223l-119 -565q-11 -55 -12 -75q0 -7 2 -9q5 -12 12 -17t27 -8q33 -2 66 -2q59 0 118 6l-45 -211q-93 -23 -200 -23q-16 0 -33 1q-166 0 -226 65q-39 42 -40 124q0 45 12 101l131 613h-158z" />
<glyph unicode="u" horiz-adv-x="1181" d="M178 200q-2 19 -3 38q0 46 13 96l162 768h309l-149 -705q-9 -38 -9 -67q0 -35 13 -56q26 -47 115 -47q90 0 182 52l174 823h309l-233 -1102h-303l14 66q-126 -79 -293 -82h-24q-91 0 -153 28t-89 76t-35 112z" />
<glyph unicode="v" horiz-adv-x="1042" d="M223 1102h330l37 -795l377 795h327l-506 -985q-38 -74 -72 -97.5t-122 -23.5h-139q-89 0 -113.5 24t-30.5 97z" />
<glyph unicode="w" horiz-adv-x="1636" d="M260 1102h324l-23 -817l270 706q19 51 59 81t97 30h137q56 0 84 -30q26 -28 25 -74v-7l-23 -706l314 817h321l-426 -993q-24 -58 -61.5 -86.5t-97.5 -28.5h-185q-102 0 -102 106v6l20 695l-270 -695q-45 -112 -150 -112h-186q-58 0 -83.5 28.5t-27.5 86.5z" />
<glyph unicode="x" horiz-adv-x="1030" d="M-8 0l420 571l-154 531h332l84 -361l235 361h332l-379 -531l176 -571h-331l-109 391l-274 -391h-332z" />
<glyph unicode="y" horiz-adv-x="1099" d="M57 -377l52 242q59 -10 141 -10l2 2q43 2 71 9t46 28q27 27 27 76q0 16 -3 34l-188 1098h360l72 -723l344 721h348l-690 -1258q-34 -60 -67 -98t-80 -70q-79 -54 -189 -63q-28 -3 -63 -3q-76 0 -183 15z" />
<glyph unicode="z" horiz-adv-x="956" d="M84 92q8 39 14 76q10 46 45 86l555 629h-397l47 219h684q46 0 66 -26q13 -17 13 -46q0 -14 -3 -31q-8 -39 -12 -51q-5 -37 -35 -71l-600 -654h483l-47 -223h-731q-46 0 -68 25q-16 18 -17 44q0 11 3 23z" />
<glyph unicode="{" horiz-adv-x="612" d="M20 514l54 256q29 0 57 3.5t41 6.5l14 4q23 6 35 10t28 13.5t25.5 24.5t14.5 38l90 426q23 105 83.5 167t151.5 77q14 2 37.5 5t97.5 7.5t134 -0.5q-34 -153 -54 -241q-77 -3 -112 -15q-25 -9 -36 -22.5t-17 -40.5l-68 -322l-2 2q-23 -111 -87 -175.5t-173 -96.5 q95 -30 132 -94.5t13 -175.5l-67 -320q-7 -27 -1.5 -41.5t27.5 -21.5q36 -15 109 -15q-47 -222 -51 -241q-75 -3 -133.5 -0.5t-94.5 7.5l-35 5q-86 14 -121 76.5t-12 167.5l90 426q3 13 3 24t-2 18.5t-7.5 14t-10.5 10.5t-14 8t-15.5 6t-18.5 5q-42 14 -105 14z" />
<glyph unicode="|" horiz-adv-x="358" d="M-25 -506l435 2038h190l-432 -2038h-193z" />
<glyph unicode="}" horiz-adv-x="610" d="M4 -268q7 29 22 99t31 142q78 3 113 15q26 7 37 21t16 42l70 320q23 111 87 175.5t173 94.5q-95 32 -132 96.5t-13 175.5v-2l67 322q7 26 1.5 40t-27.5 23q-36 15 -109 15q41 190 51 241q75 3 133 0.5t94 -7.5l35 -5q86 -15 121 -77.5t12 -166.5l-90 -426q-3 -13 -3 -24 t2 -18.5t7.5 -14t10.5 -10.5t15 -8t16 -6t18 -5q41 -14 104 -14l-53 -256q-29 0 -57.5 -3.5t-41.5 -6.5l-14 -4q-23 -6 -35 -10t-27.5 -13.5t-25 -24.5t-14.5 -38l-90 -426q-23 -105 -84 -167.5t-152 -76.5q-14 -2 -37.5 -5t-96.5 -7.5t-134 0.5z" />
<glyph unicode="~" horiz-adv-x="940" d="M141 268l45 207q126 44 195 51q112 9 272 -53q51 -17 111 -20q93 -7 219 55l-43 -207q-97 -38 -201 -41q-121 -5 -272 51q-48 15 -90 19q-67 6 -220 -55q-11 -5 -16 -7z" />
<glyph unicode="&#xa1;" horiz-adv-x="878" d="M258 0l307 1069h207l-147 -1069h-367zM532 1157l70 322h309l-67 -322h-312z" />
<glyph unicode="&#xa2;" horiz-adv-x="1015" d="M203 504l26 127q46 217 203 349t379 138q37 0 131 -4l86 150h156l-94 -164q85 -14 92 -15l-52 -233q-61 8 -174 14l-354 -622q35 -9 57 -11q66 -4 169.5 7t179.5 28l-50 -233q-208 -52 -385 -49q-65 0 -114 8l-72 -127h-160l101 174q-199 116 -125 463zM502 342l301 528 q-21 0 -29 -2q-80 -5 -149 -65.5t-93 -175.5l-30 -144q-18 -85 0 -141z" />
<glyph unicode="&#xa3;" horiz-adv-x="1161" d="M147 96q0 2 6.5 33t6.5 33q9 42 18 58.5t31 35.5q47 39 83.5 85t43.5 77l43 207h-137l57 266h137l33 160q50 235 190.5 341.5t415.5 106.5q71 0 169 -12t163 -31l-57 -270q-133 22 -338 22q-101 0 -147 -31.5t-66 -123.5l-35 -162h377l-58 -266h-376l-39 -187 q-15 -71 -86 -151h581l-61 -287h-881q-44 0 -64 25t-10 71z" />
<glyph unicode="&#xa4;" horiz-adv-x="966" d="M203 504l26 127q46 217 203 349t379 138q142 2 319 -33l-49 -233q-183 24 -307 16q-50 -2 -97 -26.5t-87.5 -80t-57.5 -134.5l-30 -144q-26 -118 15 -181t142 -69q107 -7 299 35l-51 -233q-204 -51 -334 -49q-479 3 -370 518zM453 1528h237l88 -164l158 164h235 l-305 -295h-233z" />
<glyph unicode="&#xa5;" horiz-adv-x="944" d="M72 197l47 225h280l35 160h-282l49 223h176l-184 676h378l103 -525l323 525h379l-467 -676h181l-48 -223h-288v-2l-33 -158h287l-47 -225h-289l-41 -197h-322l43 197h-280z" />
<glyph unicode="&#xa6;" horiz-adv-x="423" d="M39 -381l164 772h180l-164 -772h-180zM270 707l164 772h180l-163 -772h-181z" />
<glyph unicode="&#xa7;" horiz-adv-x="1132" d="M172 20q12 54 45 218q201 -32 272 -35q83 -3 123.5 -0.5t73.5 14.5q24 9 38.5 34t12.5 48q-2 22 -13 33.5t-54 34.5q-5 2 -74 33t-102 49q-119 65 -163 128.5t-24 157.5q19 91 59 148t113 88q-69 43 -82.5 102t9.5 144q32 149 156.5 214.5t369.5 65.5q166 0 325 -31 l-47 -219q-18 2 -88 12.5t-118 16t-89 6.5q-66 0 -99.5 -4t-55.5 -18q-28 -19 -31 -50q-4 -6 -0.5 -13t2.5 -10.5t6.5 -9t9.5 -7.5t13 -7t16.5 -7t19.5 -7.5t23 -9.5q22 -9 77.5 -30t94.5 -38t78 -39q61 -35 90.5 -79.5t30 -90t-9.5 -98.5q-33 -158 -191 -234 q57 -34 81.5 -73.5t22 -81t-11.5 -92.5q-32 -149 -164 -222t-370 -79q-214 -3 -375 38zM602 750q-4 -31 14.5 -49.5t71.5 -43.5q2 -2 10 -6q68 3 113 23q27 11 44.5 34.5t16.5 49.5q-2 26 -16.5 43t-60.5 43q-108 3 -156 -29q-29 -23 -37 -65z" />
<glyph unicode="&#xa8;" horiz-adv-x="618" d="M244 1233l49 227h252l-47 -227h-254zM651 1233l47 227h252l-47 -227h-252z" />
<glyph unicode="&#xa9;" horiz-adv-x="1720" d="M251.5 498.5q-11.5 112.5 12.5 238.5q33 154 122.5 294.5t212 242.5t275 162.5t306.5 60.5q123 0 231 -39t185.5 -108t129 -164.5t63 -209t-12.5 -239.5q-43 -205 -181.5 -378.5t-334.5 -274t-402 -100.5q-123 0 -230.5 38t-184.5 106.5t-128.5 163t-63 207zM379 538.5 q10 -93.5 53 -172t107.5 -135.5t154 -88.5t191.5 -31.5q171 0 334 83.5t278.5 227.5t151.5 315q20 105 10.5 199t-53 173.5t-108 137.5t-154 90.5t-191.5 32.5q-127 0 -254.5 -50.5t-230 -135.5t-177.5 -202.5t-102 -244.5q-20 -105 -10 -198.5zM647 674l33 155 q45 197 164 293q59 47 125 71.5t155 25.5q126 0 228 -25l-35 -168q-101 15 -217 12q-90 -3 -144 -51q-51 -46 -75 -156l-33 -161q-24 -110 8 -156q32 -48 121 -51q115 -3 223 12l-35 -164q-109 -29 -239 -26q-91 1 -147.5 23.5t-94.5 66.5q-80 98 -37 299z" />
<glyph unicode="&#xaa;" horiz-adv-x="718" d="M276 985q0 11 7 25q25 112 107.5 157t240.5 45h61l8 41q11 50 -14 72q-21 16 -100 16q-40 -1 -189 -14l29 139q115 31 248 31q129 -2 189.5 -60.5t33.5 -183.5l-100 -467h-191l8 41q-73 -51 -176 -51q-100 1 -141 59.5t-21 149.5zM469 999q-7 -36 12 -54.5t60 -16.5 q39 0 94 22l33 150q-103 3 -144 -15q-43 -19 -55 -75v-11z" />
<glyph unicode="&#xab;" horiz-adv-x="1480" d="M238 506q-45 67 28 131l416 377h346l-491 -445l305 -444h-348zM840 506q-45 66 26 131l418 377h346l-491 -445l303 -444h-348z" />
<glyph unicode="&#xac;" horiz-adv-x="1961" d="M51 346l168 789l1419 -400z" />
<glyph unicode="&#xad;" horiz-adv-x="761" d="M203 483l51 236h565l-49 -236h-567z" />
<glyph unicode="&#xae;" horiz-adv-x="1720" d="M257.5 498.5q-11.5 112.5 12.5 238.5q32 154 121.5 294.5t212 242.5t275.5 162.5t307 60.5q123 0 231 -39t185.5 -108t129 -164.5t63 -209t-12.5 -239.5q-43 -205 -181.5 -378.5t-334.5 -274t-402 -100.5q-123 0 -230.5 38t-184.5 106.5t-128.5 163t-63 207zM381 538.5 q10 -93.5 53 -172t107.5 -135.5t154 -88.5t191.5 -31.5q170 0 333 83t279 227.5t152 315.5q20 105 10 199t-53 173.5t-107.5 137.5t-154 90.5t-191.5 32.5q-171 0 -334 -85.5t-278.5 -231.5t-151.5 -316q-20 -105 -10 -198.5zM618 295l123 573q12 56 26.5 123.5t23 108.5 t10.5 47q13 59 69 59h213q98 0 155.5 -14t96.5 -45q43 -34 59 -91t1 -130q-1 -1 -1.5 -3t-1 -5t-1.5 -5q-27 -140 -148 -215q-23 -16 -63 -32l118 -371h-225l-98 340h-17h-65l-72 -340h-203zM928 797q5 0 32 -0.5t39.5 0t34 1.5t38 4.5t30.5 8.5q72 25 90 109q17 78 -39 104 q-11 6 -24.5 9.5t-34.5 5t-31 2t-38 0t-30 -0.5q-8 0 -12 -4t-6 -10z" />
<glyph unicode="&#xaf;" horiz-adv-x="659" d="M254 1233l49 229h688l-49 -229h-688z" />
<glyph unicode="&#xb0;" horiz-adv-x="864" d="M340 1112q29 138 144 233t253 95t212.5 -95t45.5 -233t-144 -233t-253 -95t-213.5 95t-44.5 233zM492 1112q-17 -73 23.5 -124.5t115.5 -51.5q74 0 136 51.5t77 124.5q17 73 -23.5 124.5t-115.5 51.5q-74 0 -136 -51.5t-77 -124.5z" />
<glyph unicode="&#xb1;" horiz-adv-x="978" d="M49 2l47 217h883l-47 -217h-883zM166 547l47 219h324l49 227h235l-49 -227h322l-47 -219h-320l-53 -248h-236l54 248h-326z" />
<glyph unicode="&#xb2;" horiz-adv-x="616" d="M184 731l11 49q25 116 75 191t142 133q61 32 112 61q89 50 111 71q20 19 24 38q5 29 -8.5 38.5t-68.5 10.5h-11q-44 -2 -233 -27l-12 -2l34 158l9 2q135 37 247 37q153 0 209 -53q55 -49 33 -160q-15 -72 -54 -120.5t-118 -96.5q-25 -15 -73 -42t-74 -42 q-68 -40 -91.5 -67.5t-31.5 -65.5h342l-37 -174h-488q-27 0 -40.5 17t-8.5 44z" />
<glyph unicode="&#xb3;" horiz-adv-x="616" d="M190 696l35 162l11 -2q11 -2 42.5 -7t51.5 -7.5t47 -6.5t48 -5.5t36 -0.5q102 0 119 76l6 29q8 38 -11 54t-83 16h-130l35 161h133q55 0 79.5 17.5t33.5 58.5l4 14q6 33 -14 50t-80 18h-6q-42 -1 -128 -13t-87 -12l-13 -2l33 156l8 2q133 37 246 37q148 0 205 -47 q68 -56 39 -189q-21 -109 -119 -168q85 -39 53 -180q-27 -134 -112 -190q-81 -58 -234 -58q-110 0 -239 35z" />
<glyph unicode="&#xb4;" horiz-adv-x="618" d="M371 1233l311 295h266l-366 -295h-211z" />
<glyph unicode="&#xb5;" d="M51 -369l314 1471h309l-150 -705q-18 -80 4 -123q26 -47 115 -47q90 0 182 52l174 823h310l-234 -1102h-303l14 66q-69 -43 -124.5 -62t-129.5 -20q-50 0 -92 20l-78 -373h-311z" />
<glyph unicode="&#xb6;" d="M297 1147q31 152 137.5 242t263.5 90h764l-47 -226h-153l-304 -1429h-245l303 1429h-119l-303 -1429h-246l209 991q-158 0 -226 87.5t-34 244.5z" />
<glyph unicode="&#xb7;" horiz-adv-x="487" d="M174 401l68 316h309l-68 -316h-309z" />
<glyph unicode="&#xb8;" horiz-adv-x="620" d="M-14 -461l22 107q11 -1 35.5 -3.5t37 -3.5t31 -2.5t34.5 -1t32 2.5q97 10 109 67q7 33 -14 50.5t-85 17.5h-104l49 225h178l-22 -111q91 0 140 -22t57.5 -60t-1.5 -90q-41 -192 -317 -192q-104 0 -182 16z" />
<glyph unicode="&#xb9;" horiz-adv-x="479" d="M172 674l33 157h10h80h10q7 0 12 5q2 0 2 4l97 452l-129 -71l39 180l127 72q32 18 55 18h72h4q35 0 51 -16q15 -18 6 -56q-3 -20 -34 -164.5t-60 -279t-29 -135.5q0 -4 2 -4q5 -5 10 -5h11h90l-35 -157h-424z" />
<glyph unicode="&#xba;" horiz-adv-x="757" d="M307 1114q3 12 12 57q69 328 379 328q309 0 240 -328q-9 -45 -12 -57q-72 -338 -381 -338q-310 0 -238 338zM494 1026.5q-1 -37.5 20.5 -60t67.5 -22.5q65 0 98.5 44t50.5 124q0 7 10 57q9 46 9.5 82t-21 58t-65.5 22q-65 0 -99 -42.5t-51 -119.5q-10 -50 -10 -57 q-9 -48 -10 -85.5z" />
<glyph unicode="&#xbb;" horiz-adv-x="1480" d="M106 125l494 444l-303 445h346l258 -377q43 -65 -29 -131l-417 -381h-349zM709 125l491 444l-303 445h348l256 -377q45 -64 -28 -131l-416 -381h-348z" />
<glyph unicode="&#xbc;" horiz-adv-x="1423" d="M143 0l1192 1481h217l-1190 -1481h-219zM170 674l35 157h10h78h10q4 0 14 5l2 4l97 452l-129 -71l39 180l125 72q35 18 57 18h72h2q38 0 51 -16q17 -17 8 -56q-7 -34 -65 -305.5t-58 -273.5v-4q5 -5 12 -5h11h88l-33 -157h-426zM829 270q5 25 7 31q6 33 28 55l385 424 q30 34 78 31h66q42 0 64 -19t13 -57v-2l-4 -14l-80 -383h93l-33 -158h-10h-84l-37 -176h-201l37 176h-264q-38 0 -52.5 26t-5.5 66zM1028 336h158l47 225z" />
<glyph unicode="&#xbd;" horiz-adv-x="1429" d="M143 0l1194 1481h217l-1189 -1481h-222zM174 674l33 157h10h78h10q4 0 14 5q1 0 3 4l96 452l-129 -71l39 180l127 72q32 18 55 18h72h4q35 0 51 -16q15 -18 6 -56q-3 -20 -34 -164.5t-60 -279t-29 -135.5v-4q5 -5 12 -5h11h90l-35 -157h-424zM877 61l10 50 q25 116 74.5 191.5t140.5 131.5q61 33 112 64q6 3 17 9q39 21 58 32t38.5 29t22.5 36q5 29 -8.5 38.5t-69.5 10.5h-10q-53 -2 -232 -26l-12 -2l33 157l8 2q138 37 250 37q150 0 209 -53q54 -49 32 -160q-15 -72 -54 -120.5t-120 -96.5q-11 -6 -147 -84q-68 -40 -91.5 -67.5 t-31.5 -65.5h342l-37 -172l-485 -2q-28 0 -41.5 17.5t-7.5 43.5z" />
<glyph unicode="&#xbe;" horiz-adv-x="1527" d="M174 696l35 162l12 -2q181 -29 223 -27q105 0 119 76l6 29q9 38 -10.5 54t-83.5 16h-129l35 161h133q57 0 81 17.5t32 58.5l4 14q6 33 -14 50t-80 18h-5q-32 -1 -72.5 -5.5t-83.5 -11t-61 -8.5l-12 -2l35 156l8 2q133 37 246 37q148 0 203 -47q68 -53 41 -189 q-23 -108 -119 -168q47 -21 58 -71.5t-5 -108.5q-30 -133 -113 -190q-79 -55 -235 -55q-122 0 -240 32zM254 0l1192 1481h217l-1190 -1481h-219zM938 270q1 0 2.5 6.5t3 14.5t2.5 10q5 31 29 55l385 424q29 33 78 33h65q43 -2 65 -21t13 -57v-2l-4 -14l-82 -383h94l-33 -158 h-10h-84l-37 -176h-200l37 176h-265q-38 0 -52.5 25.5t-6.5 66.5zM1139 336h157l47 225z" />
<glyph unicode="&#xbf;" horiz-adv-x="1052" d="M166 381q8 38 19.5 71t20.5 56t30 50t30.5 40t41.5 40.5t42.5 36t53.5 41.5q21 16 32 25q6 4 29 21.5t30.5 24t27.5 23.5t29 29t26 32.5t26.5 40.5t22.5 47t22.5 59t18.5 69h243q-3 -90 -19.5 -163.5t-35.5 -120t-53.5 -91.5t-57.5 -66.5t-63 -55.5q-25 -21 -68 -53 t-59.5 -46.5t-35 -41.5t-25.5 -60q-14 -66 23 -91t153 -22q79 1 192.5 17.5t173.5 32.5l-53 -258q-68 -31 -178.5 -49.5t-212.5 -18.5q-270 0 -369 92.5t-57 288.5zM647 1176l70 321h309l-70 -321h-309z" />
<glyph unicode="&#xc0;" horiz-adv-x="1269" d="M20 0l629 1360q30 66 76.5 95.5t116.5 29.5h223q70 0 104 -29t37 -96l49 -1360h-344l-8 362h-379l-162 -362h-342zM641 637h260l-12 555zM662 1911h264l188 -293h-211z" />
<glyph unicode="&#xc1;" horiz-adv-x="1269" d="M20 0l629 1360q30 66 76.5 95.5t116.5 29.5h223q70 0 104 -29t37 -96l49 -1360h-344l-8 362h-379l-162 -362h-342zM641 637h260l-12 555zM850 1614l311 293h264l-364 -293h-211z" />
<glyph unicode="&#xc2;" horiz-adv-x="1271" d="M20 0l629 1362q30 67 76.5 96t118.5 29h223q69 0 103.5 -29.5t35.5 -95.5l51 -1362h-346l-8 365h-379l-162 -365h-342zM627 1634l305 295h235l179 -295h-236l-88 164l-160 -164h-235zM643 637h260l-12 557z" />
<glyph unicode="&#xc3;" horiz-adv-x="1269" d="M20 0l629 1360q30 66 76.5 95.5t116.5 29.5h223q70 0 104 -29t37 -96l51 -1360h-346l-8 362h-379l-162 -362h-342zM578 1581q32 143 114 204.5t213 22.5q22 -7 57.5 -18t51.5 -15.5t38.5 -10.5t38.5 -9t33 -4q39 -1 57.5 13.5t32.5 54.5h148q-32 -143 -114.5 -204.5 t-213.5 -21.5q-13 4 -41.5 13t-38.5 12t-31 9.5t-31 8.5t-25 5.5t-26.5 5t-23.5 2.5q-39 3 -57.5 -12t-34.5 -56h-147zM641 637h260l-10 555z" />
<glyph unicode="&#xc4;" horiz-adv-x="1267" d="M20 0l629 1360q30 66 76.5 95.5t116.5 29.5h223q70 0 104 -29t37 -96l49 -1360h-344l-8 362h-379l-162 -362h-342zM641 637h260l-12 555zM657 1647l50 229h251l-49 -229h-252zM1063 1647l49 229h252l-47 -229h-254z" />
<glyph unicode="&#xc5;" horiz-adv-x="1269" d="M20 0l629 1360q30 66 76.5 95.5t116.5 29.5h223q70 0 104 -29t37 -96l49 -1360h-344l-8 362h-379l-162 -362h-342zM641 637h260l-12 555zM791 1790q20 96 100 162.5t176 66.5q97 0 149.5 -66t30.5 -163q-20 -95 -100.5 -161t-175.5 -66q-97 0 -148.5 66t-31.5 161z M897 1790q-12 -51 16 -87t80 -36q51 0 95.5 36t54.5 87q10 52 -18 87.5t-81 35.5q-51 0 -94 -35.5t-53 -87.5z" />
<glyph unicode="&#xc6;" horiz-adv-x="1710" d="M16 0l746 1354q30 66 77 95.5t117 29.5h205h6l793 2l-57 -273h-537l-68 -317h510l-55 -266h-512l-63 -299q-2 -19 4 -29q9 -12 32 -12h492l-57 -273q-112 -17 -301 -19t-291 9q-126 14 -172 70q-29 34 -35.5 77t10.5 130l19 83h-328l-189 -362h-346zM698 637h238l123 577 q2 2 2 9h-17q-18 0 -26 -6t-17 -25q-15 -26 -303 -555z" />
<glyph unicode="&#xc7;" horiz-adv-x="1161" d="M260 614l55 252q65 316 265 480q96 75 202.5 112.5t253.5 40.5q198 3 369 -39l-57 -272q-166 23 -355 20q-145 -6 -231 -86q-84 -76 -121 -250l-55 -264q-39 -174 12 -252q55 -81 197 -84q163 -5 362 21l-55 -266q-132 -37 -309 -43l-23 -97q135 0 175.5 -43.5 t23.5 -128.5q-41 -192 -318 -192q-107 0 -182 16l23 107q12 -1 35.5 -3.5t36 -3.5t31 -2.5t34 -1t30.5 2.5q99 10 111 67q7 33 -14 50.5t-84 17.5h-105l47 217q-194 22 -295 141q-127 154 -59 483z" />
<glyph unicode="&#xc8;" horiz-adv-x="1146" d="M180 149.5q-6 43.5 10 129.5l199 935q18 81 44.5 127t68.5 80q69 56 203 70q108 11 323.5 8.5t319.5 -18.5l-58 -273h-528q-24 0 -39 -12q-12 -12 -14 -29l-60 -276h549l-57 -266h-549l-64 -299q-2 -19 4 -29q9 -12 33 -12h529l-58 -273q-112 -16 -328.5 -18.5 t-318.5 8.5q-128 13 -174 70q-29 34 -35 77.5zM598 1911h266l187 -295h-211z" />
<glyph unicode="&#xc9;" horiz-adv-x="1146" d="M180 149.5q-6 43.5 10 129.5l199 935q18 81 44.5 127t68.5 80q69 56 203 70q108 11 323.5 8.5t319.5 -18.5l-58 -273h-528q-24 0 -39 -12q-12 -12 -14 -29l-60 -276h549l-57 -266h-549l-64 -299q-2 -19 4 -29q9 -12 33 -12h529l-58 -273q-112 -16 -328.5 -18.5 t-318.5 8.5q-128 13 -174 70q-29 34 -35 77.5zM788 1612l312 295h264l-365 -295h-211z" />
<glyph unicode="&#xca;" horiz-adv-x="1146" d="M180 149.5q-6 43.5 10 129.5l201 938q16 80 42 125.5t69 80.5q69 56 203 70q109 11 325 8.5t320 -18.5l-58 -273h-530q-22 0 -37 -12q-11 -8 -16 -29l-60 -278h549l-55 -266h-549l-64 -299q-5 -18 2 -29q10 -10 33 -10l531 -2l-58 -271q-111 -18 -329.5 -20.5t-319.5 8.5 q-128 13 -174 70q-29 34 -35 77.5zM563 1634l305 295h236l180 -295h-237l-89 164l-157 -164h-238z" />
<glyph unicode="&#xcb;" horiz-adv-x="1146" d="M180 149.5q-6 43.5 10 129.5l199 935q18 81 44.5 127t68.5 80q69 56 203 70q108 11 323.5 8.5t319.5 -18.5l-58 -273h-528q-24 0 -39 -12q-12 -12 -14 -29l-60 -276h549l-57 -266h-549l-64 -299q-2 -19 4 -29q9 -12 33 -12h529l-58 -273q-112 -16 -328.5 -18.5 t-318.5 8.5q-128 13 -174 70q-29 34 -35 77.5zM598 1645l47 227h252l-47 -227h-252zM1004 1645l47 227h252l-48 -227h-251z" />
<glyph unicode="&#xcc;" horiz-adv-x="655" d="M164 -4l315 1483h330l-315 -1483h-330zM352 1911h264l187 -295h-211z" />
<glyph unicode="&#xcd;" horiz-adv-x="655" d="M164 0l315 1479h330l-315 -1479h-330zM541 1614l313 293h264l-366 -293h-211z" />
<glyph unicode="&#xce;" horiz-adv-x="655" d="M164 0l315 1479h330l-315 -1479h-330zM317 1634l306 295h235l178 -295h-235l-88 162l-160 -162h-236z" />
<glyph unicode="&#xcf;" horiz-adv-x="655" d="M164 0l315 1479h328l-313 -1479h-330zM350 1645l49 227h252l-49 -227h-252zM756 1645l49 227h252l-49 -227h-252z" />
<glyph unicode="&#xd0;" horiz-adv-x="1374" d="M137 659l45 213h152q107 504 108 512q9 42 41 68.5t74 26.5h391q163 0 256 -30.5t156 -100.5q141 -159 70 -492q-11 -53 -22 -102.5t-17 -76t-11 -56.5q-73 -341 -272 -482q-112 -80 -216.5 -109.5t-264.5 -29.5h-383q-43 0 -63.5 25.5t-10.5 70.5l119 563h-152zM543 295 q-3 -14 2 -19q5 -4 22 -8q7 0 42.5 -0.5t47 0t42.5 2t48 5t42.5 8.5t47 14.5t42.5 21.5q65 37 104.5 105t65.5 190l53 252q25 121 16.5 184.5t-51.5 104.5q-17 16 -42.5 27.5t-45.5 17.5t-57.5 9t-52 3.5t-58.5 0t-49 -0.5q-2 -1 -10 -1.5t-11 -2.5q-7 -7 -10 -22l-65 -314 h241l-45 -213h-244z" />
<glyph unicode="&#xd1;" horiz-adv-x="1339" d="M131 0l289 1360q25 125 178 125h233q62 0 91.5 -30t29.5 -95l37 -1012l240 1131h301l-289 -1358q-28 -127 -180 -127h-219q-61 0 -90 30t-29 97h-2l-39 1059l-252 -1180h-299zM612 1581q32 143 114.5 204.5t213.5 22.5q22 -7 57.5 -18t51.5 -15.5t38.5 -10.5t38.5 -9 t33 -4q38 -1 57 13.5t35 54.5h146q-32 -143 -114.5 -204.5t-213.5 -21.5q-13 4 -41.5 13t-38.5 12t-31 9.5t-31 8.5t-25 5.5t-26.5 5t-23.5 2.5q-39 3 -57.5 -12t-34.5 -56h-148z" />
<glyph unicode="&#xd2;" horiz-adv-x="1361" d="M240 614l55 252q66 320 266 477q97 78 199 117t246 39t229 -39t149 -117q133 -157 64 -477l-53 -252q-70 -325 -265 -485q-97 -75 -199 -111t-247 -36q-147 0 -234 36t-151 111q-127 157 -59 485zM569 606q-38 -186 9 -260q55 -78 165 -78q114 0 201 78q78 73 117 260 l57 266q42 187 -8 258q-52 80 -166 80q-113 0 -199 -80q-79 -71 -118 -258zM705 1907h264l188 -293h-211z" />
<glyph unicode="&#xd3;" horiz-adv-x="1361" d="M240 614l55 252q66 320 266 477q97 78 199 117t246 39t229 -39t149 -117q133 -157 64 -477l-53 -252q-70 -325 -265 -485q-97 -75 -199 -111t-247 -36q-147 0 -234 36t-151 111q-127 157 -59 485zM569 606q-38 -186 9 -260q55 -78 165 -78q114 0 201 78q78 73 117 260 l57 266q42 187 -8 258q-52 80 -166 80q-113 0 -199 -80q-79 -71 -118 -258zM897 1614l311 295h265l-367 -295h-209z" />
<glyph unicode="&#xd4;" horiz-adv-x="1361" d="M240 614l55 252q66 320 266 477q97 78 199 117t246 39t229 -39t149 -117q133 -157 64 -477l-53 -252q-70 -325 -265 -485q-97 -75 -199 -111t-247 -36q-147 0 -234 36t-151 111q-127 157 -59 485zM569 606q-38 -186 9 -260q55 -78 165 -78q114 0 201 78q78 73 117 260 l57 266q42 187 -8 258q-52 80 -166 80q-113 0 -199 -80q-79 -71 -118 -258zM672 1630l303 295h235l181 -295h-238l-88 164l-158 -164h-235z" />
<glyph unicode="&#xd5;" horiz-adv-x="1361" d="M240 614l55 254q66 316 266 478q97 77 199.5 115t245.5 38t229 -38t151 -115q131 -162 62 -478l-53 -254q-71 -329 -265 -483q-96 -76 -198.5 -112.5t-247.5 -36.5q-147 0 -234 36.5t-151 112.5q-127 154 -59 483zM569 606q-38 -186 9 -260q55 -78 165 -78q114 0 201 78 q77 72 119 260l55 266q42 187 -8 261q-52 77 -166 77t-199 -77q-79 -74 -118 -261zM625 1581q32 143 114 204.5t213 22.5q17 -5 56 -17.5t51.5 -16t37 -10.5t40 -9.5t32.5 -3.5q40 -1 58.5 13.5t34.5 54.5h147q-32 -143 -114.5 -204.5t-213.5 -21.5q-16 5 -57 17.5t-53 16 t-36.5 10t-40 9t-32.5 3.5q-39 3 -57.5 -12t-32.5 -56h-147z" />
<glyph unicode="&#xd6;" horiz-adv-x="1361" d="M240 614l55 252q66 320 266 477q97 78 199 117t246 39t229 -39t149 -117q133 -157 64 -477l-53 -252q-70 -325 -265 -485q-97 -75 -199 -111t-247 -36q-147 0 -234 36t-151 111q-127 157 -59 485zM569 606q-38 -186 9 -260q55 -78 165 -78q114 0 201 78q78 73 117 260 l57 266q42 187 -8 258q-52 80 -166 80q-113 0 -199 -80q-79 -71 -118 -258zM705 1645l49 227h252l-50 -227h-251zM1110 1645l49 227h252l-47 -227h-254z" />
<glyph unicode="&#xd7;" horiz-adv-x="1095" d="M113 188l379 312l-244 309l201 166l243 -309l375 309l131 -166l-375 -309l246 -312l-203 -165l-243 311l-379 -314z" />
<glyph unicode="&#xd8;" horiz-adv-x="1357" d="M121 -72l168 217q-114 154 -49 465l53 254q69 318 266 477q98 77 200 115.5t245 38.5q169 0 276 -63l94 120h164l-160 -206q1 -1 2 -2.5t2 -2.5q130 -161 64 -477l-55 -254q-69 -327 -265 -481q-94 -76 -196 -111.5t-248 -35.5q-186 -3 -301 71l-96 -125h-164zM551 487 l524 678q-52 43 -133 43q-114 -3 -199 -80q-42 -39 -69 -101t-49 -157l-56 -266q-10 -43 -18 -117zM592 328q53 -62 149 -62q115 0 201 80q78 70 117 258l57 266q21 108 19 160z" />
<glyph unicode="&#xd9;" horiz-adv-x="1392" d="M229.5 356.5q1.5 75.5 20.5 167.5l203 957h329l-200 -946q-31 -149 4.5 -208t167.5 -59t193.5 59t92.5 208l201 946h330l-203 -957q-28 -128 -77 -223.5t-110 -155.5t-142 -97.5t-163.5 -51.5t-183.5 -14q-71 0 -129.5 7t-112.5 24t-94 44.5t-70 70t-44 98t-12.5 131z M721 1909h264l186 -293h-208z" />
<glyph unicode="&#xda;" horiz-adv-x="1392" d="M229.5 356.5q1.5 75.5 20.5 167.5l203 957h329l-200 -946q-31 -149 4.5 -208t167.5 -59t193.5 59t92.5 208l201 946h330l-203 -957q-28 -128 -77 -223.5t-110 -155.5t-142 -97.5t-163.5 -51.5t-183.5 -14q-71 0 -129.5 7t-112.5 24t-94 44.5t-70 70t-44 98t-12.5 131z M911 1616l314 295h264l-367 -295h-211z" />
<glyph unicode="&#xdb;" horiz-adv-x="1392" d="M229.5 356.5q1.5 75.5 20.5 167.5l203 957h329l-200 -946q-31 -149 4.5 -208t167.5 -59t193.5 59t92.5 208l201 946h330l-203 -957q-28 -128 -77 -223.5t-110 -155.5t-142 -97.5t-163.5 -51.5t-183.5 -14q-71 0 -129.5 7t-112.5 24t-94 44.5t-70 70t-44 98t-12.5 131z M684 1632l305 293h236l180 -293h-238l-88 162l-157 -162h-238z" />
<glyph unicode="&#xdc;" horiz-adv-x="1392" d="M229.5 356q1.5 75 20.5 166l203 957h329l-200 -944q-31 -150 4 -209.5t166 -59.5q133 0 195 60t93 209l201 944h330l-205 -957q-27 -127 -75.5 -222.5t-109.5 -155.5t-142 -97t-163.5 -51t-183.5 -14q-71 0 -129.5 7t-112.5 24t-94 44.5t-70 70t-44 98t-12.5 130.5z M719 1645l47 227h252l-47 -227h-252zM1124 1645l47 227h254l-49 -227h-252z" />
<glyph unicode="&#xdd;" horiz-adv-x="655" d="M164 0l315 1477h328l-313 -1477h-330zM512 1630l55 266h330l-57 -266h-328z" />
<glyph unicode="&#xde;" horiz-adv-x="1132" d="M109 39q18 80 55 258q179 -27 317 -37q103 -5 155 0.5t93 28.5q30 18 51.5 53t22.5 72q0 38 -16 63.5t-64 61.5q-61 46 -217 151q-145 94 -184.5 175t-8.5 222q46 217 190.5 314.5t418.5 97.5q195 0 364 -47q-5 -20 -19.5 -89t-26.5 -125t-13 -56q-152 36 -353 43 q-74 2 -117 -6t-71 -33q-30 -26 -41 -78q-3 -22 0.5 -38t21 -33t30 -25.5t48.5 -32.5q15 -10 132 -84t159 -107q65 -51 96 -108t31 -118.5t-16 -137.5q-44 -207 -183.5 -314t-379.5 -124l-23 -99q135 0 175.5 -43.5t23.5 -128.5q-41 -192 -318 -192q-107 0 -182 16l23 107 q11 -1 35.5 -3.5t36.5 -3.5t31 -2.5t34.5 -1t30.5 2.5q99 10 110 67q7 33 -14 50.5t-84 17.5h-105l45 213q-169 12 -294 53z" />
<glyph unicode="&#xdf;" horiz-adv-x="1314" d="M152 0q25 123 114 543t111 524q31 149 78 228t139 132q137 81 405 72q241 -9 331 -111t50 -288q-46 -213 -231 -301q208 -71 145 -361q-90 -423 -618 -438h-84l57 272h53q124 0 185 42.5t84 154.5q43 190 -187 190q-41 0 -52 23.5t-1 73.5l10 47q9 48 31.5 71t63.5 23 q87 0 144 43t75 129q18 85 -19 126t-129 46q-84 5 -133.5 -26.5t-68.5 -120.5l-232 -1094h-321z" />
<glyph unicode="&#xe0;" horiz-adv-x="1101" d="M147 311q0 3 4 19.5t5 19.5q41 178 171 249t378 71l94 -2l14 65q17 80 -22 113q-34 28 -160 24q-113 -2 -295 -22l47 221q84 23 193.5 36t193.5 11q202 -2 297 -94t53 -289l-155 -733h-301l14 66q-118 -80 -279 -80q-156 0 -219.5 91.5t-32.5 233.5zM449 336 q-10 -58 20 -87.5t94 -27.5q63 2 148 35l49 236q-157 9 -223 -23q-33 -15 -54 -41.5t-32 -77.5q0 -2 -1 -7t-1 -7zM571 1528h265l188 -295h-211z" />
<glyph unicode="&#xe1;" horiz-adv-x="1101" d="M147 311q0 3 4 19.5t5 19.5q41 178 171 249t378 71l94 -2l14 65q17 80 -22 113q-34 28 -160 24q-113 -2 -295 -22l47 221q84 23 193.5 36t193.5 11q202 -2 297 -94t53 -289l-155 -733h-301l14 66q-118 -80 -279 -80q-156 0 -219.5 91.5t-32.5 233.5zM449 336 q-10 -58 20 -87.5t94 -27.5q63 2 148 35l49 236q-157 9 -223 -23q-33 -15 -54 -41.5t-32 -77.5q0 -2 -1 -7t-1 -7zM614 1233l314 295h264l-367 -295h-211z" />
<glyph unicode="&#xe2;" horiz-adv-x="1101" d="M147 311q0 3 4 19.5t5 19.5q41 178 171 249t378 71l94 -2l14 65q17 80 -22 113q-34 28 -160 24q-113 -2 -295 -22l47 221q84 23 193.5 36t193.5 11q202 -2 297 -94t53 -289l-155 -733h-301l14 66q-118 -80 -279 -80q-156 0 -219.5 91.5t-32.5 233.5zM449 336 q-10 -58 20 -87.5t94 -27.5q63 2 148 35l49 236q-157 9 -223 -23q-33 -15 -54 -41.5t-32 -77.5q0 -2 -1 -7t-1 -7zM457 1233l305 295h235l181 -295h-238l-88 164l-158 -164h-237z" />
<glyph unicode="&#xe3;" horiz-adv-x="1101" d="M147 311q0 3 4 19.5t5 19.5q41 178 171 249t378 71l94 -2l14 65q17 80 -22 113q-34 28 -160 24q-113 -2 -295 -22l47 221q84 23 193.5 36t193.5 11q202 -2 297 -94t53 -289l-155 -733h-301l14 66q-118 -80 -279 -80q-156 0 -219.5 91.5t-32.5 233.5zM449 336 q-10 -58 20 -87.5t94 -27.5q63 2 148 35l49 236q-157 9 -223 -23q-33 -15 -54 -41.5t-32 -77.5q0 -2 -1 -7t-1 -7zM461 1233q32 144 114 205t213 22q72 -22 95.5 -29.5t59.5 -15.5t63 -10q39 -3 57.5 12t34.5 56h147q-32 -143 -114 -205t-213 -23q-18 5 -57.5 17.5t-52.5 16 t-37.5 10t-40 8.5t-32.5 3q-39 3 -57.5 -11.5t-32.5 -55.5h-147z" />
<glyph unicode="&#xe4;" horiz-adv-x="1101" d="M147 311q0 3 4 19.5t5 19.5q41 178 171 249t378 71l94 -2l14 65q17 80 -22 113q-34 28 -160 24q-113 -2 -295 -22l47 221q84 23 193.5 36t193.5 11q202 -2 297 -94t53 -289l-155 -733h-301l14 66q-118 -80 -279 -80q-156 0 -219.5 91.5t-32.5 233.5zM449 336 q-10 -58 20 -87.5t94 -27.5q63 2 148 35l49 236q-157 9 -223 -23q-33 -15 -54 -41.5t-32 -77.5q0 -2 -1 -7t-1 -7zM487 1233l48 227h253l-49 -227h-252zM893 1233l47 227h254l-49 -227h-252z" />
<glyph unicode="&#xe5;" horiz-adv-x="1101" d="M147 311q0 3 4 19.5t5 19.5q41 178 171 249t378 71l94 -2l14 65q17 80 -22 113q-34 28 -160 24q-113 -2 -295 -22l47 221q84 23 193.5 36t193.5 11q202 -2 297 -94t53 -289l-155 -733h-301l14 66q-118 -80 -279 -80q-156 0 -219.5 91.5t-32.5 233.5zM449 336 q-10 -58 20 -87.5t94 -27.5q63 2 148 35l49 236q-157 9 -223 -23q-33 -15 -54 -41.5t-32 -77.5q0 -2 -1 -7t-1 -7zM625 1407q20 95 100.5 161t175.5 66q97 0 148.5 -66t31.5 -161q-20 -96 -100 -162.5t-176 -66.5q-95 0 -147.5 66t-32.5 163zM731 1407q-12 -52 15.5 -87.5 t80.5 -35.5q51 0 94.5 35.5t53.5 87.5q12 51 -16 87t-80 36q-51 0 -94 -36t-54 -87z" />
<glyph unicode="&#xe6;" horiz-adv-x="1722" d="M156 311q1 2 5 19.5t5 19.5q42 178 170.5 249t378.5 71l92 -2l6 18l10 47q17 80 -22 113q-34 28 -160 24q-113 -2 -295 -22l47 221q83 23 192 36t195 11q198 0 287 -86q143 88 328 88q123 0 207.5 -46t121.5 -116q45 -85 46.5 -173.5t-37.5 -260.5q-1 -7 -15 -63h-657 q-16 -97 17 -153.5t139 -67.5q149 -16 428 47l-48 -228q-204 -71 -442 -71q-216 0 -317 104q-33 -21 -67 -38t-59 -28t-59 -18.5t-51.5 -11.5t-53 -6t-46 -2.5t-48.5 0t-44 0.5q-156 0 -219.5 91t-34.5 234zM459 336q-12 -58 18 -87.5t94 -27.5q79 3 185 49q-12 95 12 222 q-162 7 -223 -23q-67 -31 -84 -119q0 -2 -1 -7t-1 -7zM1104 657h373q22 115 -16 171.5t-122 56.5t-146 -56t-89 -172z" />
<glyph unicode="&#xe7;" horiz-adv-x="966" d="M203 504l26 127q46 217 203 349t379 138q142 2 319 -33l-49 -233q-183 24 -307 16q-50 -2 -97 -26.5t-87.5 -80t-57.5 -134.5l-30 -144q-26 -118 15 -181t142 -69q107 -7 299 35l-51 -233q-173 -40 -254 -47l-20 -101q91 0 140 -22t57.5 -60t-1.5 -90q-41 -192 -317 -192 q-104 0 -182 16l22 107q11 -1 35.5 -3.5t37 -3.5t31 -2.5t34.5 -1t32 2.5q97 10 109 67q7 33 -14 50.5t-85 17.5h-104l47 219q-370 56 -272 512z" />
<glyph unicode="&#xe8;" horiz-adv-x="1159" d="M191.5 272.5q-11.5 99.5 15.5 239.5q1 3 10.5 47t9.5 47q28 131 87.5 230.5t140 160.5t175 91t201.5 30q123 0 207 -45.5t123 -116.5q45 -85 46 -173.5t-38 -260.5q-2 -16 -14 -63h-657q-16 -98 16.5 -154t138.5 -67q149 -16 428 47l-47 -228q-204 -71 -442 -71 q-116 0 -199 29.5t-136.5 93.5t-65 163.5zM541 657h372q22 116 -15.5 172t-123.5 56q-83 0 -145.5 -56t-87.5 -172zM600 1528h264l189 -295h-211z" />
<glyph unicode="&#xe9;" horiz-adv-x="1126" d="M197 512q0 3 9.5 47t10.5 47q28 131 87.5 230.5t140 160.5t175 91t201.5 30q123 0 207 -46t121 -116q45 -85 46.5 -173.5t-36.5 -260.5q-2 -8 -7 -32t-7 -31h-660q-16 -97 18 -153.5t140 -67.5q145 -16 428 47l-49 -228q-201 -71 -440 -71q-237 0 -340 128t-45 398z M528 657h373q22 116 -15 172t-122 56q-83 0 -146.5 -56t-89.5 -172zM633 1233l311 295h266l-366 -295h-211z" />
<glyph unicode="&#xea;" horiz-adv-x="1159" d="M191.5 272.5q-11.5 99.5 15.5 239.5q1 3 10.5 47t9.5 47q28 131 87.5 230.5t140 160.5t175 91t201.5 30q123 0 207 -45.5t123 -116.5q45 -85 46 -173.5t-38 -260.5q-2 -16 -14 -63h-657q-16 -98 16.5 -154t138.5 -67q149 -16 428 47l-47 -228q-204 -71 -442 -71 q-116 0 -199 29.5t-136.5 93.5t-65 163.5zM487 1233l304 295h235l180 -295h-237l-88 164l-158 -164h-236zM541 657h372q22 116 -15.5 172t-123.5 56q-83 0 -145.5 -56t-87.5 -172z" />
<glyph unicode="&#xeb;" horiz-adv-x="1159" d="M191.5 272.5q-11.5 99.5 15.5 239.5q1 3 10.5 47t9.5 47q28 131 87.5 230.5t140 160.5t175 91t201.5 30q123 0 207 -45.5t123 -116.5q45 -85 46 -173.5t-38 -260.5q-2 -16 -14 -63h-657q-16 -98 16.5 -154t138.5 -67q148 -17 428 47l-47 -228q-204 -71 -442 -71 q-116 0 -199 29.5t-136.5 93.5t-65 163.5zM516 1233l49 227h252l-49 -227h-252zM541 657h372q22 116 -15.5 172t-123.5 56q-83 0 -145.5 -56t-87.5 -172zM922 1233l49 227h252l-49 -227h-252z" />
<glyph unicode="&#xec;" horiz-adv-x="591" d="M141 0l234 1102h309l-233 -1102h-310zM328 1528h266l186 -295h-211z" />
<glyph unicode="&#xed;" horiz-adv-x="589" d="M141 0l234 1102h309l-233 -1102h-310zM336 1233l313 295h264l-366 -295h-211z" />
<glyph unicode="&#xee;" horiz-adv-x="593" d="M143 0l234 1102h309l-233 -1102h-310zM203 1233l305 295h233l181 -295h-238l-88 164l-158 -164h-235z" />
<glyph unicode="&#xef;" horiz-adv-x="591" d="M143 0l234 1102h309l-233 -1102h-310zM231 1233l50 229h251l-49 -229h-252zM637 1233l49 229h252l-49 -229h-252z" />
<glyph unicode="&#xf0;" horiz-adv-x="1181" d="M188 438q0 5 15 76t18 82q36 159 93.5 255t144.5 163q129 103 342 106q112 0 164 -63l3.5 17.5l2 10t1 5.5l1 6t2.5 10q9 38 11.5 54t1 46.5t-14.5 57.5l-86 -80l-99 104l97 88q-46 52 -88 92l247 218q41 -31 86 -82l97 88l96 -105l-98 -90q8 -8 16 -20q28 -42 43 -78.5 t22 -65t2.5 -76t-10.5 -80.5t-22 -110q-49 -233 -227 -1065h-304l15 64q-119 -80 -273 -80q-192 0 -270.5 111t-28.5 341zM489.5 349q1.5 -48 26.5 -83q31 -45 123 -45q84 0 156 37l131 616q-114 23 -183 7q-93 -20 -140 -86.5t-77 -210.5q-1 -3 -8 -39t-8 -39 q-22 -109 -20.5 -157z" />
<glyph unicode="&#xf1;" horiz-adv-x="1193" d="M129 0l233 1102h300l-19 -84q84 50 159.5 74t166.5 24q73 0 127.5 -19.5t85.5 -53t48 -79.5t15.5 -98.5t-12.5 -109.5l-160 -756h-309l145 682q8 40 11.5 62t2 44.5t-11.5 36.5q-19 27 -44.5 35.5t-75.5 3.5q-80 -6 -181 -55l-172 -809h-309zM506 1233q32 144 114.5 205 t213.5 22q170 -52 219 -55q39 -3 57.5 12t32.5 56h147q-32 -143 -114 -205t-213 -23q-14 4 -48 15t-44.5 14t-34 9.5t-34.5 9t-27 5t-30 2.5q-39 3 -58 -11.5t-34 -55.5h-147z" />
<glyph unicode="&#xf2;" horiz-adv-x="1153" d="M205 514q2 7 10.5 46t9.5 44q109 514 594 514q484 0 375 -514q-9 -36 -18 -90q-111 -528 -598 -528q-241 0 -335.5 130t-37.5 398zM495.5 378.5q-1.5 -58.5 32.5 -94.5t105 -36q55 0 96 19.5t67.5 58t42.5 82t29 104.5q5 33 19 90q14 71 14 127.5t-34 91.5t-103 35 q-53 0 -93.5 -19.5t-67.5 -56.5t-43.5 -79t-29.5 -99q-1 -9 -9 -46.5t-9 -43.5q-15 -75 -16.5 -133.5zM596 1528h266l187 -295h-211z" />
<glyph unicode="&#xf3;" horiz-adv-x="1153" d="M205 514q2 7 10.5 46t9.5 44q109 514 594 514q484 0 375 -514q-9 -36 -18 -90q-111 -528 -598 -528q-241 0 -335.5 130t-37.5 398zM495.5 378.5q-1.5 -58.5 32.5 -94.5t105 -36q55 0 96 19.5t67.5 58t42.5 82t29 104.5q5 33 19 90q14 71 14 127.5t-34 91.5t-103 35 q-53 0 -93.5 -19.5t-67.5 -56.5t-43.5 -79t-29.5 -99q-1 -9 -9 -46.5t-9 -43.5q-15 -75 -16.5 -133.5zM641 1233l311 295h265l-365 -295h-211z" />
<glyph unicode="&#xf4;" horiz-adv-x="1153" d="M205 514q2 7 10.5 46t9.5 44q109 514 594 514q484 0 375 -514q-9 -36 -18 -90q-111 -528 -598 -528q-241 0 -335.5 130t-37.5 398zM483 1233l305 295h234l180 -295h-237l-88 164l-158 -164h-236zM495.5 378.5q-1.5 -58.5 32.5 -94.5t105 -36q55 0 96 19.5t67.5 58 t42.5 82t29 104.5q5 33 19 90q14 71 14 127.5t-34 91.5t-103 35q-53 0 -93.5 -19.5t-67.5 -56.5t-43.5 -79t-29.5 -99q-1 -9 -9 -46.5t-9 -43.5q-15 -75 -16.5 -133.5z" />
<glyph unicode="&#xf5;" horiz-adv-x="1153" d="M205 514q2 7 10.5 46t9.5 44q109 514 594 514q484 0 375 -514q-9 -36 -18 -90q-111 -528 -598 -528q-241 0 -335.5 130t-37.5 398zM485 1233q32 144 114.5 205t213.5 22q170 -52 219 -55q39 -3 57.5 12t32.5 56h148q-32 -143 -114.5 -205t-213.5 -23l-48 15t-44 13.5 t-34 10t-34 9t-27.5 5t-29.5 2.5q-40 3 -58 -11.5t-34 -55.5h-148zM495.5 378.5q-1.5 -58.5 32.5 -94.5t105 -36q55 0 96 19.5t67.5 58t42.5 82t29 104.5q5 33 19 90q14 71 14 127.5t-34 91.5t-103 35q-53 0 -93.5 -19.5t-67.5 -56.5t-43.5 -79t-29.5 -99q-1 -9 -9 -46.5 t-9 -43.5q-15 -75 -16.5 -133.5z" />
<glyph unicode="&#xf6;" horiz-adv-x="1153" d="M205 514q2 7 10.5 46t9.5 44q109 514 594 514q484 0 375 -514q-9 -36 -18 -90q-111 -528 -598 -528q-241 0 -335.5 130t-37.5 398zM495.5 378.5q-1.5 -58.5 32.5 -94.5t105 -36q55 0 96 19.5t67.5 58t42.5 82t29 104.5q5 33 19 90q14 71 14 127.5t-34 91.5t-103 35 q-53 0 -93.5 -19.5t-67.5 -56.5t-43.5 -79t-29.5 -99q-1 -9 -9 -46.5t-9 -43.5q-15 -75 -16.5 -133.5zM512 1233l49 227h252l-49 -227h-252zM918 1233l49 227h252l-48 -227h-253z" />
<glyph unicode="&#xf7;" horiz-adv-x="1095" d="M135 381l49 235h994l-52 -235h-991zM434 0l49 233h236l-49 -233h-236zM596 764l49 229h236l-50 -229h-235z" />
<glyph unicode="&#xf8;" horiz-adv-x="1153" d="M131 -72l129 166q-116 128 -55 420q2 7 10.5 46t9.5 44q109 514 594 514q120 0 207 -35l76 99h164l-131 -170q119 -128 59 -408q-9 -36 -18 -90q-57 -268 -206 -398t-392 -130q-127 0 -211 34l-72 -92h-164zM496 399l342 441q-32 16 -74 16q-53 0 -93.5 -19.5 t-67.5 -56.5t-43.5 -79t-29.5 -99q-1 -9 -9 -46.5t-9 -43.5q-13 -69 -16 -113zM557 264q29 -16 76 -16q55 0 96 19.5t67.5 58t42.5 82t29 104.5q5 33 19 90q14 68 14 107z" />
<glyph unicode="&#xf9;" d="M191 225.5q1 51.5 12 108.5l162 768h309l-150 -705q-18 -80 4 -123q26 -47 115 -47q90 0 182 52l174 823h310l-234 -1102h-303l14 66q-126 -79 -292 -82h-25q-73 0 -127.5 18.5t-86 50.5t-48.5 76.5t-16 96zM621 1528h264l188 -295h-211z" />
<glyph unicode="&#xfa;" d="M191 225.5q1 51.5 12 108.5l162 768h309l-150 -705q-18 -80 4 -123q26 -47 115 -47q90 0 182 52l174 823h310l-234 -1102h-303l14 66q-126 -79 -292 -82h-25q-73 0 -127.5 18.5t-86 50.5t-48.5 76.5t-16 96zM664 1233l313 295h264l-367 -295h-210z" />
<glyph unicode="&#xfb;" d="M191 225.5q1 51.5 12 108.5l162 768h309l-150 -705q-18 -80 4 -123q26 -47 115 -47q90 0 182 52l174 823h310l-234 -1102h-303l14 66q-126 -79 -292 -82h-25q-73 0 -127.5 18.5t-86 50.5t-48.5 76.5t-16 96zM506 1233l305 295h236l180 -295h-238l-88 164l-158 -164h-237z " />
<glyph unicode="&#xfc;" d="M191 225.5q1 51.5 12 108.5l162 768h309l-150 -705q-18 -80 4 -123q26 -47 115 -47q90 0 182 52l174 823h310l-234 -1102h-303l14 66q-126 -79 -292 -82h-25q-73 0 -127.5 18.5t-86 50.5t-48.5 76.5t-16 96zM537 1233l47 227h254l-50 -227h-251zM942 1233l49 227h252 l-49 -227h-252z" />
<glyph unicode="&#xfd;" horiz-adv-x="589" d="M141 0l234 1102h309l-233 -1102h-310z" />
<glyph unicode="&#xfe;" horiz-adv-x="933" d="M86 33l49 227q150 -24 273 -31q93 -3 143.5 8t64.5 42q14 22 11.5 44t-27.5 42q-43 35 -141 90.5t-150 95.5q-112 84 -76 248q14 65 47 123t80 96q121 100 373 100q165 0 314 -39l-52 -235q-114 23 -254 35q-101 7 -137 0q-37 -8 -49 -33q-26 -46 18 -78q22 -18 125 -72 t168 -102q121 -88 84 -256q-18 -88 -50.5 -143t-86.5 -99q-107 -87 -295 -104l-20 -105q91 0 140 -22t57.5 -60t-1.5 -90q-41 -192 -317 -192q-104 0 -182 16l22 107q11 -1 35.5 -3.5t36.5 -3.5t31 -2.5t34.5 -1t30.5 2.5q100 10 111 67q7 33 -14 50.5t-85 17.5h-104l47 215 q-161 10 -254 45z" />
<glyph unicode="&#xff;" horiz-adv-x="1150" d="M96 -377l51 242q59 -10 144 -10q0 2 2 2q43 2 71 9t46 28q35 40 22 110l-186 1098h360l72 -723l342 721h348l-690 -1258q-56 -105 -146 -168q-79 -54 -188 -63q-92 -10 -248 12zM512 1233l49 227h252l-49 -227h-252zM918 1233l49 227h252l-50 -227h-251z" />
<glyph unicode="&#x152;" horiz-adv-x="1949" d="M240 614l55 252q65 318 266 480q97 77 199.5 115t245.5 38q122 0 189.5 -28t115.5 -87q14 19 35 37q36 33 72.5 48.5t92.5 21.5q109 11 325.5 8.5t320.5 -18.5l-58 -273h-530q-22 0 -37 -12q-11 -8 -16 -29l-60 -276h549l-55 -266h-549l-64 -299q-5 -19 2 -29 q12 -12 35 -12h529l-58 -273q-112 -16 -329.5 -18.5t-319.5 8.5q-55 6 -85 21.5t-52 48.5q-9 12 -12 24q-75 -59 -156 -86.5t-207 -27.5q-147 0 -234 36.5t-151 112.5q-127 153 -59 483zM569 606q-38 -186 9 -260q55 -78 165 -78q114 0 201 78q78 73 117 260l57 266 q42 187 -8 261q-52 77 -166 77t-199 -77q-79 -74 -118 -261zM807 0h561h-561zM807 0h561h-561z" />
<glyph unicode="&#x153;" horiz-adv-x="1818" d="M205 514q2 7 10.5 46t9.5 44q109 514 594 514q233 0 309 -129q141 129 363 129q124 0 208.5 -46t121.5 -116q45 -85 46.5 -173.5t-36.5 -260.5q-2 -8 -7 -32t-7 -31h-660q-16 -97 18 -153.5t140 -67.5q145 -16 428 47l-49 -228q-204 -71 -443 -71q-230 0 -313 123 q-132 -123 -360 -123q-241 0 -335.5 130t-37.5 398zM495.5 378.5q-1.5 -58.5 33 -94.5t106.5 -36q54 0 94.5 19.5t67 58t42.5 82t29 104.5q5 33 19 90q14 71 14 127.5t-34 91.5t-103 35q-53 0 -93.5 -19.5t-67.5 -56.5t-43.5 -79t-29.5 -99q-1 -9 -9 -46.5t-9 -43.5 q-15 -75 -16.5 -133.5zM1200 657h373q22 115 -15.5 171.5t-121.5 56.5q-83 0 -146.5 -56t-89.5 -172z" />
<glyph unicode="&#x178;" horiz-adv-x="1185" d="M319 1479h377l103 -523l325 523h377l-620 -899l-125 -580h-320l125 588zM614 1645l50 227h251l-49 -227h-252zM1020 1645l49 227h252l-49 -227h-252z" />
<glyph unicode="&#x2c6;" horiz-adv-x="587" d="M199 1233l305 295h235l179 -295h-236l-88 164l-158 -164h-237z" />
<glyph unicode="&#x2dc;" horiz-adv-x="626" d="M213 1233q32 144 114.5 205t213.5 22q170 -52 219 -55q39 -3 57.5 12t32.5 56h147q-32 -143 -114 -205t-213 -23l-48 15t-44 13.5t-34 10t-34 9t-27.5 5t-29.5 2.5q-40 3 -58.5 -11.5t-34.5 -55.5h-147z" />
<glyph unicode="&#x2000;" horiz-adv-x="1009" />
<glyph unicode="&#x2001;" horiz-adv-x="2019" />
<glyph unicode="&#x2002;" horiz-adv-x="1009" />
<glyph unicode="&#x2003;" horiz-adv-x="2019" />
<glyph unicode="&#x2004;" horiz-adv-x="673" />
<glyph unicode="&#x2005;" horiz-adv-x="504" />
<glyph unicode="&#x2006;" horiz-adv-x="336" />
<glyph unicode="&#x2007;" horiz-adv-x="336" />
<glyph unicode="&#x2008;" horiz-adv-x="252" />
<glyph unicode="&#x2009;" horiz-adv-x="403" />
<glyph unicode="&#x200a;" horiz-adv-x="112" />
<glyph unicode="&#x2010;" horiz-adv-x="761" d="M203 483l51 236h565l-49 -236h-567z" />
<glyph unicode="&#x2011;" horiz-adv-x="761" d="M203 483l51 236h565l-49 -236h-567z" />
<glyph unicode="&#x2012;" horiz-adv-x="761" d="M203 483l51 236h565l-49 -236h-567z" />
<glyph unicode="&#x2013;" horiz-adv-x="684" d="M98 465l49 229h689l-50 -229h-688z" />
<glyph unicode="&#x2014;" horiz-adv-x="1630" d="M98 465l49 229h1641l-49 -229h-1641z" />
<glyph unicode="&#x2018;" horiz-adv-x="634" d="M291 961l338 520h233l-254 -520h-317z" />
<glyph unicode="&#x2019;" horiz-adv-x="493" d="M256 961l254 520h317l-338 -520h-233z" />
<glyph unicode="&#x201a;" horiz-adv-x="550" d="M8 -190l213 436h318l-297 -436h-234z" />
<glyph unicode="&#x201c;" horiz-adv-x="1081" d="M291 961l338 520h233l-254 -520h-317zM745 961l338 520h234l-254 -520h-318z" />
<glyph unicode="&#x201d;" horiz-adv-x="1081" d="M289 961l254 520h317l-338 -520h-233zM743 961l254 520h318l-338 -520h-234z" />
<glyph unicode="&#x201e;" horiz-adv-x="964" d="M-2 -190l213 436h317l-297 -436h-233zM449 -190l213 436h317l-297 -436h-233z" />
<glyph unicode="&#x2022;" horiz-adv-x="790" d="M236 797q29 137 147 234t254 97q138 0 214.5 -97t47.5 -234q-29 -138 -147 -235t-256 -97q-137 0 -213 97t-47 235z" />
<glyph unicode="&#x2026;" horiz-adv-x="1529" d="M98 0l68 315h309l-67 -315h-310zM612 0l66 315h309l-65 -315h-310zM1124 0l68 315h309l-67 -315h-310z" />
<glyph unicode="&#x202f;" horiz-adv-x="403" />
<glyph unicode="&#x2039;" horiz-adv-x="843" d="M236 506q-45 67 28 131l416 377h348l-491 -445l303 -444h-348z" />
<glyph unicode="&#x203a;" horiz-adv-x="843" d="M68 125l491 444l-303 445h346l258 -377q45 -63 -29 -131l-415 -381h-348z" />
<glyph unicode="&#x205f;" horiz-adv-x="504" />
<glyph unicode="&#x20ac;" horiz-adv-x="1161" d="M106 494l41 192h129l25 117h-129l41 192h131q35 131 82.5 224.5t124.5 154.5q87 70 200.5 96t284.5 29q198 3 369 -39l-57 -272q-166 23 -355 20q-65 -3 -99.5 -6t-79.5 -17.5t-75 -41.5q-47 -45 -71 -148h534l-94 -192h-481l-25 -117h457l-94 -192h-404q-21 -114 8 -156 q27 -39 81 -51.5t145 -14.5q163 -5 362 21l-55 -266q-186 -49 -389 -43q-173 2 -275 25.5t-159 92.5q-51 62 -58 170.5t17 221.5h-132z" />
<glyph unicode="&#x2122;" horiz-adv-x="1478" d="M287 1331l30 148h560l-31 -148h-193l-135 -629h-172l133 629h-192zM778 702l152 713q14 68 94 68h123q33 0 52 -17t18 -51l-7 -440l179 440q29 68 98 68h123q79 0 65 -68l-151 -713h-158l133 627l-205 -475q-27 -63 -100 -63h-47q-74 0 -74 63l-4 475l-133 -627h-158z " />
<glyph unicode="&#x25fc;" horiz-adv-x="1105" d="M0 0v1106h1106v-1106h-1106z" />
<glyph unicode="&#xfb01;" horiz-adv-x="1304" d="M170 0q2 10 188 887h-170l45 213h170l15 67q21 100 57 167.5t89 105t115 52.5t146 15q118 0 217 -22l-45 -209q-203 12 -233 -14q-22 -18 -35 -80l-16 -82l377 2h309l-236 -1102h-309l188 887h-374l-189 -887h-309zM1114 1217l53 251h310l-54 -251h-309z" />
<glyph unicode="&#xfb02;" horiz-adv-x="1286" d="M172 2l188 885h-170l46 215h170l14 65q21 98 52 160t89 100q66 44 173 62t317 18q90 0 220.5 -8.5t207.5 -21.5l-314 -1477h-309l268 1266q-199 7 -303 -6q-40 -6 -63 -25q-20 -18 -31 -72l-12 -61h250l-45 -215h-252l-189 -885h-307z" />
</font>
</defs>
</svg>
